<?xml version="1.0" encoding="UTF-8" standalone="no"?>
<!-- Generator: Adobe Illustrator 17.1.0, SVG Export Plug-In . SVG Version: 6.00 Build 0)  -->

<svg
   xmlns:dc="http://purl.org/dc/elements/1.1/"
   xmlns:cc="http://creativecommons.org/ns#"
   xmlns:rdf="http://www.w3.org/1999/02/22-rdf-syntax-ns#"
   xmlns:svg="http://www.w3.org/2000/svg"
   xmlns="http://www.w3.org/2000/svg"
   xmlns:sodipodi="http://sodipodi.sourceforge.net/DTD/sodipodi-0.dtd"
   xmlns:inkscape="http://www.inkscape.org/namespaces/inkscape"
   version="1.1"
   id="Capa_1"
   x="0px"
   y="0px"
   viewBox="0 0 200 200"
   style="enable-background:new 0 0 200 200;"
   xml:space="preserve"
   inkscape:version="0.48.2 r9819"
   width="100%"
   height="100%"
   sodipodi:docname="arrowLeftGrey.svg"><metadata
   id="metadata11"><rdf:RDF><cc:Work
       rdf:about=""><dc:format>image/svg+xml</dc:format><dc:type
         rdf:resource="http://purl.org/dc/dcmitype/StillImage" /><dc:title></dc:title></cc:Work></rdf:RDF></metadata><defs
   id="defs9" /><sodipodi:namedview
   pagecolor="#ffffff"
   bordercolor="#666666"
   borderopacity="1"
   objecttolerance="10"
   gridtolerance="10"
   guidetolerance="10"
   inkscape:pageopacity="0"
   inkscape:pageshadow="2"
   inkscape:window-width="1009"
   inkscape:window-height="758"
   id="namedview7"
   showgrid="false"
   inkscape:zoom="1.18"
   inkscape:cx="100"
   inkscape:cy="100"
   inkscape:window-x="155"
   inkscape:window-y="30"
   inkscape:window-maximized="0"
   inkscape:current-layer="Capa_1" />

<path
   style="fill:#ececec"
   d="m 50.511912,191.84105 c 0.002,-0.87274 6.70509,-21.22664 14.89599,-45.23088 13.66377,-40.04299 14.86241,-44.02865 14.5271,-48.305085 -0.24442,-3.11717 -5.19612,-18.640498 -14.94962,-46.86626 -8.02128,-23.212883 -14.46468,-42.7472861 -14.31867,-43.4097834 0.16482,-0.7477724 20.99324,15.5085934 54.926508,42.8695634 30.06356,24.240757 55.40491,44.815658 56.31409,45.721997 1.31161,1.307483 1.48666,2.084983 0.84746,3.763818 -0.66469,1.74579 -32.23235,27.91744 -111.186978,92.18123 -0.77738,0.63275 -1.0584,0.43989 -1.05588,-0.7246 l 0,0 z"
   id="path3007"
   inkscape:connector-curvature="0" /></svg>