<?xml version="1.0" encoding="utf-8"?>
<!DOCTYPE svg PUBLIC "-//W3C//DTD SVG 1.1//EN" "http://www.w3.org/Graphics/SVG/1.1/DTD/svg11.dtd">
<svg xmlns="http://www.w3.org/2000/svg" xmlns:xlink="http://www.w3.org/1999/xlink" version="1.1" baseProfile="full" width="420" height="420" viewBox="0 0 420.00 420.00" enable-background="new 0 0 420.00 420.00" xml:space="preserve">
	<linearGradient id="SVGID_Stroke1_" gradientUnits="objectBoundingBox" x1="0.5" y1="0.5" x2="1.00125" y2="0.5">
		<stop offset="0" stop-color="#000000" stop-opacity="1"/>
		<stop offset="1" stop-color="#FFFFFF" stop-opacity="1"/>
	</linearGradient>
	<radialGradient id="SVGID_Fill1_" cx="210" cy="210" r="200.5" gradientUnits="userSpaceOnUse">
		<stop offset="0.87069" stop-color="#FFFFFF" stop-opacity="1"/>
		<stop offset="1" stop-color="#000000" stop-opacity="1"/>
	</radialGradient>
	<ellipse fill="url(#SVGID_Fill1_)" stroke-width="0.2" stroke-linejoin="round" stroke="url(#SVGID_Stroke1_)" cx="210" cy="210" rx="200" ry="200"/>
	<linearGradient id="SVGID_Stroke2_" gradientUnits="objectBoundingBox" x1="0.5" y1="0.5" x2="1.00125" y2="0.5">
		<stop offset="0" stop-color="#000000" stop-opacity="1"/>
		<stop offset="1" stop-color="#FFFFFF" stop-opacity="1"/>
	</linearGradient>
	<radialGradient id="SVGID_Fill2_" cx="210" cy="210" r="185.463" gradientUnits="userSpaceOnUse">
		<stop offset="0" stop-color="#FFFFFF" stop-opacity="1"/>
		<stop offset="1" stop-color="#C4C4C4" stop-opacity="1"/>
	</radialGradient>
	<ellipse fill="url(#SVGID_Fill2_)" stroke-width="0.2" stroke-linejoin="round" stroke="url(#SVGID_Stroke2_)" cx="210" cy="210" rx="185" ry="185"/>
	<linearGradient id="SVGID_Stroke3_" gradientUnits="objectBoundingBox" x1="0.5" y1="0.5" x2="1" y2="0.5">
		<stop offset="0" stop-color="#000000" stop-opacity="1"/>
		<stop offset="1" stop-color="#FFFFFF" stop-opacity="1"/>
	</linearGradient>
	<radialGradient id="SVGID_Fill3_" cx="210" cy="210" r="135.03" gradientUnits="userSpaceOnUse">
		<stop offset="0" stop-color="#FFFFFF" stop-opacity="1"/>
		<stop offset="1" stop-color="#000000" stop-opacity="1"/>
	</radialGradient>
	<path fill="url(#SVGID_Fill3_)" stroke-width="0.2" stroke-linejoin="round" stroke="url(#SVGID_Stroke3_)" d="M 345.03,172.895C 330.355,178.822 320,193.202 320,210C 320,226.798 330.355,241.178 345.03,247.105C 341.694,259.272 336.758,270.778 330.461,281.382C 327.126,280.481 323.619,280 320,280C 297.909,280 280,297.909 280,320C 280,323.619 280.481,327.126 281.382,330.461C 270.778,336.758 259.272,341.694 247.105,345.03C 241.178,330.355 226.798,320 210,320C 193.202,320 178.822,330.355 172.895,345.03C 160.728,341.694 149.222,336.758 138.618,330.461C 139.519,327.126 140,323.619 140,320C 140,297.909 122.091,280 100,280C 96.3807,280 92.8737,280.481 89.5394,281.382C 83.2425,270.778 78.3059,259.272 74.9699,247.105C 89.645,241.178 100,226.798 100,210C 100,193.202 89.645,178.822 74.97,172.895C 78.3059,160.728 83.2426,149.222 89.5394,138.618C 92.8738,139.519 96.3808,140 100,140C 122.091,140 140,122.091 140,100C 140,96.3808 139.519,92.8738 138.618,89.5395C 149.222,83.2426 160.728,78.3059 172.895,74.97C 178.822,89.6451 193.202,100 210,100C 226.798,100 241.178,89.6451 247.105,74.97C 259.272,78.3059 270.778,83.2426 281.382,89.5394C 280.481,92.8738 280,96.3808 280,100C 280,122.091 297.909,140 320,140C 323.619,140 327.126,139.519 330.461,138.618C 336.757,149.222 341.694,160.728 345.03,172.895 Z "/>
	<radialGradient id="SVGID_Fill4_" cx="210" cy="210" r="75" gradientUnits="userSpaceOnUse">
		<stop offset="0" stop-color="#FFFFFF" stop-opacity="1"/>
		<stop offset="1" stop-color="#000000" stop-opacity="1"/>
	</radialGradient>
	<path fill="url(#SVGID_Fill4_)" stroke-width="0.2" stroke-linejoin="round" stroke="#000000" stroke-opacity="1" d="M 285,210C 285,168.579 251.421,135 210,135C 168.579,135 135,168.579 135,210C 135,251.421 168.579,285 210,285C 251.421,285 285,251.421 285,210 Z M 176.667,210C 176.667,191.59 191.591,176.667 210,176.667C 228.41,176.667 243.333,191.59 243.333,210C 243.333,228.409 228.41,243.333 210,243.333C 191.591,243.333 176.667,228.409 176.667,210 Z "/>
</svg>
