<?xml version="1.0" encoding="utf-8"?>
<!DOCTYPE svg PUBLIC "-//W3C//DTD SVG 1.1//EN" "http://www.w3.org/Graphics/SVG/1.1/DTD/svg11.dtd">
<svg xmlns="http://www.w3.org/2000/svg" xmlns:xlink="http://www.w3.org/1999/xlink" version="1.1" baseProfile="full" width="200" height="200" viewBox="0 0 200.00 200.00" enable-background="new 0 0 200.00 200.00" xml:space="preserve">
	<path fill="#FFFFFF" fill-opacity="0.945098" stroke-linejoin="round" d="M 87.3421,189.93C 83.4272,188.052 79.2514,185.048 76.3805,181.294L 73.7706,178.665L 69.0728,181.669C 62.5481,186.55 57.5893,187.677 51.3256,186.55C 38.5371,183.922 30.4464,173.784 27.5756,157.262C 26.7926,150.879 26.2706,149.752 24.7047,148.626C 14.7871,142.994 10.3503,137.737 6.95744,128.725C 4.34755,121.966 3.82557,110.701 5.3915,103.567C 6.95744,96.8082 10.3503,90.4249 14.2651,85.919C 17.658,82.5396 17.919,82.1641 17.397,78.7847C 16.614,72.0259 16.875,64.1406 18.441,58.1327C 20.5289,50.6229 26.5316,41.6111 31.7514,38.2317C 39.0591,33.3504 48.1937,32.9749 56.0234,37.1053C 57.8503,37.8562 59.4162,38.6072 59.6772,38.6072C 59.9382,38.6072 60.7212,35.9788 61.7651,32.9749C 64.114,24.7141 69.0728,17.2043 75.5976,12.6984C 80.5563,8.94347 81.0783,8.94347 87.864,8.94347C 96.2157,8.94347 100.392,11.1964 106.655,17.9552L 110.57,22.4611L 113.702,19.4572C 121.01,12.3229 129.1,10.0699 137.452,12.6984C 146.326,15.7023 152.328,22.4611 155.982,33.3504C 157.809,38.6072 158.331,41.2357 158.592,47.9945L 158.853,56.6308L 161.463,55.8798C 162.768,55.8798 164.856,55.5043 165.9,55.1288C 169.293,54.3778 176.339,56.6308 180.776,59.6347C 186.518,63.3896 190.955,69.0219 193.304,76.5318C 195.131,81.4131 195.391,83.2906 195.391,91.1759C 195.391,99.0612 195.131,100.939 193.565,105.445C 189.911,116.709 181.559,124.595 171.641,127.223L 166.422,128.349L 166.944,132.48C 167.205,134.733 167.466,139.614 167.466,143.369C 167.205,159.891 157.548,174.159 144.238,177.539C 138.235,179.041 132.754,177.539 125.968,173.033L 121.532,170.029L 119.966,173.033C 116.573,179.792 113.702,183.547 108.743,186.926C 103.784,190.305 102.74,190.681 96.7377,191.056C 92.5618,191.056 88.908,190.681 87.3421,189.93 Z "/>
	<path fill="#000000" fill-opacity="0.945098" stroke-linejoin="round" d="M 200,91.6518C 200,65.7193 183.951,44.4049 164.445,44.0496C 161.975,20.959 147.161,3.19707 129.136,3.19707C 122.469,3.19707 116.049,5.32849 110.37,9.94661C 104.198,3.55229 96.5433,-0.000106812 88.6421,-0.000106812C 75.0618,-0.000106812 62.963,10.3019 56.7902,25.9324C 53.8272,24.8667 50.6174,24.1562 47.4075,24.1562C 27.9013,24.1562 11.8519,45.4706 11.8519,71.7583C 11.8519,73.5345 11.8519,75.666 12.0988,77.4422C 4.44453,86.3232 8.13802e-005,99.1118 8.13802e-005,112.966C 8.13802e-005,132.504 8.88897,149.911 22.2223,157.016C 25.4322,179.396 40.0001,195.737 57.284,195.737C 63.21,195.737 68.889,193.961 73.8272,190.053C 80.247,196.448 87.6544,200 95.5556,200C 106.173,200 116.296,193.606 122.963,182.948C 127.654,185.79 132.593,187.211 137.531,187.211C 157.284,187.211 173.333,165.897 173.333,139.609C 173.333,138.899 173.333,138.543 173.086,137.833C 188.642,132.504 200,113.677 200,91.6518 Z M 167.901,126.11L 163.21,127.176L 163.951,133.57C 164.198,135.702 164.445,137.833 164.445,139.609C 164.445,158.792 152.346,174.423 137.531,174.423C 132.84,174.423 127.901,172.646 123.704,169.449L 120.494,166.607L 118.025,171.225C 113.086,181.172 104.691,187.211 95.5556,187.211C 88.889,187.211 82.2223,184.014 77.284,177.62L 74.8149,174.778L 72.0988,177.265C 67.6544,180.817 62.4692,182.948 57.284,182.948C 43.4569,182.948 31.8519,169.449 30.6174,151.332L 30.3704,147.424L 27.4075,146.003C 16.2964,141.385 8.88897,128.241 8.88897,112.966C 8.88897,101.954 12.5927,92.007 19.5063,85.2574L 21.9754,82.7708L 21.2346,78.8631C 20.7408,76.3765 20.7408,74.245 20.7408,71.7583C 20.7408,52.5754 32.5927,36.9448 47.4075,36.9448C 51.1112,36.9448 54.3211,37.6553 57.7779,39.4315L 61.7285,41.5629L 63.4569,35.8791C 67.1606,22.0248 77.284,12.7885 88.6421,12.7885C 95.5556,12.7885 102.222,16.3409 107.161,22.7352L 109.877,25.9324L 112.593,23.0905C 117.284,18.1171 122.963,15.6304 129.136,15.6304C 143.704,15.6304 155.803,31.261 155.803,50.0887L 155.803,58.2592L 160.741,57.1935C 161.975,57.1935 163.21,56.8383 164.198,56.8383C 179.012,56.8383 191.111,72.4688 191.111,91.6518C 191.111,109.059 180.988,123.979 167.901,126.11 Z "/>
</svg>
