<?xml version="1.0" encoding="UTF-8" standalone="no"?>
<!-- Generator: Adobe Illustrator 16.0.4, SVG Export Plug-In . SVG Version: 6.00 Build 0)  -->

<svg
   xmlns:dc="http://purl.org/dc/elements/1.1/"
   xmlns:cc="http://creativecommons.org/ns#"
   xmlns:rdf="http://www.w3.org/1999/02/22-rdf-syntax-ns#"
   xmlns:svg="http://www.w3.org/2000/svg"
   xmlns="http://www.w3.org/2000/svg"
   xmlns:sodipodi="http://sodipodi.sourceforge.net/DTD/sodipodi-0.dtd"
   xmlns:inkscape="http://www.inkscape.org/namespaces/inkscape"
   version="1.1"
   id="Capa_1"
   x="0px"
   y="0px"
   width="23.301px"
   height="21.787px"
   viewBox="0 0 23.301 21.787"
   enable-background="new 0 0 23.301 21.787"
   xml:space="preserve"
   inkscape:version="0.48.2 r9819"
   sodipodi:docname="dislikeButton.svg"><metadata
   id="metadata3039"><rdf:RDF><cc:Work
       rdf:about=""><dc:format>image/svg+xml</dc:format><dc:type
         rdf:resource="http://purl.org/dc/dcmitype/StillImage" /><dc:title /></cc:Work></rdf:RDF></metadata><defs
   id="defs3037" /><sodipodi:namedview
   pagecolor="#ffffff"
   bordercolor="#666666"
   borderopacity="1"
   objecttolerance="10"
   gridtolerance="10"
   guidetolerance="10"
   inkscape:pageopacity="0"
   inkscape:pageshadow="2"
   inkscape:window-width="1049"
   inkscape:window-height="788"
   id="namedview3035"
   showgrid="false"
   inkscape:zoom="23.867443"
   inkscape:cx="11.6505"
   inkscape:cy="10.8935"
   inkscape:window-x="0"
   inkscape:window-y="0"
   inkscape:window-maximized="0"
   inkscape:current-layer="Capa_1" />
<path
   d="m 22.939,11.626641 c -0.705,1.712 -2.037,2.581 -3.961,2.581 0,0 -1.263,0 -2.306,0 0.39,0.881 0.824,2.159 0.824,3.699 0,0.422 -0.033,0.86 -0.113,1.306 -0.303,1.79 -1.525,2.742 -3.262,2.551 -0.688,-0.079 -0.924,-0.732 -1.494,-2.315 -0.473,-1.312 -1.121,-3.109 -2.061,-4.554 -0.691,-1.062 -1.922,-1.9 -2.956,-2.416 v 0.131 H 0 V 1.3026414 h 7.612 v 0.623 c 1.198,0.059 1.879,0.024 2.039,-0.027 l 1.362,-0.791 1.018,-0.63500002 c 0.989,-0.533 5.315,-0.584 7.17,-0.309 2.385,0.348 2.961,2.30300002 2.985,2.38700002 0.188,0.648 1.829,6.465 0.753,9.0759996 z m -2.19,-8.6649996 c -0.014,-0.043 -0.361,-1.114 -1.765,-1.315 -1.996,-0.297 -5.698,-0.117 -6.247,0.145 0.004,-0.003 -0.903,0.566 -0.903,0.566 l -1.711,0.961 c -0.397,0.133 -1.297,0.148 -2.511,0.094 v 7.4479996 c 1.226,0.496 3.125,1.561 4.208,3.218 1.036,1.59 1.718,3.481 2.216,4.864 0,0 0.439,1.093 0.545,1.346 0.758,-0.004 1.176,-0.421 1.332,-1.324 0.062,-0.354 0.086,-0.705 0.086,-1.044 0,-2.241 -1.151,-4.025 -1.168,-4.047 l -0.759,-1.157 4.906,-0.002 c 1.312,0 2.106,-0.511 2.579,-1.657 0.744,-1.8049996 -0.336,-6.4579996 -0.808,-8.0959996 z"
   id="path3033"
   inkscape:connector-curvature="0" />
<path
   style="fill:#d40000"
   d="m 15.383619,0.04763838 c -1.114068,0.028859 -1.789994,0.084826 -2.451038,0.202944 -0.616505,0.110161 -0.781989,0.175489 -1.357708,0.535981 -0.278716,0.174521 -0.827276,0.50626902 -1.219023,0.73721702 l -0.7122676,0.419906 -0.9129365,0.017209 c -0.5021154,0.0095 -0.9593282,0.0056 -1.0160284,-0.0087 -0.097208,-0.0244 -0.1030919,-0.04257 -0.1030919,-0.318363 l 0,-0.292488 -3.7917761,0 -3.79177609,0 0,5.614342 0,5.6143426 3.76634439,0 c 3.3076706,0 3.7692789,-0.0076 3.7904391,-0.06279 0.02977,-0.07758 0.3630535,0.09441 1.0532716,0.543535 1.0027182,0.65247 1.6130955,1.270172 2.1746335,2.200731 0.539136,0.893435 1.119214,2.220822 1.867598,4.273604 0.443548,1.216631 0.689128,1.730136 0.936454,1.958114 0.252874,0.23309 0.433601,0.275662 1.075587,0.253363 0.425708,-0.01479 0.581021,-0.03853 0.829866,-0.126858 1.361879,-0.483409 1.989362,-1.780982 1.923762,-3.978146 -0.03168,-1.0612 -0.205668,-1.912618 -0.593548,-2.90462 -0.104979,-0.268483 -0.190871,-0.495972 -0.190871,-0.50553 0,-0.0096 0.513776,-0.01754 1.141723,-0.01774 1.798745,-5.66e-4 2.425739,-0.08489 3.128881,-0.420817 0.832451,-0.397703 1.396282,-0.970155 1.839665,-1.867794 0.643232,-1.30224 0.671192,-3.2888546 0.08985,-6.3839326 -0.28509,-1.517827 -0.658735,-2.957059 -0.883351,-3.402554 -0.459853,-0.912054 -1.284685,-1.57123802 -2.29922,-1.83747402 -0.742636,-0.194884 -2.445725,-0.29143700215 -4.29544,-0.243521 z M 18.4645,1.5681764 c 0.73487,0.08043 0.917747,0.123506 1.296485,0.305405 0.370024,0.177713 0.733789,0.518896 0.897328,0.841625 0.180932,0.357052 0.589789,2.036315 0.84202,3.458356 0.348632,1.965538 0.410638,3.753655 0.160787,4.6367826 -0.192551,0.680594 -0.742438,1.383842 -1.276401,1.632387 -0.594591,0.276764 -0.496668,0.268803 -3.503244,0.284818 -1.503617,0.008 -2.733849,0.02359 -2.733849,0.03463 0,0.01104 0.19016,0.312665 0.422578,0.670287 0.755724,1.162835 1.128704,2.098058 1.360433,3.411204 0.152538,0.864389 0.06781,2.186089 -0.17479,2.726679 -0.187925,0.418751 -0.558024,0.68535 -0.993657,0.715773 l -0.202448,0.01414 -0.22889,-0.565624 c -0.12589,-0.311093 -0.352278,-0.895571 -0.503085,-1.29884 -0.84605,-2.262399 -1.638266,-3.882567 -2.322665,-4.750104 C 10.76165,12.7433 9.5918382,11.842373 8.2723492,11.195998 l -0.6589659,-0.322806 -9.289e-4,-3.7345916 -9.288e-4,-3.734591 0.9950793,0.0036 c 0.6812787,0.0025 1.0740363,-0.01383 1.245456,-0.05165 0.2563391,-0.05654 1.5095461,-0.729668 2.3668971,-1.271315 0.219663,-0.138776 0.465262,-0.280111 0.545776,-0.314077 0.260518,-0.109905 1.047542,-0.204389 2.325599,-0.279196 0.569814,-0.03335 2.839719,0.01833 3.374167,0.07682 l 0,0 z"
   id="path3041"
   inkscape:connector-curvature="0" /></svg>