<?xml version="1.0" encoding="utf-8"?>
<!DOCTYPE svg PUBLIC "-//W3C//DTD SVG 1.1//EN" "http://www.w3.org/Graphics/SVG/1.1/DTD/svg11.dtd">
<svg xmlns="http://www.w3.org/2000/svg" xmlns:xlink="http://www.w3.org/1999/xlink" version="1.1" baseProfile="full" width="24" height="22" viewBox="0 0 24.00 22.00" enable-background="new 0 0 24.00 22.00" xml:space="preserve">
	<g>
		<path fill="#000000" fill-opacity="0.933333" stroke-linejoin="round" d="M 0.971729,11.7055C 1.68785,13.4422 3.01268,14.3468 4.9462,14.3468L 7.2736,14.3468C 6.87973,15.2513 6.45006,16.5538 6.45006,18.1096C 6.45006,18.5438 6.48586,19.0142 6.55748,19.4483C 6.87973,21.2936 8.09714,22.2705 9.85163,22.0534C 10.5678,21.981 10.8184,21.3298 11.3913,19.7016C 11.8568,18.3629 12.5013,16.5176 13.468,15.0342C 14.1484,13.9488 15.4016,13.1166 16.44,12.5739L 16.44,12.7186L 24.1383,12.7186L 24.1383,1.17679L 16.44,1.17679L 16.44,1.79187C 15.2225,1.86423 14.5422,1.82805 14.399,1.79187L 13.0026,0.9597L 11.9642,0.308435C 10.9974,-0.234282 6.59328,-0.270462 4.73137,0.0189877C 2.33236,0.34462 1.75946,2.37077 1.72366,2.44313C 1.54463,3.0944 -0.138258,9.02812 0.971729,11.7055 Z M 3.1559,2.87731C 3.1917,2.80494 3.54977,1.71951 4.9462,1.50242C 6.98715,1.21297 10.711,1.39388 11.2839,1.68332L 12.179,2.26223L 13.8977,3.23912C 14.3274,3.34766 15.2225,3.38384 16.44,3.31148L 16.44,10.9457C 15.2225,11.4523 13.289,12.5377 12.179,14.202C 11.1407,15.8302 10.4603,17.784 9.95905,19.1951C 9.95905,19.1951 9.49357,20.2805 9.38616,20.5699C 8.63423,20.5338 8.20455,20.1358 8.06133,19.1951C 7.98972,18.8332 7.95391,18.4714 7.95391,18.1458C 7.95391,15.8664 9.13551,14.0211 9.13551,14.0211L 9.92325,12.8272L 4.9462,12.8272C 3.62138,12.8272 2.83364,12.2844 2.36817,11.1266C 1.61624,9.28139 2.69042,4.54165 3.1559,2.87731 Z "/>
		<path fill="#000000" fill-opacity="1" stroke-linejoin="round" d="M 8.59842,-0.125738C 9.70841,-0.0895557 10.3887,-0.0171947 11.069,0.0913486C 11.6777,0.199892 11.8568,0.272255 12.4297,0.634069C 12.7161,0.814976 13.289,1.14061 13.6829,1.39388L 14.399,1.82805L 15.33,1.82805C 15.8312,1.86423 16.2967,1.86423 16.3325,1.82805C 16.44,1.79187 16.44,1.79187 16.44,1.50242L 16.44,1.21297L 20.2712,1.21297L 24.1024,1.21297L 24.1024,6.92961L 24.1024,12.6824L 20.307,12.6824C 16.977,12.6824 16.5116,12.6824 16.4758,12.6101C 16.44,12.5377 16.1177,12.7186 15.4016,13.1528C 14.399,13.8402 13.7903,14.4553 13.2174,15.396C 12.6803,16.3367 12.0716,17.6754 11.3197,19.774C 10.89,21.0041 10.6394,21.5468 10.3887,21.7639C 10.1381,22.0172 9.92325,22.0534 9.27874,22.0172C 8.84906,22.0172 8.70584,21.981 8.4552,21.9087C 7.05876,21.4021 6.45006,20.0996 6.52167,17.8564C 6.55748,16.7709 6.7007,15.9026 7.09457,14.8895C 7.20199,14.6 7.3094,14.383 7.3094,14.3468C 7.3094,14.3468 6.77231,14.3468 6.16361,14.3468C 4.3375,14.3468 3.69299,14.2382 2.97687,13.9126C 2.15333,13.5146 1.58043,12.9357 1.11495,11.995C 0.470445,10.6925 0.434638,8.63013 1.04334,5.48236C 1.32979,3.92657 1.68785,2.47931 1.93849,2.00896C 2.40397,1.06824 3.22751,0.416983 4.26589,0.127531C 5.01781,-0.0533752 6.73651,-0.161919 8.59842,-0.125738 Z M 5.48329,1.43006C 4.73137,1.5386 4.55234,1.57478 4.15847,1.75569C 3.80041,1.93659 3.44235,2.29841 3.26332,2.62404C 3.08429,2.98585 2.65461,4.68637 2.40397,6.13362C 2.04591,8.15977 2.01011,9.96884 2.26075,10.8734C 2.43978,11.5608 3.01268,12.2844 3.54977,12.5377C 4.12266,12.8272 4.05105,12.8272 7.09457,12.8272C 8.59842,12.8272 9.85163,12.8633 9.85163,12.8633C 9.85163,12.8633 9.6368,13.189 9.42196,13.5508C 8.63423,14.7448 8.27617,15.6855 8.02552,17.0242C 7.8823,17.9287 7.95391,19.2674 8.20455,19.8101C 8.41939,20.2443 8.77745,20.5338 9.20712,20.5699L 9.42196,20.5699L 9.6726,19.991C 9.78002,19.6654 9.99486,19.0865 10.1739,18.6523C 11.0332,16.3367 11.821,14.7086 12.5013,13.8041C 13.2532,12.8633 14.4348,11.9226 15.7954,11.2714L 16.44,10.9457L 16.44,7.11052L 16.44,3.31148L 15.4374,3.31148C 14.7571,3.31148 14.3632,3.31148 14.1842,3.2753C 13.9335,3.20294 12.6445,2.5155 11.7852,1.97278C 11.5703,1.82805 11.3197,1.68332 11.2481,1.64714C 10.9616,1.5386 10.1739,1.43006 8.88487,1.35769C 8.31197,1.32151 6.02038,1.39388 5.48329,1.43006 Z "/>
		<path fill="#FF0000" fill-opacity="1" stroke-linejoin="round" d="M 9.20712,1.43006C 10.7468,1.50242 11.1048,1.57478 11.6419,1.93659C 11.8926,2.08132 12.4655,2.44313 12.9668,2.73258C 14.1126,3.38384 14.0767,3.38384 15.4732,3.34766L 16.4758,3.34766L 16.44,4.07129C 16.4041,4.46928 16.4041,6.1698 16.4041,7.83414L 16.4041,10.9095L 15.7238,11.2352C 14.5422,11.8503 13.7187,12.4292 12.931,13.2613C 11.9642,14.2744 11.1407,15.8664 10.1381,18.58C 9.88744,19.3036 9.42196,20.4614 9.38616,20.4976C 9.31454,20.5699 8.84906,20.4252 8.67003,20.3167C 8.31197,20.0634 8.09714,19.5207 8.02552,18.6523C 7.95391,18.0734 7.98972,17.6393 8.09714,16.9518C 8.31197,15.7217 8.74164,14.6724 9.49357,13.5146C 9.70841,13.189 9.88744,12.8995 9.92325,12.8633C 9.92325,12.8272 9.49357,12.791 7.41682,12.791C 4.26589,12.791 4.01524,12.791 3.44235,12.4292C 2.86945,12.0674 2.43978,11.4523 2.22494,10.6201C 2.11752,10.2221 2.11752,8.44922 2.22494,7.61705C 2.51139,5.5909 3.08429,2.98585 3.37074,2.5155C 3.65718,2.08132 4.15847,1.71951 4.69556,1.61096C 5.34007,1.43006 7.8823,1.32151 9.20712,1.43006 Z "/>
	</g>
</svg>
