<?xml version="1.0" encoding="utf-8"?>
<!DOCTYPE svg PUBLIC "-//W3C//DTD SVG 1.1//EN" "http://www.w3.org/Graphics/SVG/1.1/DTD/svg11.dtd">
<svg xmlns="http://www.w3.org/2000/svg" xmlns:xlink="http://www.w3.org/1999/xlink" version="1.1" baseProfile="full" width="60" height="60" viewBox="0 0 60.00 60.00" enable-background="new 0 0 60.00 60.00" xml:space="preserve">
	<ellipse fill="#FF2020" fill-opacity="1" stroke-linejoin="round" cx="30" cy="30" rx="28" ry="28"/>
	<path fill="#000000" fill-opacity="1" stroke-linejoin="round" d="M 30,0C 13.4532,0 -1.27157e-006,13.4532 -1.27157e-006,30C -1.27157e-006,46.5468 13.4532,60 30,60C 46.5468,60 60,46.5468 60,30C 60,13.4532 46.5468,0 30,0 Z M 30,55.1079C 16.1151,55.1079 4.89209,43.8849 4.89209,30C 4.89209,16.1871 16.1151,4.89209 30,4.89209C 43.8129,4.89209 55.1079,16.1871 55.1079,30C 55.1079,43.8849 43.8129,55.1079 30,55.1079 Z "/>
	<g>
		<path fill="#000000" fill-opacity="1" stroke-linejoin="round" d="M 19.28,35.84L 12.56,35.84L 12.56,24.64L 18.96,24.64L 18.96,26.72L 15.12,26.72L 15.12,29.12L 18.8,29.12L 18.8,31.2L 15.12,31.2L 15.12,33.76L 19.28,33.76L 19.28,35.84 Z "/>
		<path fill="#000000" fill-opacity="1" stroke-linejoin="round" d="M 28.56,35.84L 26.16,35.84L 26.16,31.44C 26.16,30.2133 25.7042,29.6 24.7925,29.6C 24.3525,29.6 23.9904,29.7625 23.7063,30.0875C 23.4221,30.4125 23.28,30.825 23.28,31.325L 23.28,35.84L 20.88,35.84L 20.88,27.84L 23.28,27.84L 23.28,29.17L 23.3125,29.17C 23.9025,28.1767 24.7625,27.68 25.8925,27.68C 27.6708,27.68 28.56,28.7742 28.56,30.9625L 28.56,35.84 Z "/>
		<path fill="#000000" fill-opacity="1" stroke-linejoin="round" d="M 38.32,35.84L 35.76,35.84L 35.76,34.6725L 35.73,34.6725C 35.175,35.5575 34.36,36 33.285,36C 32.2983,36 31.5042,35.65 30.9025,34.95C 30.3008,34.25 30,33.2725 30,32.0175C 30,30.7058 30.3317,29.655 30.995,28.865C 31.6583,28.075 32.5267,27.68 33.6,27.68C 34.6183,27.68 35.3283,28.06 35.73,28.82L 35.76,28.82L 35.76,24L 38.32,24L 38.32,35.84 Z M 35.8075,31.9475L 35.8075,31.3625C 35.8075,30.8558 35.6621,30.4354 35.3713,30.1012C 35.0804,29.7671 34.7025,29.6 34.2375,29.6C 33.7108,29.6 33.2996,29.8087 33.0037,30.2262C 32.7079,30.6437 32.56,31.2175 32.56,31.9475C 32.56,32.6308 32.7029,33.1571 32.9888,33.5262C 33.2746,33.8954 33.67,34.08 34.175,34.08C 34.6567,34.08 35.0492,33.885 35.3525,33.495C 35.6558,33.105 35.8075,32.5892 35.8075,31.9475 Z "/>
		<path fill="#000000" fill-opacity="1" stroke-linejoin="round" d="M 47.44,32.48L 42.32,32.48C 42.4033,33.6533 43.1292,34.24 44.4975,34.24C 45.3708,34.24 46.1383,34.0267 46.8,33.6L 46.8,35.4C 46.0683,35.8 45.1183,36 43.95,36C 42.6733,36 41.6825,35.645 40.9775,34.935C 40.2725,34.225 39.92,33.235 39.92,31.965C 39.92,30.6467 40.2983,29.6029 41.055,28.8337C 41.8117,28.0646 42.7417,27.68 43.845,27.68C 44.99,27.68 45.8754,28.0196 46.5012,28.6987C 47.1271,29.3779 47.44,30.2992 47.44,31.4625L 47.44,32.48 Z M 45.2,31.04C 45.2,29.9733 44.7442,29.44 43.8325,29.44C 43.4442,29.44 43.1079,29.5929 42.8237,29.8987C 42.5396,30.2046 42.3667,30.585 42.305,31.04L 45.2,31.04 Z "/>
	</g>
</svg>
