<?xml version="1.0" encoding="UTF-8" standalone="no"?>
<!-- Generator: Adobe Illustrator 16.0.0, SVG Export Plug-In . SVG Version: 6.00 Build 0)  -->

<svg
   xmlns:dc="http://purl.org/dc/elements/1.1/"
   xmlns:cc="http://creativecommons.org/ns#"
   xmlns:rdf="http://www.w3.org/1999/02/22-rdf-syntax-ns#"
   xmlns:svg="http://www.w3.org/2000/svg"
   xmlns="http://www.w3.org/2000/svg"
   xmlns:sodipodi="http://sodipodi.sourceforge.net/DTD/sodipodi-0.dtd"
   xmlns:inkscape="http://www.inkscape.org/namespaces/inkscape"
   version="1.1"
   id="Capa_1"
   x="0px"
   y="0px"
   width="29.535px"
   height="29.534px"
   viewBox="0 0 29.535 29.534"
   style="enable-background:new 0 0 29.535 29.534;"
   xml:space="preserve"
   inkscape:version="0.48.2 r9819"
   sodipodi:docname="Flaticon_827.svg"><metadata
   id="metadata4412"><rdf:RDF><cc:Work
       rdf:about=""><dc:format>image/svg+xml</dc:format><dc:type
         rdf:resource="http://purl.org/dc/dcmitype/StillImage" /><dc:title></dc:title></cc:Work></rdf:RDF></metadata><defs
   id="defs4410" /><sodipodi:namedview
   pagecolor="#ffffff"
   bordercolor="#666666"
   borderopacity="1"
   objecttolerance="10"
   gridtolerance="10"
   guidetolerance="10"
   inkscape:pageopacity="0"
   inkscape:pageshadow="2"
   inkscape:window-width="959"
   inkscape:window-height="724"
   id="namedview4408"
   showgrid="false"
   inkscape:zoom="7.9907902"
   inkscape:cx="14.7675"
   inkscape:cy="14.767"
   inkscape:window-x="298"
   inkscape:window-y="47"
   inkscape:window-maximized="0"
   inkscape:current-layer="Capa_1" />
<path
   d="M14.768,0C6.611,0,0,6.609,0,14.768c0,8.155,6.611,14.767,14.768,14.767s14.768-6.612,14.768-14.767  C29.535,6.609,22.924,0,14.768,0z M14.768,27.126c-6.828,0-12.361-5.532-12.361-12.359c0-6.828,5.533-12.362,12.361-12.362  c6.826,0,12.359,5.535,12.359,12.362C27.127,21.594,21.594,27.126,14.768,27.126z"
   id="path4372"
   style="fill:#5599ff" />
<path
   d="M14.385,19.336c-1.338,0-2.289,0.951-2.289,2.34c0,1.336,0.926,2.339,2.289,2.339c1.414,0,2.314-1.003,2.314-2.339  C16.672,20.287,15.771,19.336,14.385,19.336z"
   id="path4374"
   style="fill:#5599ff" />
<path
   d="M14.742,6.092c-1.824,0-3.34,0.513-4.293,1.053l0.875,2.804c0.668-0.462,1.697-0.772,2.545-0.772  c1.285,0.027,1.879,0.644,1.879,1.543c0,0.85-0.67,1.697-1.494,2.701c-1.156,1.364-1.594,2.701-1.516,4.012l0.025,0.669h3.42v-0.463  c-0.025-1.158,0.387-2.162,1.311-3.215c0.979-1.08,2.211-2.366,2.211-4.321C19.705,7.968,18.139,6.092,14.742,6.092z"
   id="path4376"
   style="fill:#5599ff" />
<g
   id="g4378">
</g>
<g
   id="g4380">
</g>
<g
   id="g4382">
</g>
<g
   id="g4384">
</g>
<g
   id="g4386">
</g>
<g
   id="g4388">
</g>
<g
   id="g4390">
</g>
<g
   id="g4392">
</g>
<g
   id="g4394">
</g>
<g
   id="g4396">
</g>
<g
   id="g4398">
</g>
<g
   id="g4400">
</g>
<g
   id="g4402">
</g>
<g
   id="g4404">
</g>
<g
   id="g4406">
</g>
<path
   style="fill:#ffffff;fill-opacity:1"
   d="M 12.652565,26.872609 C 10.799714,26.532183 9.2656371,25.887497 7.7297128,24.803812 5.3174966,23.101853 3.5217918,20.473836 2.8075717,17.600254 2.3984664,15.954267 2.4207313,13.440484 2.8590594,11.787135 4.0304216,7.3688201 7.1867235,4.1730262 11.657527,2.878579 c 0.875782,-0.2535681 1.257514,-0.2872373 3.185059,-0.2809254 2.021102,0.00662 2.2763,0.033647 3.308604,0.3504292 2.172947,0.6668089 4.382099,2.0499764 5.742409,3.5953667 4.353887,4.9462705 4.157207,12.2595225 -0.453967,16.8800985 -2.797368,2.803072 -6.996105,4.145578 -10.787067,3.449061 z m 2.725903,-2.992222 c 0.486996,-0.208371 1.027039,-0.7643 1.208174,-1.243715 0.184826,-0.489183 0.166362,-1.515883 -0.03597,-2.000132 -0.713166,-1.706844 -3.404508,-1.797707 -4.212825,-0.142231 -0.274765,0.562734 -0.32931,1.576005 -0.115326,2.142363 0.175869,0.465474 0.714532,1.030473 1.180908,1.238644 0.491412,0.219346 1.468383,0.221854 1.975038,0.0051 l 0,3e-6 z M 16.270762,17.33 c 0.134478,-1.31258 0.365447,-1.726468 2.242137,-4.017837 0.746861,-0.911889 1.111447,-1.812285 1.18075,-2.916023 C 19.771235,9.1604659 19.51901,8.3769193 18.778546,7.5533466 17.917938,6.5961428 16.40259,6.0319441 14.692298,6.0319441 c -1.541352,0 -4.229754,0.7755943 -4.229754,1.2202687 0,0.1398351 0.726218,2.6095794 0.807877,2.7474532 0.0084,0.014126 0.322772,-0.1217481 0.698678,-0.3019426 0.467934,-0.224309 0.963386,-0.3457275 1.57111,-0.3850262 1.424556,-0.092119 2.126701,0.39729 2.09876,1.4628768 -0.01567,0.59744 -0.246329,1.027088 -1.341319,2.498402 -1.218042,1.636659 -1.48784,2.284539 -1.557188,3.73936 l -0.05518,1.157583 1.749662,0 1.749663,0 0.08615,-0.840919 0,0 z"
   id="path4414"
   inkscape:connector-curvature="0" /><path
   style="fill:#ffffff;fill-opacity:1"
   d="M 12.632739,26.878837 C 6.2319032,25.661352 1.7459216,19.63207 2.5689836,13.352872 3.239518,8.2373185 6.624978,4.3356703 11.657527,2.878579 c 0.875782,-0.2535681 1.257514,-0.2872373 3.185059,-0.2809254 2.021102,0.00662 2.2763,0.033647 3.308604,0.3504292 4.900295,1.5037459 8.311931,5.5988952 8.824349,10.5922882 0.619425,6.036125 -3.299725,11.593342 -9.274602,13.151067 -1.318524,0.343756 -3.769673,0.434388 -5.068198,0.187399 l 0,0 z m 3.189964,-3.290747 c 0.713509,-0.569876 0.922454,-1.072489 0.859236,-2.066882 -0.04305,-0.677147 -0.12139,-0.931003 -0.400053,-1.296348 -0.860648,-1.128368 -2.640422,-1.239158 -3.590073,-0.223479 -0.438343,0.46882 -0.602396,0.924591 -0.602396,1.673572 0,0.74903 0.164082,1.204836 0.602396,1.673399 0.52013,0.556027 0.980435,0.717261 1.87945,0.65832 0.642527,-0.04212 0.879223,-0.121294 1.25144,-0.418582 l 0,0 z m 0.447849,-6.266794 c 0.106097,-1.07673 0.48914,-1.902514 1.357049,-2.925598 1.725761,-2.034311 2.033032,-2.683694 2.033032,-4.296572 0,-0.9506196 -0.04816,-1.2205715 -0.308742,-1.7307132 -0.814283,-1.5941018 -2.868477,-2.4884207 -5.258012,-2.289141 -1.665664,0.1389111 -3.637732,0.7853705 -3.624799,1.1882378 0.0036,0.1119753 0.186925,0.7705692 0.407402,1.4635421 l 0.400866,1.2599507 0.687608,-0.3065294 c 0.913642,-0.4072928 2.288759,-0.5118093 2.902435,-0.2206009 0.529005,0.2510294 0.787852,0.6910749 0.771578,1.3117019 -0.01548,0.590366 -0.247074,1.027811 -1.288648,2.434045 -1.319417,1.781353 -1.630973,2.566407 -1.633698,4.116577 l -0.0015,0.844723 1.735847,0 1.735847,0 0.08372,-0.849623 0,0 z"
   id="path4416"
   inkscape:connector-curvature="0" /><path
   style="fill:#ffffff;fill-opacity:1"
   d="M 12.576771,26.869208 C 5.4284492,25.516202 0.94598019,18.272911 2.97315,11.350567 4.188531,7.2003049 7.338118,4.1298794 11.665926,2.8762749 12.5321,2.6253764 12.919958,2.5913578 14.842586,2.5976536 c 2.021102,0.00662 2.2763,0.033647 3.308604,0.3504292 4.902458,1.5044098 8.311584,5.595516 8.824038,10.5892482 0.620106,6.042783 -3.294562,11.595118 -9.274291,13.154107 -1.344722,0.350586 -3.767125,0.434625 -5.124166,0.17777 z m 2.734545,-3.009007 c 0.620572,-0.259291 0.899654,-0.526111 1.173069,-1.121524 0.416699,-0.907442 0.19387,-2.251759 -0.471122,-2.842254 -1.002549,-0.890238 -2.680268,-0.727912 -3.493269,0.337986 -0.412527,0.540852 -0.55475,1.623688 -0.310474,2.363849 0.159817,0.484253 0.993203,1.282915 1.427503,1.368026 0.595506,0.116704 1.238613,0.07595 1.674293,-0.106083 z m 0.948766,-6.514971 c 0.101436,-1.086252 0.496176,-1.913381 1.458189,-3.055449 1.61473,-1.916954 2.105077,-3.067825 1.961623,-4.6040347 C 19.446968,7.1913996 16.948283,5.7075884 13.695406,6.1319368 12.465303,6.2924076 11.100549,6.6939784 10.709711,7.0104595 l -0.278157,0.2252383 0.413457,1.3465602 c 0.327549,1.0667722 0.45428,1.332983 0.60993,1.2812155 0.108059,-0.03594 0.506203,-0.178805 0.884764,-0.3174787 0.829854,-0.3039905 1.995888,-0.3344777 2.559711,-0.066927 1.013584,0.4809774 0.968841,1.8693867 -0.101224,3.1410877 -1.413327,1.679642 -2.083055,3.186873 -2.083055,4.687937 l 0,0.862826 1.733921,0 1.73392,0 0.0771,-0.825689 z"
   id="path4418"
   inkscape:connector-curvature="0" /><path
   style="fill:#ffffff;fill-opacity:1"
   d="M 12.631808,26.879223 C 10.083696,26.393071 7.9756747,25.290356 6.1632622,23.495502 1.3998935,18.778281 1.2504463,11.213049 5.8247,6.3569976 7.2836342,4.8081854 9.1274357,3.674574 11.338552,2.9669547 12.206289,2.6892548 12.719005,2.6142338 14.121315,2.559779 c 2.631639,-0.1021925 4.202957,0.2338786 6.373615,1.3631786 5.16658,2.6879504 7.682711,8.6595454 6.038852,14.3321574 -1.183395,4.083645 -4.520726,7.282511 -8.805148,8.439824 -1.229827,0.332203 -3.828963,0.426179 -5.096826,0.184284 z m 2.488467,-2.957185 c 1.782398,-0.495019 2.171008,-3.161897 0.613671,-4.211387 -0.81485,-0.549127 -2.054216,-0.501592 -2.82987,0.108538 -0.72987,0.574115 -1.017322,1.87934 -0.62217,2.82507 0.259291,0.620572 0.526111,0.899654 1.121524,1.173069 0.569925,0.26171 1.046815,0.290796 1.716845,0.10471 l 0,0 z m 1.139807,-6.576808 c 0.103344,-1.106686 0.488393,-1.883469 1.637817,-3.304065 0.52906,-0.653878 1.125194,-1.526758 1.32474,-1.939733 C 19.890967,10.718274 19.834507,9.1236384 19.076698,7.9795552 17.860457,6.143366 14.68807,5.5526407 11.660811,6.5986542 10.362492,7.0472644 10.372092,7.0251009 10.83137,8.5134174 c 0.214328,0.6945426 0.43816,1.2927628 0.497405,1.3293783 0.05925,0.036616 0.381335,-0.055148 0.715755,-0.2039178 0.870772,-0.3873733 2.335765,-0.4522552 2.9232,-0.1294635 0.726186,0.399034 0.885078,1.2634466 0.407439,2.2165846 -0.103475,0.206488 -0.540454,0.854109 -0.971065,1.439157 -1.277211,1.735282 -1.684693,2.755171 -1.687481,4.223612 l -0.0015,0.782151 1.733921,0 1.73392,0 0.0771,-0.825689 0,0 z"
   id="path4420"
   inkscape:connector-curvature="0" /></svg>