<?xml version="1.0" encoding="utf-8"?>
<!DOCTYPE svg PUBLIC "-//W3C//DTD SVG 1.1//EN" "http://www.w3.org/Graphics/SVG/1.1/DTD/svg11.dtd">
<svg xmlns="http://www.w3.org/2000/svg" xmlns:xlink="http://www.w3.org/1999/xlink" version="1.1" baseProfile="full" width="60" height="60" viewBox="0 0 60.00 60.00" enable-background="new 0 0 60.00 60.00" xml:space="preserve">
	<g>
		<ellipse fill="#FFFFFF" fill-opacity="1" stroke-linejoin="round" cx="30" cy="30" rx="28" ry="28"/>
		<path fill="#5599FF" fill-opacity="1" stroke-linejoin="round" d="M 30,0C 13.4532,0 0,13.4532 0,30C 0,46.5468 13.4532,60 30,60C 46.5468,60 60,46.5468 60,30C 60,13.4532 46.5468,0 30,0 Z M 30,55.1079C 16.1151,55.1079 4.89209,43.8849 4.89209,30C 4.89209,16.1871 16.1151,4.89209 30,4.89209C 43.813,4.89209 55.1079,16.1871 55.1079,30C 55.1079,43.8849 43.813,55.1079 30,55.1079 Z "/>
		<path fill="#5599FF" fill-opacity="1" stroke-linejoin="round" d="M 29.2086,39.2806C 26.4748,39.2806 24.5324,41.223 24.5324,44.0288C 24.5324,46.7626 26.4748,48.777 29.2086,48.777C 32.0863,48.777 33.8849,46.7626 33.8849,44.0288C 33.8849,41.223 32.0144,39.2806 29.2086,39.2806 Z "/>
		<path fill="#5599FF" fill-opacity="1" stroke-linejoin="round" d="M 29.9281,12.3741C 26.259,12.3741 23.1655,13.4532 21.223,14.5324L 23.0216,20.2158C 24.3165,19.2806 26.4029,18.6331 28.1295,18.6331C 30.7914,18.705 31.9424,20 31.9424,21.7986C 31.9424,23.5252 30.6475,25.2518 28.9209,27.2662C 26.6187,30.0719 25.6835,32.7338 25.8273,35.3957L 25.8993,36.7626L 32.8777,36.7626L 32.8777,35.8273C 32.8058,33.5252 33.6691,31.4389 35.5396,29.3525C 37.482,27.1223 40,24.5324 40,20.5755C 40,16.1871 36.8345,12.3741 29.9281,12.3741 Z "/>
	</g>
</svg>
