<?xml version="1.0" encoding="utf-8"?>
<!DOCTYPE svg PUBLIC "-//W3C//DTD SVG 1.1//EN" "http://www.w3.org/Graphics/SVG/1.1/DTD/svg11.dtd">
<svg xmlns="http://www.w3.org/2000/svg" xmlns:xlink="http://www.w3.org/1999/xlink" version="1.1" baseProfile="full" width="420" height="420" viewBox="0 0 420.00 420.00" enable-background="new 0 0 420.00 420.00" xml:space="preserve">
	<path fill="#C4C4C4" fill-opacity="1" stroke-width="10" stroke-linejoin="round" d="M 51.9999,9.99976L 368,9.99976C 391.196,9.99976 410,28.8038 410,51.9998L 410,368C 410,391.196 391.196,410 368,410L 51.9999,410C 28.804,410 9.99994,391.196 9.99994,368L 9.99994,51.9998C 9.99994,28.8038 28.804,9.99976 51.9999,9.99976 Z "/>
	<g>
		<path fill="#000000" fill-opacity="1" stroke-linejoin="round" d="M 296.056,74.5071L 212.232,287.245C 197.469,326.077 176.737,345.493 150.035,345.493C 142.559,345.493 136.303,344.692 131.268,343.09L 131.268,316.197C 137.447,318.638 143.112,319.859 148.261,319.859C 162.719,319.859 173.552,310.876 180.761,292.909L 195.123,257.606L 123.944,74.5071L 156.501,74.5071L 205.651,215.722C 206.224,217.515 207.463,222.168 209.371,229.683L 210.458,229.683C 211.03,226.822 212.212,222.283 214.005,216.065L 265.616,74.5071L 296.056,74.5071 Z "/>
	</g>
</svg>
