<?xml version="1.0" encoding="utf-8"?>
<!DOCTYPE svg PUBLIC "-//W3C//DTD SVG 1.1//EN" "http://www.w3.org/Graphics/SVG/1.1/DTD/svg11.dtd">
<svg xmlns="http://www.w3.org/2000/svg" xmlns:xlink="http://www.w3.org/1999/xlink" version="1.1" baseProfile="full" width="420" height="420" viewBox="0 0 420.00 420.00" enable-background="new 0 0 420.00 420.00" xml:space="preserve">
	<path fill="#C4C4C4" fill-opacity="1" stroke-width="0.2" stroke-linejoin="round" d="M 52,10L 368,10C 391.196,10 410,28.804 410,52L 410,368C 410,391.196 391.196,410 368,410L 52,410C 28.804,410 10,391.196 10,368L 10,52C 10,28.804 28.804,10 52,10 Z "/>
	<path fill="#FFFFFF" fill-opacity="1" fill-rule="evenodd" stroke-width="10" stroke-linejoin="round" stroke="#000000" stroke-opacity="1" d="M 292.558,306.163C 292.558,325.493 276.888,341.163 257.558,341.163L 160.892,341.163C 141.562,341.163 125.892,325.493 125.892,306.163L 125.892,245.45L 75.2843,245.45L 74.0392,245.479C 56.048,245.481 56.1517,245.923 69.3657,230.003C 71.4995,227.432 73.0195,225.668 74.0743,224.513L 183.884,92.0194L 184.134,92.0194L 188.606,87.6233C 200.525,75.9072 219.849,75.9072 231.767,87.6233L 236.098,91.8808L 236.377,92.2173L 347.935,226.82L 350.635,230.028C 363.849,245.947 363.953,245.505 345.962,245.503L 344.018,245.431L 344.002,245.45L 292.558,245.45L 292.558,306.163 Z "/>
</svg>
