<?xml version="1.0" encoding="utf-8"?>
<!DOCTYPE svg PUBLIC "-//W3C//DTD SVG 1.1//EN" "http://www.w3.org/Graphics/SVG/1.1/DTD/svg11.dtd">
<svg xmlns="http://www.w3.org/2000/svg" xmlns:xlink="http://www.w3.org/1999/xlink" version="1.1" baseProfile="full" width="420" height="420" viewBox="0 0 420.00 420.00" enable-background="new 0 0 420.00 420.00" xml:space="preserve">
	<path fill="#C4C4C4" fill-opacity="1" stroke-width="10" stroke-linejoin="round" d="M 51.9999,9.99976L 368,9.99976C 391.196,9.99976 410,28.8038 410,51.9998L 410,368C 410,391.196 391.196,410 368,410L 51.9999,410C 28.804,410 9.99994,391.196 9.99994,368L 9.99994,51.9998C 9.99994,28.8038 28.804,9.99976 51.9999,9.99976 Z "/>
	<g>
		<path fill="#000000" fill-opacity="1" stroke-linejoin="round" d="M 208.913,338.169C 181.982,338.169 160.478,329.672 144.399,312.678C 128.321,295.684 120.282,273.15 120.282,245.075C 120.282,214.52 128.645,190.66 145.372,173.495C 162.099,156.329 184.71,147.746 213.204,147.746C 240.364,147.746 261.573,156.091 276.831,172.779C 292.089,189.468 299.718,212.632 299.718,242.271C 299.718,271.262 291.498,294.492 275.057,311.963C 258.616,329.434 236.568,338.169 208.913,338.169 Z M 211.087,173.38C 192.129,173.38 177.138,179.646 166.114,192.177C 155.09,204.707 149.577,221.978 149.577,243.988C 149.577,265.197 155.156,281.923 166.314,294.168C 177.471,306.413 192.396,312.535 211.087,312.535C 230.16,312.535 244.817,306.537 255.059,294.54C 265.301,282.543 270.423,265.464 270.423,243.301C 270.423,220.91 265.301,203.658 255.059,191.547C 244.817,179.436 230.16,173.38 211.087,173.38 Z M 244.789,118.451C 239.792,118.451 235.491,116.715 231.886,113.244C 228.281,109.773 226.479,105.367 226.479,100.026C 226.479,94.8386 228.224,90.5091 231.714,87.0379C 235.205,83.5666 239.429,81.831 244.388,81.831C 249.652,81.831 254.087,83.5952 257.691,87.1237C 261.296,90.6522 263.099,94.9531 263.099,100.026C 263.099,105.138 261.353,109.487 257.863,113.072C 254.373,116.658 250.015,118.451 244.789,118.451 Z M 175.497,118.451C 170.348,118.451 165.961,116.62 162.337,112.958C 158.713,109.296 156.901,104.985 156.901,100.026C 156.901,94.8386 158.647,90.5091 162.137,87.0379C 165.627,83.5666 169.89,81.831 174.925,81.831C 179.96,81.831 184.319,83.5952 188,87.1237C 191.681,90.6522 193.521,94.9531 193.521,100.026C 193.521,105.138 191.738,109.487 188.171,113.072C 184.605,116.658 180.38,118.451 175.497,118.451 Z "/>
	</g>
</svg>
