<?xml version="1.0" encoding="utf-8"?>
<!DOCTYPE svg PUBLIC "-//W3C//DTD SVG 1.1//EN" "http://www.w3.org/Graphics/SVG/1.1/DTD/svg11.dtd">
<svg xmlns="http://www.w3.org/2000/svg" xmlns:xlink="http://www.w3.org/1999/xlink" version="1.1" baseProfile="full" width="420" height="420" viewBox="0 0 420.00 420.00" enable-background="new 0 0 420.00 420.00" xml:space="preserve">
	<path fill="#C4C4C4" fill-opacity="1" stroke-width="10" stroke-linejoin="round" d="M 51.9999,9.99976L 368,9.99976C 391.196,9.99976 410,28.8038 410,51.9998L 410,368C 410,391.196 391.196,410 368,410L 51.9999,410C 28.804,410 9.99994,391.196 9.99994,368L 9.99994,51.9998C 9.99994,28.8038 28.804,9.99976 51.9999,9.99976 Z "/>
	<g>
		<path fill="#000000" fill-opacity="1" stroke-linejoin="round" d="M 155.814,315.568L 155.07,315.568L 155.07,343.662L 125.775,343.662L 125.775,72.6761L 155.07,72.6761L 155.07,194.322L 155.814,194.322C 170.233,169.375 191.328,156.901 219.098,156.901C 242.595,156.901 260.991,165.045 274.285,181.334C 287.578,197.622 294.225,219.441 294.225,246.791C 294.225,277.232 286.777,301.597 271.882,319.888C 256.986,338.178 236.587,347.324 210.687,347.324C 186.502,347.324 168.212,336.739 155.814,315.568 Z M 155.07,243.53L 155.07,268.534C 155.07,283.335 160.02,295.894 169.919,306.213C 179.817,316.531 192.396,321.69 207.654,321.69C 225.544,321.69 239.563,315.043 249.709,301.75C 259.856,288.456 264.93,269.984 264.93,246.334C 264.93,226.422 260.19,210.811 250.711,199.5C 241.232,188.19 228.386,182.535 212.174,182.535C 195.009,182.535 181.2,188.333 170.748,199.93C 160.296,211.526 155.07,226.059 155.07,243.53 Z "/>
	</g>
</svg>
