<?xml version="1.0" encoding="utf-8"?>
<!DOCTYPE svg PUBLIC "-//W3C//DTD SVG 1.1//EN" "http://www.w3.org/Graphics/SVG/1.1/DTD/svg11.dtd">
<svg xmlns="http://www.w3.org/2000/svg" xmlns:xlink="http://www.w3.org/1999/xlink" version="1.1" baseProfile="full" width="420" height="420" viewBox="0 0 420.00 420.00" enable-background="new 0 0 420.00 420.00" xml:space="preserve">
	<path fill="#C4C4C4" fill-opacity="1" stroke-width="10" stroke-linejoin="round" d="M 51.9999,9.99976L 368,9.99976C 391.196,9.99976 410,28.8038 410,51.9998L 410,368C 410,391.196 391.196,410 368,410L 51.9999,410C 28.804,410 9.99994,391.196 9.99994,368L 9.99994,51.9998C 9.99994,28.8038 28.804,9.99976 51.9999,9.99976 Z "/>
	<g>
		<path fill="#000000" fill-opacity="1" stroke-linejoin="round" d="M 305.211,261.611C 305.211,333.401 272.788,369.296 207.94,369.296C 145.839,369.296 114.789,334.755 114.789,265.673L 114.789,109.296L 144.085,109.296L 144.085,264.586C 144.085,317.303 166.438,343.662 211.144,343.662C 254.325,343.662 275.915,318.2 275.915,267.276L 275.915,109.296L 305.211,109.296L 305.211,261.611 Z M 246.62,87.3239C 241.623,87.3239 237.322,85.5883 233.717,82.1171C 230.112,78.6459 228.31,74.2401 228.31,68.8997C 228.31,63.7119 230.055,59.3824 233.545,55.9111C 237.036,52.4398 241.26,50.7043 246.219,50.7043C 251.483,50.7043 255.918,52.4685 259.522,55.9969C 263.127,59.5254 264.93,63.8263 264.93,68.8997C 264.93,74.0112 263.184,78.3598 259.694,81.9454C 256.204,85.5311 251.846,87.3239 246.62,87.3239 Z M 177.328,87.3239C 172.179,87.3239 167.792,85.493 164.168,81.831C 160.544,78.169 158.732,73.8586 158.732,68.8997C 158.732,63.7119 160.478,59.3824 163.968,55.9111C 167.458,52.4398 171.721,50.7043 176.756,50.7043C 181.791,50.7043 186.15,52.4685 189.831,55.9969C 193.512,59.5254 195.352,63.8263 195.352,68.8997C 195.352,74.0112 193.569,78.3598 190.002,81.9454C 186.436,85.5311 182.211,87.3239 177.328,87.3239 Z "/>
	</g>
</svg>
