<?xml version="1.0" encoding="utf-8"?>
<!DOCTYPE svg PUBLIC "-//W3C//DTD SVG 1.1//EN" "http://www.w3.org/Graphics/SVG/1.1/DTD/svg11.dtd">
<svg xmlns="http://www.w3.org/2000/svg" xmlns:xlink="http://www.w3.org/1999/xlink" version="1.1" baseProfile="full" width="420" height="420" viewBox="0 0 420.00 420.00" enable-background="new 0 0 420.00 420.00" xml:space="preserve">
	<path fill="#C4C4C4" fill-opacity="1" stroke-width="10" stroke-linejoin="round" d="M 51.9999,9.99976L 368,9.99976C 391.196,9.99976 410,28.8038 410,51.9998L 410,368C 410,391.196 391.196,410 368,410L 51.9999,410C 28.804,410 9.99994,391.196 9.99994,368L 9.99994,51.9998C 9.99994,28.8038 28.804,9.99976 51.9999,9.99976 Z "/>
	<g>
		<path fill="#000000" fill-opacity="1" stroke-linejoin="round" d="M 297.887,180.704C 297.048,199.357 292.309,213.786 283.669,223.99C 275.029,234.194 263.289,239.296 248.451,239.296C 235.596,239.296 219.994,232.487 201.646,218.869C 190.202,210.515 180.838,206.338 173.552,206.338C 157.073,206.338 148.471,217.324 147.747,239.296L 122.113,239.296C 122.685,221.291 127.358,207.025 136.131,196.496C 144.905,185.968 156.768,180.704 171.721,180.704C 184.233,180.704 198.08,186.14 213.261,197.011C 228.787,208.112 240.383,213.662 248.05,213.662C 255.222,213.662 260.991,210.639 265.359,204.593C 269.726,198.547 272.025,190.584 272.254,180.704L 297.887,180.704 Z "/>
	</g>
</svg>
