<?xml version="1.0" encoding="utf-8"?>
<!DOCTYPE svg PUBLIC "-//W3C//DTD SVG 1.1//EN" "http://www.w3.org/Graphics/SVG/1.1/DTD/svg11.dtd">
<svg xmlns="http://www.w3.org/2000/svg" xmlns:xlink="http://www.w3.org/1999/xlink" version="1.1" baseProfile="full" width="740" height="420" viewBox="0 0 740.00 420.00" enable-background="new 0 0 740.00 420.00" xml:space="preserve">
	<path fill="#C4C4C4" fill-opacity="1" stroke-width="0.2" stroke-linejoin="round" d="M 52,9.99997L 688,9.99997C 711.196,9.99997 730,28.804 730,52L 730,368C 730,391.196 711.196,410 688,410L 52,410C 28.8041,410 10,391.196 10,368L 10,52C 10,28.804 28.8041,9.99997 52,9.99997 Z "/>
	<path fill="#FFFFFF" fill-opacity="1" fill-rule="evenodd" stroke-width="10" stroke-linejoin="round" stroke="#000000" stroke-opacity="1" d="M 316.487,99.4738L 331.115,99.4738L 410.098,99.4738L 486.675,99.4738C 505.08,99.4738 520,114.319 520,132.632L 520,287.368C 520,305.681 505.08,320.526 486.675,320.526L 410.098,320.526L 331.158,320.526L 316.487,320.526C 298.764,320.526 258.669,262.585 229.761,233.615C 216.746,220.573 216.746,199.427 229.761,186.385C 258.669,157.415 290.833,99.4737 316.487,99.4738 Z M 339.693,140.22C 344.318,135.595 351.816,135.595 356.441,140.22L 409.474,193.253L 462.506,140.22C 467.131,135.595 474.629,135.595 479.254,140.22C 483.878,144.845 483.878,152.343 479.254,156.967L 426.221,210L 479.254,263.033C 483.878,267.658 483.878,275.156 479.254,279.78C 474.629,284.405 467.131,284.405 462.506,279.78L 409.474,226.747L 356.441,279.78C 351.816,284.405 344.318,284.405 339.693,279.78C 335.069,275.156 335.069,267.658 339.693,263.033L 392.726,210L 339.693,156.967C 335.069,152.343 335.069,144.844 339.693,140.22 Z "/>
</svg>
