<?xml version="1.0" encoding="utf-8"?>
<!DOCTYPE svg PUBLIC "-//W3C//DTD SVG 1.1//EN" "http://www.w3.org/Graphics/SVG/1.1/DTD/svg11.dtd">
<svg xmlns="http://www.w3.org/2000/svg" xmlns:xlink="http://www.w3.org/1999/xlink" version="1.1" baseProfile="full" width="420" height="420" viewBox="0 0 420.00 420.00" enable-background="new 0 0 420.00 420.00" xml:space="preserve">
	<path fill="#C4C4C4" fill-opacity="1" stroke-width="10" stroke-linejoin="round" d="M 51.9999,9.99976L 368,9.99976C 391.196,9.99976 410,28.8038 410,51.9998L 410,368C 410,391.196 391.196,410 368,410L 51.9999,410C 28.804,410 9.99994,391.196 9.99994,368L 9.99994,51.9998C 9.99994,28.8038 28.804,9.99976 51.9999,9.99976 Z "/>
	<g>
		<path fill="#000000" fill-opacity="1" stroke-linejoin="round" d="M 277.746,292.623C 263.861,301.015 247.402,305.211 228.367,305.211C 202.581,305.211 181.782,296.772 165.971,279.892C 150.159,263.013 142.254,241.146 142.254,214.291C 142.254,184.309 150.76,160.23 167.773,142.053C 184.786,123.877 207.482,114.789 235.863,114.789C 251.693,114.789 265.654,117.859 277.746,124.001L 277.746,155.07C 264.357,145.305 250.015,140.423 234.718,140.423C 216.256,140.423 201.112,146.974 189.287,160.077C 177.462,173.18 171.549,190.412 171.549,211.774C 171.549,232.754 177.128,249.299 188.286,261.411C 199.443,273.522 214.387,279.577 233.116,279.577C 248.947,279.577 263.823,274.695 277.746,264.93L 277.746,292.623 Z "/>
	</g>
</svg>
