<?xml version="1.0" encoding="utf-8"?>
<!DOCTYPE svg PUBLIC "-//W3C//DTD SVG 1.1//EN" "http://www.w3.org/Graphics/SVG/1.1/DTD/svg11.dtd">
<svg xmlns="http://www.w3.org/2000/svg" xmlns:xlink="http://www.w3.org/1999/xlink" version="1.1" baseProfile="full" width="420" height="420" viewBox="0 0 420.00 420.00" enable-background="new 0 0 420.00 420.00" xml:space="preserve">
	<path fill="#C4C4C4" fill-opacity="1" stroke-width="10" stroke-linejoin="round" d="M 51.9999,9.99976L 368,9.99976C 391.196,9.99976 410,28.8038 410,51.9998L 410,368C 410,391.196 391.196,410 368,410L 51.9999,410C 28.804,410 9.99994,391.196 9.99994,368L 9.99994,51.9998C 9.99994,28.8038 28.804,9.99976 51.9999,9.99976 Z "/>
	<g>
		<path fill="#000000" fill-opacity="1" stroke-linejoin="round" d="M 279.577,338.169L 140.423,338.169L 140.423,81.831L 272.254,81.831L 272.254,107.465L 169.718,107.465L 169.718,195.352L 264.93,195.352L 264.93,220.986L 169.718,220.986L 169.718,312.535L 279.577,312.535L 279.577,338.169 Z "/>
	</g>
</svg>
