<?xml version="1.0" encoding="utf-8"?>
<!DOCTYPE svg PUBLIC "-//W3C//DTD SVG 1.1//EN" "http://www.w3.org/Graphics/SVG/1.1/DTD/svg11.dtd">
<svg xmlns="http://www.w3.org/2000/svg" xmlns:xlink="http://www.w3.org/1999/xlink" version="1.1" baseProfile="full" width="420" height="420" viewBox="0 0 420.00 420.00" enable-background="new 0 0 420.00 420.00" xml:space="preserve">
	<path fill="#C4C4C4" fill-opacity="1" stroke-width="10" stroke-linejoin="round" d="M 51.9999,9.99976L 368,9.99976C 391.196,9.99976 410,28.8038 410,51.9998L 410,368C 410,391.196 391.196,410 368,410L 51.9999,410C 28.804,410 9.99994,391.196 9.99994,368L 9.99994,51.9998C 9.99994,28.8038 28.804,9.99976 51.9999,9.99976 Z "/>
	<g>
		<path fill="#000000" fill-opacity="1" stroke-linejoin="round" d="M 240.783,247.879L 239.868,247.879C 231.247,276.335 214.272,290.563 188.944,290.563C 172.694,290.563 159.629,284.527 149.749,272.454C 139.869,260.381 134.93,244.102 134.93,223.618C 134.93,196.611 141.767,174.162 155.442,156.272C 169.118,138.382 187.094,129.437 209.371,129.437C 217.877,129.437 225.478,131.649 232.172,136.074C 238.867,140.499 243.168,146.068 245.075,152.782L 245.761,152.782C 245.99,149.577 246.582,143.016 247.535,133.099L 269.908,133.099C 264.3,198.099 261.496,231.19 261.496,232.372C 261.496,256.786 268.744,268.992 283.239,268.992C 296.361,268.992 307.271,262.135 315.968,248.422C 324.665,234.709 329.014,216.943 329.014,195.123C 329.014,162.852 318.715,136.513 298.116,116.105C 277.518,95.6969 249.004,85.493 212.575,85.493C 177.443,85.493 148.395,97.7187 125.431,122.17C 102.468,146.621 90.9859,177.195 90.9859,213.891C 90.9859,249.977 102,279.101 124.03,301.263C 146.059,323.426 175.764,334.507 213.147,334.507C 242.633,334.507 267.829,329.624 288.732,319.859L 288.732,342.804C 267.981,351.92 242.061,356.479 210.973,356.479C 167.296,356.479 132.107,343.424 105.405,317.313C 78.7031,291.202 65.3521,257.033 65.3521,214.806C 65.3521,171.282 79.2848,135.187 107.15,106.521C 135.015,77.8544 170.615,63.5211 213.948,63.5211C 254.535,63.5211 288.132,75.537 314.738,99.5687C 341.345,123.6 354.648,154.956 354.648,193.636C 354.648,221.978 347.505,245.218 333.22,263.356C 318.934,281.494 301.511,290.563 280.951,290.563C 254.287,290.563 240.898,276.335 240.783,247.879 Z M 209.313,151.408C 194.742,151.408 182.974,158.341 174.01,172.207C 165.045,186.073 160.563,203.286 160.563,223.847C 160.563,237.694 163.586,248.613 169.632,256.604C 175.679,264.596 183.737,268.592 193.807,268.592C 208.341,268.592 219.861,261.334 228.367,246.82C 236.874,232.306 241.127,213.071 241.127,189.115C 241.127,163.977 230.522,151.408 209.313,151.408 Z "/>
	</g>
</svg>
