<?xml version="1.0" encoding="utf-8"?>
<!DOCTYPE svg PUBLIC "-//W3C//DTD SVG 1.1//EN" "http://www.w3.org/Graphics/SVG/1.1/DTD/svg11.dtd">
<svg xmlns="http://www.w3.org/2000/svg" xmlns:xlink="http://www.w3.org/1999/xlink" version="1.1" baseProfile="full" width="420" height="420" viewBox="0 0 420.00 420.00" enable-background="new 0 0 420.00 420.00" xml:space="preserve">
	<path fill="#C4C4C4" fill-opacity="1" stroke-width="10" stroke-linejoin="round" d="M 51.9999,9.99976L 368,9.99976C 391.196,9.99976 410,28.8038 410,51.9998L 410,368C 410,391.196 391.196,410 368,410L 51.9999,410C 28.804,410 9.99994,391.196 9.99994,368L 9.99994,51.9998C 9.99994,28.8038 28.804,9.99976 51.9999,9.99976 Z "/>
	<g>
		<path fill="#000000" fill-opacity="1" stroke-linejoin="round" d="M 338.169,118.451L 283.239,301.549L 252.799,301.549L 215.035,170.519C 213.586,165.522 212.632,159.858 212.174,153.526L 211.43,153.526C 211.087,157.798 209.828,163.348 207.654,170.176L 166.686,301.549L 137.333,301.549L 81.831,118.451L 112.614,118.451L 150.55,256.118C 151.771,260.314 152.61,265.807 153.068,272.597L 154.498,272.597C 154.88,267.333 155.948,261.725 157.702,255.775L 199.987,118.451L 226.822,118.451L 264.758,256.461C 265.979,260.886 266.875,266.379 267.447,272.94L 268.878,272.94C 269.145,268.286 270.155,262.793 271.91,256.461L 309.159,118.451L 338.169,118.451 Z "/>
	</g>
</svg>
