<?xml version="1.0" encoding="utf-8"?>
<!DOCTYPE svg PUBLIC "-//W3C//DTD SVG 1.1//EN" "http://www.w3.org/Graphics/SVG/1.1/DTD/svg11.dtd">
<svg xmlns="http://www.w3.org/2000/svg" xmlns:xlink="http://www.w3.org/1999/xlink" version="1.1" baseProfile="full" width="420" height="420" viewBox="0 0 420.00 420.00" enable-background="new 0 0 420.00 420.00" xml:space="preserve">
	<path fill="#C4C4C4" fill-opacity="1" stroke-width="10" stroke-linejoin="round" d="M 51.9999,9.99976L 368,9.99976C 391.196,9.99976 410,28.8038 410,51.9998L 410,368C 410,391.196 391.196,410 368,410L 51.9999,410C 28.804,410 9.99994,391.196 9.99994,368L 9.99994,51.9998C 9.99994,28.8038 28.804,9.99976 51.9999,9.99976 Z "/>
	<g>
		<path fill="#000000" fill-opacity="1" stroke-linejoin="round" d="M 310.704,166.056L 306.871,184.366L 259.723,184.366L 248.851,239.296L 299.718,239.296L 294.969,257.606L 245.418,257.606L 230.713,327.183L 208.169,327.183L 222.474,257.606L 178.816,257.606L 164.626,327.183L 142.254,327.183L 156.444,257.606L 109.296,257.606L 112.5,239.296L 160.277,239.296L 170.92,184.366L 120.282,184.366L 124.058,166.056L 174.639,166.056L 189.344,92.8169L 211.831,92.8169L 197.069,166.056L 240.841,166.056L 255.775,92.8169L 277.746,92.8169L 263.213,166.056L 310.704,166.056 Z M 237.579,184.366L 193.75,184.366L 182.135,239.296L 226.593,239.296L 237.579,184.366 Z "/>
	</g>
</svg>
