<?xml version="1.0" encoding="utf-8"?>
<!DOCTYPE svg PUBLIC "-//W3C//DTD SVG 1.1//EN" "http://www.w3.org/Graphics/SVG/1.1/DTD/svg11.dtd">
<svg xmlns="http://www.w3.org/2000/svg" xmlns:xlink="http://www.w3.org/1999/xlink" version="1.1" baseProfile="full" width="420" height="420" viewBox="0 0 420.00 420.00" enable-background="new 0 0 420.00 420.00" xml:space="preserve">
	<path fill="#C4C4C4" fill-opacity="1" stroke-width="10" stroke-linejoin="round" d="M 51.9999,9.99976L 368,9.99976C 391.196,9.99976 410,28.8038 410,51.9998L 410,368C 410,391.196 391.196,410 368,410L 51.9999,410C 28.804,410 9.99994,391.196 9.99994,368L 9.99994,51.9998C 9.99994,28.8038 28.804,9.99976 51.9999,9.99976 Z "/>
	<g>
		<path fill="#000000" fill-opacity="1" stroke-linejoin="round" d="M 207.311,341.831C 181.677,341.831 161.679,330.979 147.317,309.274C 132.956,287.569 125.775,256.194 125.775,215.15C 125.775,170.1 133.261,136.007 148.233,112.872C 163.205,89.7367 184.824,78.169 213.09,78.169C 267.18,78.169 294.225,121.75 294.225,208.913C 294.225,252.094 286.587,285.042 271.309,307.757C 256.032,330.473 234.699,341.831 207.311,341.831 Z M 211.488,103.803C 173.876,103.803 155.07,140.403 155.07,213.605C 155.07,282 173.495,316.197 210.343,316.197C 246.734,316.197 264.93,281.408 264.93,211.831C 264.93,139.812 247.116,103.803 211.488,103.803 Z "/>
	</g>
</svg>
