<?xml version="1.0" encoding="utf-8"?>
<!DOCTYPE svg PUBLIC "-//W3C//DTD SVG 1.1//EN" "http://www.w3.org/Graphics/SVG/1.1/DTD/svg11.dtd">
<svg xmlns="http://www.w3.org/2000/svg" xmlns:xlink="http://www.w3.org/1999/xlink" version="1.1" baseProfile="full" width="420" height="420" viewBox="0 0 420.00 420.00" enable-background="new 0 0 420.00 420.00" xml:space="preserve">
	<path fill="#C4C4C4" fill-opacity="1" stroke-width="10" stroke-linejoin="round" d="M 51.9999,9.99976L 368,9.99976C 391.196,9.99976 410,28.8038 410,51.9998L 410,368C 410,391.196 391.196,410 368,410L 51.9999,410C 28.804,410 9.99994,391.196 9.99994,368L 9.99994,51.9998C 9.99994,28.8038 28.804,9.99976 51.9999,9.99976 Z "/>
	<g>
		<path fill="#000000" fill-opacity="1" stroke-linejoin="round" d="M 283.239,334.507L 253.944,334.507L 253.944,304.296L 253.2,304.296C 240.268,326.878 221.196,338.169 195.981,338.169C 177.443,338.169 162.938,333.324 152.467,323.636C 141.996,313.947 136.761,301.072 136.761,285.013C 136.761,250.644 157.226,230.656 198.156,225.048L 253.944,217.324C 253.944,188.028 241.184,173.38 215.665,173.38C 193.273,173.38 173.075,180.704 155.07,195.352L 155.07,165.084C 173.266,153.526 194.227,147.746 217.953,147.746C 261.477,147.746 283.239,170.443 283.239,215.836L 283.239,334.507 Z M 253.944,239.296L 208.455,245.475C 194.456,247.383 183.889,250.787 176.756,255.689C 169.623,260.591 166.056,269.259 166.056,281.695C 166.056,290.773 169.346,298.183 175.926,303.924C 182.507,309.665 191.251,312.535 202.161,312.535C 217.152,312.535 229.531,307.366 239.296,297.029C 249.061,286.692 253.944,273.608 253.944,257.777L 253.944,239.296 Z M 250.282,118.451C 245.285,118.451 240.984,116.715 237.379,113.244C 233.774,109.773 231.972,105.367 231.972,100.026C 231.972,94.8386 233.717,90.5091 237.207,87.0379C 240.698,83.5666 244.922,81.831 249.881,81.831C 255.145,81.831 259.58,83.5952 263.184,87.1237C 266.789,90.6522 268.592,94.9531 268.592,100.026C 268.592,105.138 266.846,109.487 263.356,113.072C 259.866,116.658 255.508,118.451 250.282,118.451 Z M 180.99,118.451C 175.841,118.451 171.454,116.62 167.83,112.958C 164.206,109.296 162.394,104.985 162.394,100.026C 162.394,94.8386 164.14,90.5091 167.63,87.0379C 171.12,83.5666 175.383,81.831 180.418,81.831C 185.453,81.831 189.811,83.5952 193.492,87.1237C 197.174,90.6522 199.014,94.9531 199.014,100.026C 199.014,105.138 197.231,109.487 193.664,113.072C 190.098,116.658 185.873,118.451 180.99,118.451 Z "/>
	</g>
</svg>
