<?xml version="1.0" encoding="utf-8"?>
<!DOCTYPE svg PUBLIC "-//W3C//DTD SVG 1.1//EN" "http://www.w3.org/Graphics/SVG/1.1/DTD/svg11.dtd">
<svg xmlns="http://www.w3.org/2000/svg" xmlns:xlink="http://www.w3.org/1999/xlink" version="1.1" baseProfile="full" width="420" height="420" viewBox="0 0 420.00 420.00" enable-background="new 0 0 420.00 420.00" xml:space="preserve">
	<path fill="#C4C4C4" fill-opacity="1" stroke-width="10" stroke-linejoin="round" d="M 51.9999,9.99976L 368,9.99976C 391.196,9.99976 410,28.8038 410,51.9998L 410,368C 410,391.196 391.196,410 368,410L 51.9999,410C 28.804,410 9.99994,391.196 9.99994,368L 9.99994,51.9998C 9.99994,28.8038 28.804,9.99976 51.9999,9.99976 Z "/>
	<g>
		<path fill="#000000" fill-opacity="1" stroke-linejoin="round" d="M 217.324,133.099C 211.678,133.099 206.91,131.105 203.019,127.119C 199.129,123.133 197.183,118.355 197.183,112.786C 197.183,107.217 199.129,102.496 203.019,98.6246C 206.91,94.7528 211.678,92.8169 217.324,92.8169C 222.855,92.8169 227.595,94.7528 231.543,98.6246C 235.491,102.496 237.465,107.217 237.465,112.786C 237.465,118.355 235.491,123.133 231.543,127.119C 227.595,131.105 222.855,133.099 217.324,133.099 Z M 233.803,239.296L 204.164,327.183L 182.535,327.183L 204.164,239.296L 233.803,239.296 Z "/>
	</g>
</svg>
