<?xml version="1.0" encoding="utf-8"?>
<!DOCTYPE svg PUBLIC "-//W3C//DTD SVG 1.1//EN" "http://www.w3.org/Graphics/SVG/1.1/DTD/svg11.dtd">
<svg xmlns="http://www.w3.org/2000/svg" xmlns:xlink="http://www.w3.org/1999/xlink" version="1.1" baseProfile="full" width="420" height="420" viewBox="0 0 420.00 420.00" enable-background="new 0 0 420.00 420.00" xml:space="preserve">
	<path fill="#C4C4C4" fill-opacity="1" stroke-width="10" stroke-linejoin="round" d="M 51.9999,9.99976L 368,9.99976C 391.196,9.99976 410,28.8038 410,51.9998L 410,368C 410,391.196 391.196,410 368,410L 51.9999,410C 28.804,410 9.99994,391.196 9.99994,368L 9.99994,51.9998C 9.99994,28.8038 28.804,9.99976 51.9999,9.99976 Z "/>
	<g>
		<path fill="#000000" fill-opacity="1" stroke-linejoin="round" d="M 208.913,305.211C 181.982,305.211 160.478,296.714 144.399,279.72C 128.321,262.727 120.282,240.192 120.282,212.117C 120.282,181.562 128.645,157.702 145.372,140.537C 162.099,123.371 184.71,114.789 213.204,114.789C 240.364,114.789 261.573,123.133 276.831,139.822C 292.089,156.51 299.718,179.674 299.718,209.313C 299.718,238.304 291.498,261.535 275.057,279.005C 258.616,296.476 236.568,305.211 208.913,305.211 Z M 211.087,140.423C 192.129,140.423 177.138,146.688 166.114,159.219C 155.09,171.75 149.577,189.02 149.577,211.03C 149.577,232.239 155.156,248.966 166.314,261.21C 177.471,273.455 192.396,279.577 211.087,279.577C 230.16,279.577 244.817,273.579 255.059,261.582C 265.301,249.586 270.423,232.506 270.423,210.343C 270.423,187.952 265.301,170.701 255.059,158.589C 244.817,146.478 230.16,140.423 211.087,140.423 Z "/>
	</g>
</svg>
