<?xml version="1.0" encoding="utf-8"?>
<!DOCTYPE svg PUBLIC "-//W3C//DTD SVG 1.1//EN" "http://www.w3.org/Graphics/SVG/1.1/DTD/svg11.dtd">
<svg xmlns="http://www.w3.org/2000/svg" xmlns:xlink="http://www.w3.org/1999/xlink" version="1.1" baseProfile="full" width="580" height="420" viewBox="0 0 580.00 420.00" enable-background="new 0 0 580.00 420.00" xml:space="preserve">
	<path fill="#C4C4C4" fill-opacity="1" stroke-width="0.2" stroke-linejoin="round" d="M 52,10L 528,10C 551.196,10 570,28.804 570,52L 570,368C 570,391.196 551.196,410 528,410L 52,410C 28.804,410 9.99997,391.196 9.99997,368L 9.99997,52C 9.99997,28.804 28.804,10 52,10 Z "/>
	<path fill="#000000" fill-opacity="1" stroke-width="0.2" stroke-linejoin="round" d="M 386.142,112.115L 517.836,112.115L 518.502,112.096C 524.852,112.096 530,117.245 530,123.595L 530,255.08C 530,259.002 528.036,262.466 525.038,264.541C 523.065,266.134 520.554,267.088 517.82,267.088L 110.982,267.088L 151.515,285.988C 157.27,288.672 159.76,295.514 157.076,301.269C 154.392,307.024 147.551,309.514 141.796,306.831L 56.5837,267.096C 52.0311,264.973 49.5216,260.248 49.9999,255.518C 49.5217,250.787 52.0311,246.063 56.5837,243.94L 141.796,204.205C 147.551,201.521 154.392,204.011 157.076,209.767C 159.76,215.522 157.27,222.363 151.514,225.047L 110.675,244.091L 507.003,244.091L 507.003,135.112L 386.142,135.112C 379.792,135.112 374.644,129.964 374.644,123.614C 374.644,117.263 379.792,112.115 386.142,112.115 Z "/>
</svg>
