<?xml version="1.0" encoding="utf-8"?>
<!DOCTYPE svg PUBLIC "-//W3C//DTD SVG 1.1//EN" "http://www.w3.org/Graphics/SVG/1.1/DTD/svg11.dtd">
<svg xmlns="http://www.w3.org/2000/svg" xmlns:xlink="http://www.w3.org/1999/xlink" version="1.1" baseProfile="full" width="420" height="420" viewBox="0 0 420.00 420.00" enable-background="new 0 0 420.00 420.00" xml:space="preserve">
	<path fill="#C4C4C4" fill-opacity="1" stroke-width="10" stroke-linejoin="round" d="M 51.9999,9.99976L 368,9.99976C 391.196,9.99976 410,28.8038 410,51.9998L 410,368C 410,391.196 391.196,410 368,410L 51.9999,410C 28.804,410 9.99994,391.196 9.99994,368L 9.99994,51.9998C 9.99994,28.8038 28.804,9.99976 51.9999,9.99976 Z "/>
	<g>
		<path fill="#000000" fill-opacity="1" stroke-linejoin="round" d="M 288.732,217.324L 160.563,217.324C 161.059,237.198 166.571,252.542 177.099,263.356C 187.628,274.17 202.123,279.577 220.585,279.577C 241.337,279.577 260.39,273.474 277.746,261.268L 277.746,288.103C 261.725,299.508 240.516,305.211 214.12,305.211C 188.333,305.211 168.078,296.953 153.354,280.436C 138.63,263.919 131.268,240.669 131.268,210.687C 131.268,182.383 139.23,159.324 155.156,141.51C 171.082,123.696 190.87,114.789 214.52,114.789C 238.132,114.789 256.404,122.485 269.335,137.876C 282.267,153.268 288.732,174.658 288.732,202.047L 288.732,217.324 Z M 259.437,191.69C 259.322,175.516 255.26,162.928 247.249,153.926C 239.239,144.924 228.1,140.423 213.834,140.423C 200.063,140.423 188.371,145.153 178.759,154.613C 169.146,164.073 163.215,176.432 160.964,191.69L 259.437,191.69 Z "/>
	</g>
</svg>
