<?xml version="1.0" encoding="utf-8"?>
<!DOCTYPE svg PUBLIC "-//W3C//DTD SVG 1.1//EN" "http://www.w3.org/Graphics/SVG/1.1/DTD/svg11.dtd">
<svg xmlns="http://www.w3.org/2000/svg" xmlns:xlink="http://www.w3.org/1999/xlink" version="1.1" baseProfile="full" width="420" height="420" viewBox="0 0 420.00 420.00" enable-background="new 0 0 420.00 420.00" xml:space="preserve">
	<path fill="#C4C4C4" fill-opacity="1" stroke-width="10" stroke-linejoin="round" d="M 51.9999,9.99976L 368,9.99976C 391.196,9.99976 410,28.8038 410,51.9998L 410,368C 410,391.196 391.196,410 368,410L 51.9999,410C 28.804,410 9.99994,391.196 9.99994,368L 9.99994,51.9998C 9.99994,28.8038 28.804,9.99976 51.9999,9.99976 Z "/>
	<g>
		<path fill="#000000" fill-opacity="1" stroke-linejoin="round" d="M 292.394,328.9C 276.297,337.521 259.246,341.831 241.241,341.831C 189.63,341.831 158.866,312.535 148.948,253.944L 127.606,253.944L 127.606,228.31L 146.602,228.31C 146.144,224.61 145.916,220.032 145.916,214.577C 145.916,208.894 146.278,202.485 147.003,195.352L 127.606,195.352L 127.606,169.718L 150.722,169.718C 156.901,141.071 168.545,118.651 185.654,102.458C 202.762,86.2654 223.523,78.1691 247.936,78.1691C 264.529,78.1691 279.349,81.9455 292.394,89.4983L 292.394,118.451C 278.586,108.685 263.079,103.803 245.876,103.803C 230.694,103.803 217.2,109.754 205.394,121.655C 193.588,133.556 185.32,149.577 180.59,169.718L 270.423,169.718L 270.423,195.352L 176.642,195.352C 175.688,207.101 175.631,218.087 176.47,228.31L 270.423,228.31L 270.423,253.944L 179.331,253.944C 188.066,295.446 209.275,316.197 242.958,316.197C 258.826,316.197 275.305,311.315 292.394,301.549L 292.394,328.9 Z "/>
	</g>
</svg>
