<?xml version="1.0" encoding="utf-8"?>
<!DOCTYPE svg PUBLIC "-//W3C//DTD SVG 1.1//EN" "http://www.w3.org/Graphics/SVG/1.1/DTD/svg11.dtd">
<svg xmlns="http://www.w3.org/2000/svg" xmlns:xlink="http://www.w3.org/1999/xlink" version="1.1" baseProfile="full" width="420" height="420" viewBox="0 0 420.00 420.00" enable-background="new 0 0 420.00 420.00" xml:space="preserve">
	<path fill="#C4C4C4" fill-opacity="1" stroke-width="10" stroke-linejoin="round" d="M 51.9999,9.99976L 368,9.99976C 391.196,9.99976 410,28.8038 410,51.9998L 410,368C 410,391.196 391.196,410 368,410L 51.9999,410C 28.804,410 9.99994,391.196 9.99994,368L 9.99994,51.9998C 9.99994,28.8038 28.804,9.99976 51.9999,9.99976 Z "/>
	<g>
		<path fill="#000000" fill-opacity="1" stroke-linejoin="round" d="M 266.761,101.972C 260.924,99.5305 254.287,98.3099 246.849,98.3099C 225.945,98.3099 215.493,111.031 215.493,136.474L 215.493,164.225L 259.437,164.225L 259.437,189.859L 215.493,189.859L 215.493,347.324L 186.197,347.324L 186.197,189.859L 153.239,189.859L 153.239,164.225L 186.197,164.225L 186.197,134.643C 186.197,115.533 191.824,100.427 203.077,89.3266C 214.33,78.2262 228.367,72.6761 245.189,72.6761C 254.23,72.6761 261.42,73.7441 266.761,75.8803L 266.761,101.972 Z "/>
	</g>
</svg>
