<?xml version="1.0" encoding="utf-8"?>
<!DOCTYPE svg PUBLIC "-//W3C//DTD SVG 1.1//EN" "http://www.w3.org/Graphics/SVG/1.1/DTD/svg11.dtd">
<svg xmlns="http://www.w3.org/2000/svg" xmlns:xlink="http://www.w3.org/1999/xlink" version="1.1" baseProfile="full" width="420" height="420" viewBox="0 0 420.00 420.00" enable-background="new 0 0 420.00 420.00" xml:space="preserve">
	<path fill="#C4C4C4" fill-opacity="1" stroke-width="10" stroke-linejoin="round" d="M 51.9999,9.99976L 368,9.99976C 391.196,9.99976 410,28.8038 410,51.9998L 410,368C 410,391.196 391.196,410 368,410L 51.9999,410C 28.804,410 9.99994,391.196 9.99994,368L 9.99994,51.9998C 9.99994,28.8038 28.804,9.99976 51.9999,9.99976 Z "/>
	<g>
		<path fill="#000000" fill-opacity="1" stroke-linejoin="round" d="M 289.247,118.451L 227.738,211.087L 288.217,301.549L 254.115,301.549L 218.239,242.214C 215.989,238.514 213.3,233.86 210.172,228.253L 209.485,228.253C 208.875,229.321 206.071,233.974 201.074,242.214L 164.511,301.549L 130.753,301.549L 193.178,211.774L 133.442,118.451L 167.544,118.451L 202.848,181.048C 205.48,185.701 208.036,190.469 210.515,195.352L 211.259,195.352L 256.919,118.451L 289.247,118.451 Z "/>
	</g>
</svg>
