<?xml version="1.0" encoding="utf-8"?>
<!DOCTYPE svg PUBLIC "-//W3C//DTD SVG 1.1//EN" "http://www.w3.org/Graphics/SVG/1.1/DTD/svg11.dtd">
<svg xmlns="http://www.w3.org/2000/svg" xmlns:xlink="http://www.w3.org/1999/xlink" version="1.1" baseProfile="full" width="420" height="420" viewBox="0 0 420.00 420.00" enable-background="new 0 0 420.00 420.00" xml:space="preserve">
	<path fill="#C4C4C4" fill-opacity="1" stroke-width="10" stroke-linejoin="round" d="M 51.9999,9.99976L 368,9.99976C 391.196,9.99976 410,28.8038 410,51.9998L 410,368C 410,391.196 391.196,410 368,410L 51.9999,410C 28.804,410 9.99994,391.196 9.99994,368L 9.99994,51.9998C 9.99994,28.8038 28.804,9.99976 51.9999,9.99976 Z "/>
	<g>
		<path fill="#000000" fill-opacity="1" stroke-linejoin="round" d="M 149.577,293.882L 149.577,261.268C 165.599,273.474 183.222,279.577 202.447,279.577C 228.234,279.577 241.127,271.433 241.127,255.145C 241.127,250.301 240.021,246.191 237.808,242.815C 235.596,239.439 232.601,236.444 228.825,233.831C 225.048,231.218 220.604,228.872 215.493,226.794C 210.381,224.715 204.889,222.55 199.014,220.299C 190.889,217.133 183.737,213.919 177.557,210.658C 171.378,207.397 166.218,203.716 162.08,199.615C 157.941,195.514 154.823,190.86 152.725,185.654C 150.626,180.447 149.577,174.353 149.577,167.372C 149.577,158.828 151.561,151.275 155.528,144.714C 159.495,138.153 164.778,132.65 171.378,128.206C 177.977,123.762 185.511,120.415 193.979,118.165C 202.447,115.914 211.183,114.789 220.185,114.789C 236.168,114.789 250.472,117.707 263.099,123.543L 263.099,155.07C 249.366,145.305 233.574,140.423 215.722,140.423C 210.114,140.423 205.06,141.014 200.559,142.196C 196.058,143.379 192.196,145.048 188.972,147.203C 185.749,149.358 183.26,151.933 181.505,154.927C 179.751,157.922 178.873,161.231 178.873,164.855C 178.873,169.585 179.741,173.552 181.477,176.756C 183.212,179.96 185.759,182.802 189.115,185.282C 192.472,187.761 196.554,190.012 201.36,192.033C 206.166,194.055 211.621,196.249 217.724,198.614C 225.888,201.703 233.202,204.879 239.668,208.14C 246.133,211.402 251.645,215.073 256.204,219.155C 260.762,223.236 264.272,227.938 266.732,233.259C 269.192,238.581 270.423,244.922 270.423,252.284C 270.423,261.287 268.439,269.107 264.472,275.744C 260.505,282.381 255.193,287.884 248.537,292.251C 241.88,296.619 234.222,299.871 225.563,302.007C 216.904,304.143 207.826,305.211 198.327,305.211C 179.598,305.211 163.348,301.435 149.577,293.882 Z "/>
	</g>
</svg>
