<?xml version="1.0" encoding="utf-8"?>
<!DOCTYPE svg PUBLIC "-//W3C//DTD SVG 1.1//EN" "http://www.w3.org/Graphics/SVG/1.1/DTD/svg11.dtd">
<svg xmlns="http://www.w3.org/2000/svg" xmlns:xlink="http://www.w3.org/1999/xlink" version="1.1" baseProfile="full" width="420" height="420" viewBox="0 0 420.00 420.00" enable-background="new 0 0 420.00 420.00" xml:space="preserve">
	<path fill="#C4C4C4" fill-opacity="1" stroke-width="10" stroke-linejoin="round" d="M 51.9999,9.99976L 368,9.99976C 391.196,9.99976 410,28.8038 410,51.9998L 410,368C 410,391.196 391.196,410 368,410L 51.9999,410C 28.804,410 9.99994,391.196 9.99994,368L 9.99994,51.9998C 9.99994,28.8038 28.804,9.99976 51.9999,9.99976 Z "/>
	<g>
		<path fill="#000000" fill-opacity="1" stroke-linejoin="round" d="M 301.549,272.254L 268.592,272.254L 268.592,338.169L 239.296,338.169L 239.296,272.254L 118.451,272.254L 118.451,251.254L 232.887,81.831L 268.592,81.831L 268.592,246.62L 301.549,246.62L 301.549,272.254 Z M 239.296,246.62L 239.296,135.502C 239.296,127.644 239.544,118.813 240.04,109.01L 239.296,109.01C 237.617,113.32 234.318,119.881 229.397,128.693L 150.264,246.62L 239.296,246.62 Z "/>
	</g>
</svg>
