<?xml version="1.0" encoding="utf-8"?>
<!DOCTYPE svg PUBLIC "-//W3C//DTD SVG 1.1//EN" "http://www.w3.org/Graphics/SVG/1.1/DTD/svg11.dtd">
<svg xmlns="http://www.w3.org/2000/svg" xmlns:xlink="http://www.w3.org/1999/xlink" version="1.1" baseProfile="full" width="1020" height="420" viewBox="0 0 1020.00 420.00" enable-background="new 0 0 1020.00 420.00" xml:space="preserve">
	<path fill="#C4C4C4" fill-opacity="1" stroke-width="0.2" stroke-linejoin="round" d="M 54.4389,7.63913L 965.56,7.63913C 988.756,7.63913 1007.56,26.4431 1007.56,49.6391L 1007.56,370.361C 1007.56,393.557 988.756,412.361 965.56,412.361L 54.4389,412.361C 31.2429,412.361 12.4389,393.557 12.4389,370.361L 12.4389,49.6391C 12.4389,26.4431 31.2429,7.63913 54.4389,7.63913 Z "/>
	<g>
		<path fill="#000000" fill-opacity="1" stroke-width="0.2" stroke-linejoin="round" d="M 387.324,338.169L 240.845,338.169L 240.845,312.535L 299.437,312.535L 299.437,115.361L 239.415,133.099L 239.415,105.176L 328.732,78.1691L 328.732,312.535L 387.324,312.535L 387.324,338.169 Z "/>
		<path fill="#000000" fill-opacity="1" stroke-width="0.2" stroke-linejoin="round" d="M 581.408,338.169L 427.606,338.169L 427.606,313.622L 502.562,238.209C 521.673,219.021 535.319,203.038 543.501,190.26C 551.684,177.481 555.775,163.844 555.775,149.349C 555.775,134.853 551.579,123.639 543.187,115.704C 534.795,107.77 522.874,103.803 507.425,103.803C 484.767,103.803 463.043,113.568 442.254,133.099L 442.254,101.915C 462.166,86.0843 485.339,78.1691 511.774,78.1691C 534.547,78.1691 552.456,84.3487 565.502,96.7078C 578.548,109.067 585.07,125.66 585.07,146.488C 585.07,163.043 580.522,179.207 571.424,194.98C 562.326,210.753 545.971,230.332 522.359,253.715L 462.852,312.535L 462.852,313.222L 581.408,313.222L 581.408,338.169 Z "/>
		<path fill="#000000" fill-opacity="1" stroke-width="0.2" stroke-linejoin="round" d="M 629.014,325.867L 629.014,294.225C 646.942,308.873 667.179,316.197 689.723,316.197C 707.994,316.197 722.585,311.763 733.495,302.894C 744.404,294.025 749.859,282.095 749.859,267.104C 749.859,233.917 725.408,217.324 676.505,217.324L 654.648,217.324L 654.648,191.69L 675.876,191.69C 720.315,191.69 742.535,176.47 742.535,146.03C 742.535,117.879 725.885,103.803 692.584,103.803C 674.007,103.803 656.479,109.906 640,122.113L 640,93.5036C 656.746,83.2806 676.524,78.1691 699.335,78.1691C 721.307,78.1691 738.883,83.8051 752.062,95.0771C 765.241,106.349 771.831,120.797 771.831,138.42C 771.831,171.683 754.15,193.063 718.79,202.562L 718.79,203.305C 737.252,205.098 751.928,211.583 762.819,222.76C 773.71,233.936 779.155,247.898 779.155,264.644C 779.155,287.76 770.792,306.403 754.065,320.574C 737.338,334.745 715.28,341.831 687.892,341.831C 663.25,341.831 643.624,336.51 629.014,325.867 Z "/>
	</g>
</svg>
