<?xml version="1.0" encoding="utf-8"?>
<!DOCTYPE svg PUBLIC "-//W3C//DTD SVG 1.1//EN" "http://www.w3.org/Graphics/SVG/1.1/DTD/svg11.dtd">
<svg xmlns="http://www.w3.org/2000/svg" xmlns:xlink="http://www.w3.org/1999/xlink" version="1.1" baseProfile="full" width="420" height="420" viewBox="0 0 420.00 420.00" enable-background="new 0 0 420.00 420.00" xml:space="preserve">
	<path fill="#C4C4C4" fill-opacity="1" stroke-width="0.2" stroke-linejoin="round" d="M 52,10L 368,10C 391.196,10 410,28.804 410,52L 410,368C 410,391.196 391.196,410 368,410L 52,410C 28.804,410 10,391.196 10,368L 10,52C 10,28.804 28.804,10 52,10 Z "/>
	<path fill="#FFFFFF" fill-opacity="1" fill-rule="evenodd" stroke-width="10" stroke-linejoin="round" stroke="#000000" stroke-opacity="1" d="M 156.487,99.4738L 171.115,99.4738L 250.098,99.4738L 326.675,99.4738C 345.08,99.4738 360,114.319 360,132.632L 360,287.368C 360,305.681 345.08,320.526 326.675,320.526L 250.098,320.526L 171.157,320.526L 156.487,320.526C 138.764,320.526 98.6693,262.585 69.7607,233.615C 56.7464,220.573 56.7465,199.427 69.7607,186.385C 98.6693,157.415 130.833,99.4737 156.487,99.4738 Z M 179.693,140.22C 184.318,135.595 191.816,135.595 196.441,140.22L 249.474,193.253L 302.506,140.22C 307.131,135.595 314.629,135.595 319.254,140.22C 323.878,144.845 323.878,152.343 319.254,156.967L 266.221,210L 319.254,263.033C 323.878,267.658 323.878,275.156 319.254,279.78C 314.629,284.405 307.131,284.405 302.506,279.78L 249.474,226.747L 196.441,279.78C 191.816,284.405 184.318,284.405 179.693,279.78C 175.069,275.156 175.069,267.658 179.693,263.033L 232.726,210L 179.693,156.967C 175.069,152.343 175.069,144.845 179.693,140.22 Z "/>
</svg>
