<?xml version="1.0" encoding="utf-8"?>
<!DOCTYPE svg PUBLIC "-//W3C//DTD SVG 1.1//EN" "http://www.w3.org/Graphics/SVG/1.1/DTD/svg11.dtd">
<svg xmlns="http://www.w3.org/2000/svg" xmlns:xlink="http://www.w3.org/1999/xlink" version="1.1" baseProfile="full" width="420" height="420" viewBox="0 0 420.00 420.00" enable-background="new 0 0 420.00 420.00" xml:space="preserve">
	<path fill="#C4C4C4" fill-opacity="1" stroke-width="10" stroke-linejoin="round" d="M 51.9999,9.99976L 368,9.99976C 391.196,9.99976 410,28.8038 410,51.9998L 410,368C 410,391.196 391.196,410 368,410L 51.9999,410C 28.804,410 9.99994,391.196 9.99994,368L 9.99994,51.9998C 9.99994,28.8038 28.804,9.99976 51.9999,9.99976 Z "/>
	<g>
		<path fill="#000000" fill-opacity="1" stroke-linejoin="round" d="M 134.93,325.867L 134.93,294.225C 152.858,308.873 173.094,316.197 195.638,316.197C 213.91,316.197 228.501,311.763 239.41,302.894C 250.32,294.025 255.775,282.095 255.775,267.104C 255.775,233.917 231.323,217.324 182.421,217.324L 160.563,217.324L 160.563,191.69L 181.791,191.69C 226.231,191.69 248.451,176.47 248.451,146.03C 248.451,117.879 231.8,103.803 198.499,103.803C 179.922,103.803 162.394,109.906 145.915,122.113L 145.915,93.5035C 162.661,83.2805 182.44,78.169 205.251,78.169C 227.223,78.169 244.798,83.805 257.978,95.077C 271.157,106.349 277.746,120.797 277.746,138.42C 277.746,171.683 260.066,193.063 224.705,202.562L 224.705,203.305C 243.168,205.098 257.844,211.583 268.735,222.76C 279.625,233.936 285.07,247.898 285.07,264.643C 285.07,287.76 276.707,306.403 259.98,320.574C 243.253,334.745 221.196,341.831 193.807,341.831C 169.165,341.831 149.539,336.51 134.93,325.867 Z "/>
	</g>
</svg>
