<?xml version="1.0" encoding="utf-8"?>
<!DOCTYPE svg PUBLIC "-//W3C//DTD SVG 1.1//EN" "http://www.w3.org/Graphics/SVG/1.1/DTD/svg11.dtd">
<svg xmlns="http://www.w3.org/2000/svg" xmlns:xlink="http://www.w3.org/1999/xlink" version="1.1" baseProfile="full" width="420" height="420" viewBox="0 0 420.00 420.00" enable-background="new 0 0 420.00 420.00" xml:space="preserve">
	<path fill="#C4C4C4" fill-opacity="1" stroke-width="10" stroke-linejoin="round" d="M 51.9999,9.99976L 368,9.99976C 391.196,9.99976 410,28.8038 410,51.9998L 410,368C 410,391.196 391.196,410 368,410L 51.9999,410C 28.804,410 9.99994,391.196 9.99994,368L 9.99994,51.9998C 9.99994,28.8038 28.804,9.99976 51.9999,9.99976 Z "/>
	<g>
		<path fill="#000000" fill-opacity="1" stroke-linejoin="round" d="M 183.622,203.305L 183.622,202.619C 152.381,188.429 136.761,167.868 136.761,140.938C 136.761,122.59 143.913,107.541 158.217,95.7923C 172.522,84.0434 190.927,78.169 213.433,78.169C 233.803,78.169 250.53,83.662 263.614,94.6479C 276.697,105.634 283.239,119.748 283.239,136.989C 283.239,165.103 267.123,186.96 234.89,202.562L 234.89,203.248C 272.006,216.599 290.563,239.696 290.563,272.54C 290.563,293.749 282.972,310.599 267.79,323.092C 252.609,335.585 231.514,341.831 204.507,341.831C 182.688,341.831 164.721,335.642 150.607,323.264C 136.494,310.885 129.437,294.817 129.437,275.057C 129.437,242.214 147.499,218.297 183.622,203.305 Z M 253.944,141.109C 253.944,129.551 250.081,120.444 242.357,113.787C 234.632,107.131 224.095,103.803 210.744,103.803C 198.27,103.803 187.704,107.274 179.045,114.217C 170.386,121.159 166.056,129.99 166.056,140.709C 166.056,162.528 180.59,178.988 209.657,190.088C 239.181,178.644 253.944,162.318 253.944,141.109 Z M 207.654,217.267C 175.04,230.122 158.732,248.737 158.732,273.112C 158.732,285.7 163.501,296.028 173.037,304.095C 182.573,312.163 195.142,316.197 210.744,316.197C 225.582,316.197 237.713,312.22 247.135,304.267C 256.557,296.314 261.268,286.272 261.268,274.142C 261.268,248.699 243.396,229.74 207.654,217.267 Z "/>
	</g>
</svg>
