<?xml version="1.0" encoding="utf-8"?>
<!DOCTYPE svg PUBLIC "-//W3C//DTD SVG 1.1//EN" "http://www.w3.org/Graphics/SVG/1.1/DTD/svg11.dtd">
<svg xmlns="http://www.w3.org/2000/svg" xmlns:xlink="http://www.w3.org/1999/xlink" version="1.1" baseProfile="full" width="420" height="420" viewBox="0 0 420.00 420.00" enable-background="new 0 0 420.00 420.00" xml:space="preserve">
	<path fill="#C4C4C4" fill-opacity="1" stroke-width="10" stroke-linejoin="round" d="M 51.9999,9.99976L 368,9.99976C 391.196,9.99976 410,28.8038 410,51.9998L 410,368C 410,391.196 391.196,410 368,410L 51.9999,410C 28.804,410 9.99994,391.196 9.99994,368L 9.99994,51.9998C 9.99994,28.8038 28.804,9.99976 51.9999,9.99976 Z "/>
	<g>
		<path fill="#000000" fill-opacity="1" stroke-linejoin="round" d="M 303.38,338.169L 267.619,338.169L 224.705,265.788C 220.585,259.036 216.59,253.295 212.718,248.565C 208.846,243.835 204.869,239.963 200.788,236.95C 196.706,233.936 192.329,231.743 187.656,230.37C 182.983,228.996 177.691,228.31 171.778,228.31L 145.916,228.31L 145.916,338.169L 116.62,338.169L 116.62,81.831L 194.608,81.831C 206.052,81.831 216.599,83.2328 226.25,86.0366C 235.901,88.8402 244.283,93.0935 251.397,98.7962C 258.512,104.499 264.071,111.604 268.077,120.11C 272.082,128.616 274.085,138.572 274.085,149.978C 274.085,158.904 272.702,167.086 269.936,174.525C 267.171,181.963 263.242,188.591 258.149,194.408C 253.057,200.225 246.925,205.184 239.754,209.285C 232.582,213.385 224.514,216.58 215.55,218.869L 215.55,219.555C 220.013,221.463 223.895,223.637 227.194,226.078C 230.494,228.52 233.631,231.419 236.607,234.776C 239.582,238.132 242.538,241.928 245.475,246.162C 248.413,250.396 251.674,255.317 255.26,260.924L 303.38,338.169 Z M 145.916,107.465L 145.916,202.676L 187.685,202.676C 195.352,202.676 202.457,201.513 208.999,199.186C 215.541,196.859 221.186,193.531 225.935,189.201C 230.684,184.872 234.404,179.569 237.093,173.294C 239.782,167.02 241.127,159.972 241.127,152.152C 241.127,138.115 236.578,127.157 227.48,119.28C 218.382,111.403 205.232,107.465 188.028,107.465L 145.916,107.465 Z "/>
	</g>
</svg>
