<?xml version="1.0" encoding="utf-8"?>
<!DOCTYPE svg PUBLIC "-//W3C//DTD SVG 1.1//EN" "http://www.w3.org/Graphics/SVG/1.1/DTD/svg11.dtd">
<svg xmlns="http://www.w3.org/2000/svg" xmlns:xlink="http://www.w3.org/1999/xlink" version="1.1" baseProfile="full" width="420" height="420" viewBox="0 0 420.00 420.00" enable-background="new 0 0 420.00 420.00" xml:space="preserve">
	<path fill="#C4C4C4" fill-opacity="1" stroke-width="10" stroke-linejoin="round" d="M 51.9999,9.99976L 368,9.99976C 391.196,9.99976 410,28.8038 410,51.9998L 410,368C 410,391.196 391.196,410 368,410L 51.9999,410C 28.804,410 9.99994,391.196 9.99994,368L 9.99994,51.9998C 9.99994,28.8038 28.804,9.99976 51.9999,9.99976 Z "/>
	<g>
		<path fill="#000000" fill-opacity="1" stroke-linejoin="round" d="M 286.901,345.493L 257.606,345.493L 257.606,241.012C 257.606,203.248 243.129,184.366 214.177,184.366C 199.605,184.366 187.332,189.821 177.357,200.731C 167.382,211.64 162.394,225.659 162.394,242.786L 162.394,345.493L 133.099,345.493L 133.099,74.507L 162.394,74.507L 162.394,194.379L 163.138,194.379C 177.405,170.615 197.717,158.732 224.076,158.732C 265.96,158.732 286.901,183.508 286.901,233.059L 286.901,345.493 Z "/>
	</g>
</svg>
