<?xml version="1.0" encoding="utf-8"?>
<!DOCTYPE svg PUBLIC "-//W3C//DTD SVG 1.1//EN" "http://www.w3.org/Graphics/SVG/1.1/DTD/svg11.dtd">
<svg xmlns="http://www.w3.org/2000/svg" xmlns:xlink="http://www.w3.org/1999/xlink" version="1.1" baseProfile="full" width="420" height="420" viewBox="0 0 420.00 420.00" enable-background="new 0 0 420.00 420.00" xml:space="preserve">
	<path fill="#C4C4C4" fill-opacity="1" stroke-width="10" stroke-linejoin="round" d="M 51.9999,9.99976L 368,9.99976C 391.196,9.99976 410,28.8038 410,51.9998L 410,368C 410,391.196 391.196,410 368,410L 51.9999,410C 28.804,410 9.99994,391.196 9.99994,368L 9.99994,51.9998C 9.99994,28.8038 28.804,9.99976 51.9999,9.99976 Z "/>
	<g>
		<path fill="#000000" fill-opacity="1" stroke-linejoin="round" d="M 131.268,325.981L 131.268,290.563C 135.349,294.53 140.232,298.107 145.916,301.292C 151.599,304.477 157.588,307.157 163.882,309.331C 170.176,311.505 176.499,313.193 182.85,314.395C 189.201,315.596 195.066,316.197 200.445,316.197C 219.021,316.197 232.887,312.678 242.042,305.64C 251.197,298.603 255.775,288.484 255.775,275.286C 255.775,268.42 254.239,262.431 251.169,257.32C 248.098,252.208 243.864,247.554 238.466,243.358C 233.068,239.162 226.679,235.128 219.298,231.257C 211.917,227.385 203.954,223.332 195.409,219.098C 186.407,214.558 178.005,209.981 170.205,205.365C 162.404,200.75 155.614,195.657 149.835,190.088C 144.056,184.519 139.517,178.206 136.217,171.149C 132.917,164.092 131.268,155.814 131.268,146.316C 131.268,134.682 133.871,124.564 139.078,115.962C 144.285,107.36 151.122,100.274 159.591,94.7051C 168.059,89.1359 177.71,84.9875 188.543,82.2602C 199.376,79.5327 210.42,78.169 221.673,78.169C 247.306,78.169 265.998,81.5449 277.746,88.2967L 277.746,122.113C 262.526,109.906 242.977,103.803 219.098,103.803C 212.499,103.803 205.899,104.509 199.3,105.92C 192.701,107.331 186.827,109.639 181.677,112.843C 176.527,116.048 172.331,120.167 169.089,125.202C 165.847,130.238 164.225,136.379 164.225,143.627C 164.225,150.15 165.456,155.786 167.916,160.535C 170.376,165.284 174.01,169.613 178.816,173.523C 183.622,177.433 189.478,181.229 196.382,184.91C 203.286,188.591 211.24,192.625 220.242,197.011C 229.511,201.513 238.285,206.252 246.563,211.23C 254.84,216.208 262.107,221.73 268.363,227.795C 274.619,233.86 279.577,240.564 283.239,247.907C 286.901,255.25 288.732,263.671 288.732,273.169C 288.732,285.757 286.224,296.409 281.208,305.125C 276.192,313.842 269.431,320.927 260.924,326.382C 252.418,331.837 242.605,335.775 231.485,338.198C 220.366,340.62 208.646,341.831 196.325,341.831C 192.205,341.831 187.132,341.478 181.105,340.772C 175.078,340.067 168.917,339.037 162.623,337.683C 156.329,336.328 150.379,334.65 144.771,332.647C 139.164,330.645 134.663,328.423 131.268,325.981 Z "/>
	</g>
</svg>
