<?xml version="1.0" encoding="utf-8"?>
<!DOCTYPE svg PUBLIC "-//W3C//DTD SVG 1.1//EN" "http://www.w3.org/Graphics/SVG/1.1/DTD/svg11.dtd">
<svg xmlns="http://www.w3.org/2000/svg" xmlns:xlink="http://www.w3.org/1999/xlink" version="1.1" baseProfile="full" width="420" height="420" viewBox="0 0 420.00 420.00" enable-background="new 0 0 420.00 420.00" xml:space="preserve">
	<path fill="#C4C4C4" fill-opacity="1" stroke-width="10" stroke-linejoin="round" d="M 51.9999,9.99976L 368,9.99976C 391.196,9.99976 410,28.8038 410,51.9998L 410,368C 410,391.196 391.196,410 368,410L 51.9999,410C 28.804,410 9.99994,391.196 9.99994,368L 9.99994,51.9998C 9.99994,28.8038 28.804,9.99976 51.9999,9.99976 Z "/>
	<g>
		<path fill="#000000" fill-opacity="1" stroke-linejoin="round" d="M 105.634,338.169L 105.634,81.831L 177.271,81.831C 268.668,81.831 314.366,123.486 314.366,206.796C 314.366,246.353 301.673,278.137 276.287,302.15C 250.902,326.163 216.923,338.169 174.353,338.169L 105.634,338.169 Z M 134.93,107.465L 134.93,312.535L 173.609,312.535C 207.635,312.535 234.108,303.399 253.028,285.128C 271.948,266.856 281.408,240.974 281.408,207.482C 281.408,140.804 246.086,107.465 175.44,107.465L 134.93,107.465 Z "/>
	</g>
</svg>
