<?xml version="1.0" encoding="utf-8"?>
<!DOCTYPE svg PUBLIC "-//W3C//DTD SVG 1.1//EN" "http://www.w3.org/Graphics/SVG/1.1/DTD/svg11.dtd">
<svg xmlns="http://www.w3.org/2000/svg" xmlns:xlink="http://www.w3.org/1999/xlink" version="1.1" baseProfile="full" width="420" height="420" viewBox="0 0 420.00 420.00" enable-background="new 0 0 420.00 420.00" xml:space="preserve">
	<path fill="#C4C4C4" fill-opacity="1" stroke-width="10" stroke-linejoin="round" d="M 51.9999,9.99976L 368,9.99976C 391.196,9.99976 410,28.8038 410,51.9998L 410,368C 410,391.196 391.196,410 368,410L 51.9999,410C 28.804,410 9.99994,391.196 9.99994,368L 9.99994,51.9998C 9.99994,28.8038 28.804,9.99976 51.9999,9.99976 Z "/>
	<g>
		<path fill="#000000" fill-opacity="1" stroke-linejoin="round" d="M 283.239,301.549L 253.944,301.549L 253.944,271.338L 253.2,271.338C 240.268,293.92 221.196,305.211 195.982,305.211C 177.443,305.211 162.938,300.367 152.467,290.678C 141.996,280.989 136.761,268.115 136.761,252.055C 136.761,217.686 157.226,197.698 198.156,192.091L 253.944,184.366C 253.944,155.07 241.184,140.423 215.665,140.423C 193.273,140.423 173.075,147.746 155.07,162.394L 155.07,132.126C 173.266,120.568 194.227,114.789 217.953,114.789C 261.477,114.789 283.239,137.485 283.239,182.878L 283.239,301.549 Z M 253.944,206.338L 208.455,212.518C 194.456,214.425 183.889,217.829 176.756,222.731C 169.623,227.633 166.056,236.301 166.056,248.737C 166.056,257.815 169.346,265.225 175.926,270.966C 182.507,276.707 191.251,279.577 202.161,279.577C 217.152,279.577 229.531,274.409 239.296,264.071C 249.061,253.734 253.944,240.65 253.944,224.82L 253.944,206.338 Z "/>
	</g>
</svg>
