<?xml version="1.0" encoding="utf-8"?>
<!DOCTYPE svg PUBLIC "-//W3C//DTD SVG 1.1//EN" "http://www.w3.org/Graphics/SVG/1.1/DTD/svg11.dtd">
<svg xmlns="http://www.w3.org/2000/svg" xmlns:xlink="http://www.w3.org/1999/xlink" version="1.1" baseProfile="full" width="420" height="420" viewBox="0 0 420.00 420.00" enable-background="new 0 0 420.00 420.00" xml:space="preserve">
	<path fill="#C4C4C4" fill-opacity="1" stroke-width="10" stroke-linejoin="round" d="M 51.9999,9.99976L 368,9.99976C 391.196,9.99976 410,28.8038 410,51.9998L 410,368C 410,391.196 391.196,410 368,410L 51.9999,410C 28.804,410 9.99994,391.196 9.99994,368L 9.99994,51.9998C 9.99994,28.8038 28.804,9.99976 51.9999,9.99976 Z "/>
	<g>
		<path fill="#000000" fill-opacity="1" stroke-linejoin="round" d="M 294.225,245.819C 294.225,313.489 262.469,347.324 198.957,347.324C 176.642,347.324 157.13,342.861 140.423,333.935L 140.423,303.38C 160.716,315.587 180.056,321.69 198.442,321.69C 242.767,321.69 264.93,297.01 264.93,247.65L 264.93,227.051L 264.243,227.051C 250.32,251.083 229.378,263.099 201.417,263.099C 178.683,263.099 160.392,255.012 146.545,238.838C 132.698,222.664 125.775,200.96 125.775,173.724C 125.775,142.826 133.232,118.26 148.147,100.026C 163.062,81.7929 183.489,72.6761 209.428,72.6761C 234.032,72.6761 252.284,82.8991 264.186,103.345L 264.93,103.345L 264.93,76.338L 294.225,76.338L 294.225,245.819 Z M 264.93,176.47L 264.93,150.035C 264.93,135.845 259.99,123.677 250.11,113.53C 240.23,103.383 227.928,98.3099 213.204,98.3099C 195.047,98.3099 180.819,104.747 170.519,117.621C 160.22,130.495 155.07,148.528 155.07,171.721C 155.07,191.671 160.01,207.616 169.89,219.555C 179.77,231.495 192.835,237.465 209.085,237.465C 225.602,237.465 239.038,231.752 249.395,220.328C 259.751,208.903 264.93,194.284 264.93,176.47 Z "/>
	</g>
</svg>
