<?xml version="1.0" encoding="utf-8"?>
<!DOCTYPE svg PUBLIC "-//W3C//DTD SVG 1.1//EN" "http://www.w3.org/Graphics/SVG/1.1/DTD/svg11.dtd">
<svg xmlns="http://www.w3.org/2000/svg" xmlns:xlink="http://www.w3.org/1999/xlink" version="1.1" baseProfile="full" width="420" height="420" viewBox="0 0 420.00 420.00" enable-background="new 0 0 420.00 420.00" xml:space="preserve">
	<path fill="#C4C4C4" fill-opacity="1" stroke-width="10" stroke-linejoin="round" d="M 51.9999,9.99976L 368,9.99976C 391.196,9.99976 410,28.8038 410,51.9998L 410,368C 410,391.196 391.196,410 368,410L 51.9999,410C 28.804,410 9.99994,391.196 9.99994,368L 9.99994,51.9998C 9.99994,28.8038 28.804,9.99976 51.9999,9.99976 Z "/>
	<g>
		<path fill="#000000" fill-opacity="1" stroke-linejoin="round" d="M 313.794,341.831C 306.813,341.831 300.662,340.915 295.341,339.084C 290.02,337.253 285.099,334.641 280.579,331.246C 276.059,327.851 271.691,323.721 267.476,318.858C 263.261,313.994 258.826,308.473 254.173,302.293C 249.481,307.405 244.054,312.335 237.894,317.084C 231.733,321.833 224.905,326.048 217.41,329.729C 209.914,333.41 201.713,336.348 192.806,338.541C 183.899,340.734 174.239,341.831 163.825,341.831C 151.161,341.831 139.555,340.229 129.007,337.025C 118.46,333.82 109.429,329.1 101.915,322.863C 94.4,316.626 88.5637,308.94 84.4058,299.804C 80.248,290.668 78.169,280.169 78.169,268.305C 78.169,250.148 83.2805,234.632 93.5035,221.758C 103.727,208.884 118.184,198.347 136.875,190.145C 133.327,187.551 129.78,184.5 126.232,180.99C 122.685,177.481 119.528,173.504 116.763,169.06C 113.997,164.616 111.756,159.696 110.04,154.298C 108.323,148.9 107.465,142.997 107.465,136.589C 107.465,127.205 109.143,118.889 112.5,111.642C 115.857,104.394 120.492,98.2813 126.404,93.3033C 132.317,88.3253 139.288,84.5584 147.317,82.0027C 155.347,79.4469 164.016,78.169 173.323,78.169C 182.516,78.169 190.918,79.4469 198.528,82.0027C 206.138,84.5584 212.689,88.2013 218.182,92.9314C 223.675,97.6614 227.957,103.345 231.028,109.982C 234.098,116.62 235.634,124.02 235.634,132.183C 235.634,146.411 231.59,158.237 223.504,167.658C 215.417,177.08 203.286,185.11 187.113,191.747C 195.314,194.952 202.733,198.862 209.371,203.477C 216.008,208.093 222.149,213.252 227.795,218.955C 233.44,224.657 238.695,230.77 243.559,237.293C 248.422,243.816 253.219,250.568 257.949,257.548C 267.523,244.007 274.742,229.092 279.606,212.804C 284.47,196.516 286.901,179.445 286.901,161.593C 286.901,157.016 286.634,152.724 286.1,148.719C 285.566,144.714 284.822,140.728 283.869,136.761L 310.361,136.761C 311.276,140.69 311.81,144.428 311.963,147.975C 312.116,151.523 312.306,155.738 312.535,160.621C 312.535,171.492 311.419,182.43 309.188,193.435C 306.956,204.44 303.972,215.121 300.233,225.478C 296.495,235.834 292.127,245.676 287.13,255.002C 282.133,264.329 276.888,272.883 271.395,280.665C 275.706,286.653 279.654,291.86 283.239,296.285C 286.825,300.71 290.439,304.42 294.082,307.414C 297.725,310.409 301.492,312.621 305.383,314.051C 309.274,315.482 313.699,316.197 318.658,316.197C 322.358,316.197 326.125,315.72 329.958,314.767C 333.792,313.813 337.749,312.611 341.831,311.162L 341.831,337.082C 337.444,338.684 332.829,339.876 327.984,340.658C 323.14,341.44 318.41,341.831 313.794,341.831 Z M 164.283,316.197C 173.247,316.197 181.515,315.224 189.087,313.279C 196.659,311.334 203.639,308.749 210.029,305.526C 216.418,302.303 222.216,298.545 227.423,294.254C 232.63,289.963 237.369,285.471 241.642,280.779C 234.394,269.488 227.719,259.837 221.615,251.827C 215.512,243.816 209.352,236.902 203.134,231.085C 196.916,225.268 190.279,220.28 183.222,216.122C 176.165,211.964 168.021,208.112 158.79,204.564C 151.351,207.54 144.504,210.83 138.248,214.434C 131.992,218.039 126.595,222.292 122.055,227.194C 117.516,232.096 113.95,237.799 111.356,244.302C 108.762,250.806 107.465,258.445 107.465,267.218C 107.465,275.267 108.943,282.362 111.899,288.504C 114.855,294.645 118.908,299.756 124.058,303.838C 129.208,307.92 135.216,311 142.082,313.079C 148.948,315.158 156.348,316.197 164.283,316.197 Z M 210,133.957C 210,127.93 208.856,122.809 206.567,118.594C 204.278,114.379 201.37,110.879 197.841,108.094C 194.313,105.31 190.384,103.288 186.054,102.029C 181.725,100.77 177.443,100.141 173.209,100.141C 161.078,100.141 151.389,103.336 144.142,109.725C 136.894,116.114 133.213,124.802 133.099,135.788C 133.099,140.709 133.89,145.343 135.473,149.692C 137.056,154.04 139.259,158.084 142.082,161.822C 144.905,165.56 148.214,168.87 152.009,171.75C 155.805,174.63 159.839,177.099 164.111,179.159C 179.522,173.857 191.023,167.678 198.614,160.621C 206.205,153.564 210,144.676 210,133.957 Z "/>
	</g>
</svg>
