<?xml version="1.0" encoding="utf-8"?>
<!DOCTYPE svg PUBLIC "-//W3C//DTD SVG 1.1//EN" "http://www.w3.org/Graphics/SVG/1.1/DTD/svg11.dtd">
<svg xmlns="http://www.w3.org/2000/svg" xmlns:xlink="http://www.w3.org/1999/xlink" version="1.1" baseProfile="full" width="420" height="420" viewBox="0 0 420.00 420.00" enable-background="new 0 0 420.00 420.00" xml:space="preserve">
	<path fill="#C4C4C4" fill-opacity="1" stroke-width="10" stroke-linejoin="round" d="M 51.9999,9.99976L 368,9.99976C 391.196,9.99976 410,28.8038 410,51.9998L 410,368C 410,391.196 391.196,410 368,410L 51.9999,410C 28.804,410 9.99994,391.196 9.99994,368L 9.99994,51.9998C 9.99994,28.8038 28.804,9.99976 51.9999,9.99976 Z "/>
	<g>
		<path fill="#000000" fill-opacity="1" stroke-linejoin="round" d="M 297.887,81.831L 233.974,199.014L 286.901,199.014L 286.901,224.648L 224.648,224.648L 224.648,261.268L 286.901,261.268L 286.901,286.901L 224.648,286.901L 224.648,338.169L 195.352,338.169L 195.352,286.901L 133.099,286.901L 133.099,261.268L 195.352,261.268L 195.352,224.648L 133.099,224.648L 133.099,199.014L 185.396,199.014L 122.113,81.831L 156.73,81.831L 201.875,173.666C 205.232,180.571 208.055,187.17 210.343,193.464L 211.087,193.464C 212.651,188.467 215.588,181.505 219.899,172.579L 265.387,81.831L 297.887,81.831 Z "/>
	</g>
</svg>
