<?xml version="1.0" encoding="utf-8"?>
<!DOCTYPE svg PUBLIC "-//W3C//DTD SVG 1.1//EN" "http://www.w3.org/Graphics/SVG/1.1/DTD/svg11.dtd">
<svg xmlns="http://www.w3.org/2000/svg" xmlns:xlink="http://www.w3.org/1999/xlink" version="1.1" baseProfile="full" width="420" height="420" viewBox="0 0 420.00 420.00" enable-background="new 0 0 420.00 420.00" xml:space="preserve">
	<path fill="#C4C4C4" fill-opacity="1" stroke-width="10" stroke-linejoin="round" d="M 51.9999,9.99976L 368,9.99976C 391.196,9.99976 410,28.8038 410,51.9998L 410,368C 410,391.196 391.196,410 368,410L 51.9999,410C 28.804,410 9.99994,391.196 9.99994,368L 9.99994,51.9998C 9.99994,28.8038 28.804,9.99976 51.9999,9.99976 Z "/>
	<g>
		<path fill="#000000" fill-opacity="1" stroke-linejoin="round" d="M 294.225,345.493L 264.93,345.493L 264.93,228.195L 264.243,228.195C 251.502,252.685 230.675,264.93 201.761,264.93C 178.797,264.93 160.392,256.785 146.545,240.497C 132.698,224.209 125.775,202.047 125.775,174.01C 125.775,143.798 133.385,119.662 148.605,101.6C 163.825,83.5381 184.271,74.5071 209.943,74.5071C 234.928,74.5071 253.009,84.7301 264.186,105.176L 264.93,105.176L 264.93,78.169L 294.225,78.169L 294.225,345.493 Z M 264.93,178.644L 264.93,152.61C 264.93,137.924 259.99,125.508 250.11,115.361C 240.23,105.214 227.7,100.141 212.518,100.141C 194.818,100.141 180.819,106.521 170.519,119.28C 160.22,132.04 155.07,150.016 155.07,173.209C 155.07,193.845 160.039,210.019 169.976,221.73C 179.913,233.44 192.72,239.296 208.398,239.296C 225.64,239.296 239.372,233.555 249.595,222.073C 259.818,210.591 264.93,196.115 264.93,178.644 Z "/>
	</g>
</svg>
