<?xml version="1.0" encoding="utf-8"?>
<!DOCTYPE svg PUBLIC "-//W3C//DTD SVG 1.1//EN" "http://www.w3.org/Graphics/SVG/1.1/DTD/svg11.dtd">
<svg xmlns="http://www.w3.org/2000/svg" xmlns:xlink="http://www.w3.org/1999/xlink" version="1.1" baseProfile="full" width="420" height="420" viewBox="0 0 420.00 420.00" enable-background="new 0 0 420.00 420.00" xml:space="preserve">
	<path fill="#C4C4C4" fill-opacity="1" stroke-width="10" stroke-linejoin="round" d="M 51.9999,9.99976L 368,9.99976C 391.196,9.99976 410,28.8038 410,51.9998L 410,368C 410,391.196 391.196,410 368,410L 51.9999,410C 28.804,410 9.99994,391.196 9.99994,368L 9.99994,51.9998C 9.99994,28.8038 28.804,9.99976 51.9999,9.99976 Z "/>
	<g>
		<path fill="#000000" fill-opacity="1" stroke-linejoin="round" d="M 305.211,327.011C 286.329,336.891 262.832,341.831 234.718,341.831C 198.442,341.831 169.385,330.149 147.546,306.785C 125.708,283.421 114.789,252.761 114.789,214.806C 114.789,173.991 127.072,141.014 151.637,115.876C 176.203,90.738 207.349,78.169 245.075,78.169C 269.259,78.169 289.305,80.9346 305.211,86.4657L 305.211,118.451C 287.13,108.685 267.161,103.803 245.304,103.803C 216.313,103.803 192.806,113.711 174.782,133.528C 156.758,153.344 147.746,179.827 147.746,212.975C 147.746,244.445 156.167,269.517 173.008,288.189C 189.85,306.861 211.964,316.197 239.353,316.197C 264.72,316.197 286.673,310.094 305.211,297.887L 305.211,327.011 Z "/>
	</g>
</svg>
