<?xml version="1.0" encoding="utf-8"?>
<!DOCTYPE svg PUBLIC "-//W3C//DTD SVG 1.1//EN" "http://www.w3.org/Graphics/SVG/1.1/DTD/svg11.dtd">
<svg xmlns="http://www.w3.org/2000/svg" xmlns:xlink="http://www.w3.org/1999/xlink" version="1.1" baseProfile="full" width="420" height="420" viewBox="0 0 420.00 420.00" enable-background="new 0 0 420.00 420.00" xml:space="preserve">
	<path fill="#C4C4C4" fill-opacity="1" stroke-width="10" stroke-linejoin="round" d="M 51.9999,9.99976L 368,9.99976C 391.196,9.99976 410,28.8038 410,51.9998L 410,368C 410,391.196 391.196,410 368,410L 51.9999,410C 28.804,410 9.99994,391.196 9.99994,368L 9.99994,51.9998C 9.99994,28.8038 28.804,9.99976 51.9999,9.99976 Z "/>
	<g>
		<path fill="#000000" fill-opacity="1" stroke-linejoin="round" d="M 341.831,303.38L 312.535,303.38L 312.535,199.243C 312.535,179.178 309.34,164.664 302.951,155.7C 296.562,146.736 285.814,142.254 270.709,142.254C 257.892,142.254 247.011,147.918 238.066,159.247C 229.12,170.577 224.648,184.156 224.648,199.987L 224.648,303.38L 195.352,303.38L 195.352,195.753C 195.352,160.087 181.162,142.254 152.782,142.254C 139.621,142.254 128.779,147.594 120.253,158.275C 111.728,168.955 107.465,182.859 107.465,199.987L 107.465,303.38L 78.169,303.38L 78.169,120.282L 107.465,120.282L 107.465,150.836L 108.209,150.836C 121.407,128.025 140.67,116.62 165.999,116.62C 178.74,116.62 189.84,120.196 199.3,127.348C 208.76,134.5 215.245,143.875 218.754,155.471C 232.563,129.57 253.143,116.62 280.493,116.62C 321.385,116.62 341.831,141.395 341.831,190.946L 341.831,303.38 Z "/>
	</g>
</svg>
