<?xml version="1.0" encoding="utf-8"?>
<!DOCTYPE svg PUBLIC "-//W3C//DTD SVG 1.1//EN" "http://www.w3.org/Graphics/SVG/1.1/DTD/svg11.dtd">
<svg xmlns="http://www.w3.org/2000/svg" xmlns:xlink="http://www.w3.org/1999/xlink" version="1.1" baseProfile="full" width="420" height="420" viewBox="0 0 420.00 420.00" enable-background="new 0 0 420.00 420.00" xml:space="preserve">
	<path fill="#C4C4C4" fill-opacity="1" stroke-width="10" stroke-linejoin="round" d="M 51.9999,9.99976L 368,9.99976C 391.196,9.99976 410,28.8038 410,51.9998L 410,368C 410,391.196 391.196,410 368,410L 51.9999,410C 28.804,410 9.99994,391.196 9.99994,368L 9.99994,51.9998C 9.99994,28.8038 28.804,9.99976 51.9999,9.99976 Z "/>
	<g>
		<path fill="#000000" fill-opacity="1" stroke-linejoin="round" d="M 285.07,340L 131.268,340L 131.268,315.453L 206.224,240.04C 225.334,220.852 238.981,204.869 247.163,192.091C 255.345,179.312 259.437,165.675 259.437,151.18C 259.437,136.684 255.241,125.47 246.849,117.535C 238.456,109.601 226.536,105.634 211.087,105.634C 188.429,105.634 166.705,115.399 145.915,134.93L 145.915,103.746C 165.827,87.9152 189.001,80 215.436,80C 238.209,80 256.118,86.1796 269.164,98.5388C 282.209,110.898 288.732,127.491 288.732,148.319C 288.732,164.874 284.183,181.038 275.086,196.811C 265.988,212.584 249.633,232.163 226.021,255.546L 166.514,314.366L 166.514,315.053L 285.07,315.053L 285.07,340 Z "/>
	</g>
</svg>
