<?xml version="1.0" encoding="utf-8"?>
<!DOCTYPE svg PUBLIC "-//W3C//DTD SVG 1.1//EN" "http://www.w3.org/Graphics/SVG/1.1/DTD/svg11.dtd">
<svg xmlns="http://www.w3.org/2000/svg" xmlns:xlink="http://www.w3.org/1999/xlink" version="1.1" baseProfile="full" width="420" height="420" viewBox="0 0 420.00 420.00" enable-background="new 0 0 420.00 420.00" xml:space="preserve">
	<path fill="#C4C4C4" fill-opacity="1" stroke-width="10" stroke-linejoin="round" d="M 51.9999,9.99976L 368,9.99976C 391.196,9.99976 410,28.8038 410,51.9998L 410,368C 410,391.196 391.196,410 368,410L 51.9999,410C 28.804,410 9.99994,391.196 9.99994,368L 9.99994,51.9998C 9.99994,28.8038 28.804,9.99976 51.9999,9.99976 Z "/>
	<g>
		<path fill="#000000" fill-opacity="1" stroke-linejoin="round" d="M 314.366,321.404C 288.58,335.022 259.932,341.831 228.424,341.831C 191.805,341.831 162.185,330.092 139.564,306.613C 116.944,283.135 105.634,252.055 105.634,213.376C 105.634,173.895 118.289,141.491 143.598,116.162C 168.908,90.8333 200.979,78.169 239.811,78.169C 267.962,78.169 291.593,82.4223 310.704,90.9287L 310.704,122.113C 289.915,109.906 265.311,103.803 236.893,103.803C 208.131,103.803 184.557,113.768 166.171,133.699C 147.785,153.63 138.592,179.445 138.592,211.144C 138.592,243.835 147.088,269.517 164.082,288.189C 181.076,306.861 204.126,316.197 233.231,316.197C 253.181,316.197 270.461,312.211 285.07,304.239L 285.07,231.972L 230.141,231.972L 230.141,206.338L 314.366,206.338L 314.366,321.404 Z "/>
	</g>
</svg>
