<?xml version="1.0" encoding="utf-8"?>
<!DOCTYPE svg PUBLIC "-//W3C//DTD SVG 1.1//EN" "http://www.w3.org/Graphics/SVG/1.1/DTD/svg11.dtd">
<svg xmlns="http://www.w3.org/2000/svg" xmlns:xlink="http://www.w3.org/1999/xlink" version="1.1" baseProfile="full" width="420" height="420" viewBox="0 0 420.00 420.00" enable-background="new 0 0 420.00 420.00" xml:space="preserve">
	<path fill="#C4C4C4" fill-opacity="1" stroke-width="10" stroke-linejoin="round" d="M 51.9999,9.99976L 368,9.99976C 391.196,9.99976 410,28.8038 410,51.9998L 410,368C 410,391.196 391.196,410 368,410L 51.9999,410C 28.804,410 9.99994,391.196 9.99994,368L 9.99994,51.9998C 9.99994,28.8038 28.804,9.99976 51.9999,9.99976 Z "/>
	<g>
		<path fill="#000000" fill-opacity="1" stroke-linejoin="round" d="M 186.197,344.349L 186.197,314.938C 195.009,320.66 205.003,323.521 216.18,323.521C 229.035,323.521 239.458,319.096 247.449,310.246C 255.441,301.397 259.437,289.495 259.437,274.542C 259.437,256.461 253.619,241.785 241.985,230.513C 230.351,219.241 214.196,212.403 193.521,210L 193.521,188.028C 207.406,185.701 218.812,179.732 227.738,170.119C 236.664,160.506 241.127,149.101 241.127,135.902C 241.127,123.391 237.751,113.692 230.999,106.807C 224.247,99.9215 214.94,96.4789 203.077,96.4789C 174.734,96.4789 160.563,114.808 160.563,151.466L 160.563,345.493L 131.268,345.493L 131.268,146.545C 131.268,123.696 137.895,105.367 151.151,91.5581C 164.407,77.7494 182.23,70.8451 204.621,70.8451C 224.648,70.8451 240.621,76.4048 252.542,87.5242C 264.462,98.6436 270.423,113.32 270.423,131.554C 270.423,146.43 266.036,159.772 257.262,171.578C 248.489,183.384 237.083,191.576 223.046,196.153L 223.046,197.011C 266.837,206.052 288.732,231.686 288.732,273.913C 288.732,295.198 282.229,313.06 269.221,327.498C 256.213,341.936 238.972,349.155 217.496,349.155C 205.67,349.155 195.238,347.553 186.197,344.349 Z "/>
	</g>
</svg>
