<?xml version="1.0" encoding="utf-8"?>
<!DOCTYPE svg PUBLIC "-//W3C//DTD SVG 1.1//EN" "http://www.w3.org/Graphics/SVG/1.1/DTD/svg11.dtd">
<svg xmlns="http://www.w3.org/2000/svg" xmlns:xlink="http://www.w3.org/1999/xlink" version="1.1" baseProfile="full" width="420" height="420" viewBox="0 0 420.00 420.00" enable-background="new 0 0 420.00 420.00" xml:space="preserve">
	<path fill="#C4C4C4" fill-opacity="1" stroke-width="10" stroke-linejoin="round" d="M 51.9999,9.99976L 368,9.99976C 391.196,9.99976 410,28.8038 410,51.9998L 410,368C 410,391.196 391.196,410 368,410L 51.9999,410C 28.804,410 9.99994,391.196 9.99994,368L 9.99994,51.9998C 9.99994,28.8038 28.804,9.99976 51.9999,9.99976 Z "/>
	<g>
		<path fill="#000000" fill-opacity="1" stroke-linejoin="round" d="M 257.606,149.577C 252.494,144.695 245.132,142.254 235.519,142.254C 223.046,142.254 212.623,148.223 204.25,160.163C 195.877,172.102 191.69,188.371 191.69,208.97L 191.69,303.38L 162.394,303.38L 162.394,120.282L 191.69,120.282L 191.69,156.158L 192.377,156.158C 196.535,143.722 202.895,134.024 211.459,127.062C 220.023,120.1 229.588,116.62 240.154,116.62C 247.745,116.62 253.562,117.459 257.606,119.137L 257.606,149.577 Z "/>
	</g>
</svg>
