<?xml version="1.0" encoding="utf-8"?>
<!DOCTYPE svg PUBLIC "-//W3C//DTD SVG 1.1//EN" "http://www.w3.org/Graphics/SVG/1.1/DTD/svg11.dtd">
<svg xmlns="http://www.w3.org/2000/svg" xmlns:xlink="http://www.w3.org/1999/xlink" version="1.1" baseProfile="full" width="420" height="420" viewBox="0 0 420.00 420.00" enable-background="new 0 0 420.00 420.00" xml:space="preserve">
	<path fill="#C4C4C4" fill-opacity="1" stroke-width="10" stroke-linejoin="round" d="M 51.9999,9.99976L 368,9.99976C 391.196,9.99976 410,28.8038 410,51.9998L 410,368C 410,391.196 391.196,410 368,410L 51.9999,410C 28.804,410 9.99994,391.196 9.99994,368L 9.99994,51.9998C 9.99994,28.8038 28.804,9.99976 51.9999,9.99976 Z "/>
	<g>
		<path fill="#000000" fill-opacity="1" stroke-linejoin="round" d="M 184.595,264.93C 183.603,261.916 182.707,257.987 181.906,253.143C 181.105,248.298 180.704,243.473 180.704,238.666C 180.704,231.228 182.24,224.505 185.31,218.497C 188.381,212.489 192.215,206.863 196.811,201.618C 201.408,196.373 206.414,191.328 211.831,186.483C 217.248,181.639 222.254,176.737 226.851,171.778C 231.447,166.819 235.281,161.631 238.352,156.215C 241.422,150.798 242.958,144.809 242.958,138.248C 242.958,132.679 241.842,127.73 239.61,123.4C 237.379,119.071 234.327,115.447 230.456,112.529C 226.584,109.611 222.111,107.427 217.038,105.977C 211.964,104.528 206.586,103.803 200.902,103.803C 180.456,103.803 162.738,112.347 147.746,129.437L 147.746,96.25C 166.247,84.196 185.434,78.169 205.308,78.169C 214.501,78.169 223.151,79.342 231.257,81.688C 239.363,84.0339 246.467,87.5242 252.57,92.1589C 258.674,96.7936 263.48,102.582 266.989,109.525C 270.499,116.467 272.254,124.516 272.254,133.671C 272.254,142.368 270.642,150.121 267.419,156.93C 264.195,163.739 260.133,169.995 255.231,175.698C 250.329,181.4 245.018,186.712 239.296,191.633C 233.574,196.554 228.262,201.455 223.36,206.338C 218.459,211.221 214.396,216.304 211.173,221.587C 207.95,226.87 206.338,232.678 206.338,239.01C 206.338,244.426 206.996,249.338 208.312,253.743C 209.628,258.149 210.935,261.878 212.232,264.93L 184.595,264.93 Z M 200.845,341.831C 195.505,341.831 190.794,339.886 186.712,335.995C 182.707,332.104 180.704,327.374 180.704,321.805C 180.704,316.083 182.707,311.334 186.712,307.557C 190.679,303.552 195.39,301.549 200.845,301.549C 206.3,301.549 211.011,303.552 214.978,307.557C 218.983,311.334 220.986,316.083 220.986,321.805C 220.986,327.374 218.983,332.104 214.978,335.995C 210.896,339.886 206.185,341.831 200.845,341.831 Z "/>
	</g>
</svg>
