<?xml version="1.0" encoding="utf-8"?>
<!DOCTYPE svg PUBLIC "-//W3C//DTD SVG 1.1//EN" "http://www.w3.org/Graphics/SVG/1.1/DTD/svg11.dtd">
<svg xmlns="http://www.w3.org/2000/svg" xmlns:xlink="http://www.w3.org/1999/xlink" version="1.1" baseProfile="full" width="1020" height="420" viewBox="0 0 1020.00 420.00" enable-background="new 0 0 1020.00 420.00" xml:space="preserve">
	<path fill="#C4C4C4" fill-opacity="1" stroke-width="10" stroke-linejoin="round" d="M 54.4389,7.63907L 965.56,7.63907C 988.757,7.63907 1007.56,26.4431 1007.56,49.6391L 1007.56,370.361C 1007.56,393.557 988.757,412.361 965.56,412.361L 54.4389,412.361C 31.2429,412.361 12.4389,393.557 12.4389,370.361L 12.4389,49.6391C 12.4389,26.4431 31.2429,7.63907 54.4389,7.63907 Z "/>
	<g>
		<path fill="#000000" fill-opacity="1" stroke-linejoin="round" d="M 376.338,164.225L 372.504,182.535L 325.357,182.535L 314.485,237.465L 365.352,237.465L 360.603,255.775L 311.052,255.775L 296.347,325.352L 273.803,325.352L 288.108,255.775L 244.45,255.775L 230.26,325.352L 207.887,325.352L 222.078,255.775L 174.93,255.775L 178.134,237.465L 225.911,237.465L 236.554,182.535L 185.916,182.535L 189.692,164.225L 240.273,164.225L 254.978,90.9859L 277.465,90.9859L 262.703,164.225L 306.475,164.225L 321.409,90.9859L 343.38,90.9859L 328.847,164.225L 376.338,164.225 Z M 303.213,182.535L 259.384,182.535L 247.769,237.465L 292.227,237.465L 303.213,182.535 Z "/>
		<path fill="#000000" fill-opacity="1" stroke-linejoin="round" d="M 599.718,255.775L 526.479,255.775L 526.479,329.014L 500.845,329.014L 500.845,255.775L 427.606,255.775L 427.606,230.141L 500.845,230.141L 500.845,156.901L 526.479,156.901L 526.479,230.141L 599.718,230.141L 599.718,255.775 Z "/>
		<path fill="#000000" fill-opacity="1" stroke-linejoin="round" d="M 845.07,215.493L 676.62,215.493L 676.62,189.859L 845.07,189.859L 845.07,215.493 Z M 845.07,292.394L 676.62,292.394L 676.62,266.76L 845.07,266.76L 845.07,292.394 Z "/>
	</g>
</svg>
