<?xml version="1.0" encoding="utf-8"?>
<!DOCTYPE svg PUBLIC "-//W3C//DTD SVG 1.1//EN" "http://www.w3.org/Graphics/SVG/1.1/DTD/svg11.dtd">
<svg xmlns="http://www.w3.org/2000/svg" xmlns:xlink="http://www.w3.org/1999/xlink" version="1.1" baseProfile="full" width="420" height="420" viewBox="0 0 420.00 420.00" enable-background="new 0 0 420.00 420.00" xml:space="preserve">
	<path fill="#C4C4C4" fill-opacity="1" stroke-width="10" stroke-linejoin="round" d="M 51.9999,9.99976L 368,9.99976C 391.196,9.99976 410,28.8038 410,51.9998L 410,368C 410,391.196 391.196,410 368,410L 51.9999,410C 28.804,410 9.99994,391.196 9.99994,368L 9.99994,51.9998C 9.99994,28.8038 28.804,9.99976 51.9999,9.99976 Z "/>
	<g>
		<path fill="#000000" fill-opacity="1" stroke-linejoin="round" d="M 208.913,369.296C 172.675,369.296 143.655,357.375 121.855,333.534C 100.055,309.693 89.1549,278.681 89.1549,240.497C 89.1549,199.453 100.265,166.714 122.485,142.282C 144.704,117.85 174.944,105.634 213.204,105.634C 248.489,105.634 276.917,117.497 298.488,141.224C 320.059,164.95 330.845,195.962 330.845,234.261C 330.845,275.877 319.792,308.787 297.687,332.991C 275.582,357.194 245.99,369.296 208.913,369.296 Z M 211.03,131.268C 184.671,131.268 163.262,141.052 146.802,160.621C 130.343,180.189 122.113,205.899 122.113,237.751C 122.113,269.564 130.133,295.169 146.173,314.566C 162.213,333.963 183.146,343.662 208.97,343.662C 236.511,343.662 258.216,334.412 274.085,315.911C 289.953,297.41 297.887,271.529 297.887,238.266C 297.887,204.164 290.182,177.805 274.771,159.19C 259.36,140.575 238.113,131.268 211.03,131.268 Z M 246.62,87.3239C 241.623,87.3239 237.322,85.5883 233.717,82.1171C 230.112,78.6459 228.31,74.2401 228.31,68.8997C 228.31,63.7119 230.055,59.3824 233.545,55.9111C 237.036,52.4398 241.26,50.7043 246.219,50.7043C 251.483,50.7043 255.918,52.4685 259.522,55.9969C 263.127,59.5254 264.93,63.8263 264.93,68.8997C 264.93,74.0112 263.184,78.3598 259.694,81.9454C 256.204,85.5311 251.846,87.3239 246.62,87.3239 Z M 177.328,87.3239C 172.179,87.3239 167.792,85.493 164.168,81.831C 160.544,78.169 158.732,73.8586 158.732,68.8997C 158.732,63.7119 160.478,59.3824 163.968,55.9111C 167.458,52.4398 171.721,50.7043 176.756,50.7043C 181.791,50.7043 186.15,52.4685 189.831,55.9969C 193.512,59.5254 195.352,63.8263 195.352,68.8997C 195.352,74.0112 193.569,78.3598 190.002,81.9454C 186.436,85.5311 182.211,87.3239 177.328,87.3239 Z "/>
	</g>
</svg>
