<?xml version="1.0" encoding="utf-8"?>
<!DOCTYPE svg PUBLIC "-//W3C//DTD SVG 1.1//EN" "http://www.w3.org/Graphics/SVG/1.1/DTD/svg11.dtd">
<svg xmlns="http://www.w3.org/2000/svg" xmlns:xlink="http://www.w3.org/1999/xlink" version="1.1" baseProfile="full" width="420" height="420" viewBox="0 0 420.00 420.00" enable-background="new 0 0 420.00 420.00" xml:space="preserve">
	<path fill="#C4C4C4" fill-opacity="1" stroke-width="10" stroke-linejoin="round" d="M 51.9999,9.99976L 368,9.99976C 391.196,9.99976 410,28.8038 410,51.9998L 410,368C 410,391.196 391.196,410 368,410L 51.9999,410C 28.804,410 9.99994,391.196 9.99994,368L 9.99994,51.9998C 9.99994,28.8038 28.804,9.99976 51.9999,9.99976 Z "/>
	<g>
		<path fill="#000000" fill-opacity="1" stroke-linejoin="round" d="M 264.93,324.723C 257.873,328.804 248.584,330.845 237.064,330.845C 204.374,330.845 188.028,313.069 188.028,277.518L 188.028,169.718L 155.07,169.718L 155.07,144.085L 188.028,144.085L 188.028,98.7676L 217.324,89.1549L 217.324,144.085L 264.93,144.085L 264.93,169.718L 217.324,169.718L 217.324,271.51C 217.324,283.64 219.479,292.289 223.79,297.458C 228.1,302.627 235.233,305.211 245.189,305.211C 252.818,305.211 259.398,302.77 264.93,297.887L 264.93,324.723 Z "/>
	</g>
</svg>
