<?xml version="1.0" encoding="utf-8"?>
<!DOCTYPE svg PUBLIC "-//W3C//DTD SVG 1.1//EN" "http://www.w3.org/Graphics/SVG/1.1/DTD/svg11.dtd">
<svg xmlns="http://www.w3.org/2000/svg" xmlns:xlink="http://www.w3.org/1999/xlink" version="1.1" baseProfile="full" width="420" height="420" viewBox="0 0 420.00 420.00" enable-background="new 0 0 420.00 420.00" xml:space="preserve">
	<path fill="#C4C4C4" fill-opacity="1" stroke-width="10" stroke-linejoin="round" d="M 51.9999,9.99976L 368,9.99976C 391.196,9.99976 410,28.8038 410,51.9998L 410,368C 410,391.196 391.196,410 368,410L 51.9999,410C 28.804,410 9.99994,391.196 9.99994,368L 9.99994,51.9998C 9.99994,28.8038 28.804,9.99976 51.9999,9.99976 Z "/>
	<g>
		<path fill="#000000" fill-opacity="1" stroke-linejoin="round" d="M 209.828,112.958C 204.793,112.958 200.511,111.241 196.983,107.808C 193.454,104.375 191.69,100.026 191.69,94.7623C 191.69,89.4601 193.454,85.0638 196.983,81.5735C 200.511,78.0832 204.793,76.338 209.828,76.338C 214.978,76.338 219.346,78.0832 222.931,81.5735C 226.517,85.0638 228.31,89.4601 228.31,94.7623C 228.31,99.7975 226.517,104.089 222.931,107.636C 219.346,111.184 214.978,112.958 209.828,112.958 Z M 224.648,343.662L 195.352,343.662L 195.352,160.563L 224.648,160.563L 224.648,343.662 Z "/>
	</g>
</svg>
