<?xml version="1.0" encoding="utf-8"?>
<!DOCTYPE svg PUBLIC "-//W3C//DTD SVG 1.1//EN" "http://www.w3.org/Graphics/SVG/1.1/DTD/svg11.dtd">
<svg xmlns="http://www.w3.org/2000/svg" xmlns:xlink="http://www.w3.org/1999/xlink" version="1.1" baseProfile="full" width="420" height="420" viewBox="0 0 420.00 420.00" enable-background="new 0 0 420.00 420.00" xml:space="preserve">
	<path fill="#C4C4C4" fill-opacity="1" stroke-width="10" stroke-linejoin="round" d="M 51.9999,9.99976L 368,9.99976C 391.196,9.99976 410,28.8038 410,51.9998L 410,368C 410,391.196 391.196,410 368,410L 51.9999,410C 28.804,410 9.99994,391.196 9.99994,368L 9.99994,51.9998C 9.99994,28.8038 28.804,9.99976 51.9999,9.99976 Z "/>
	<g>
		<path fill="#000000" fill-opacity="1" stroke-linejoin="round" d="M 341.831,338.169L 312.535,338.169L 312.535,166.228C 312.535,152.61 313.355,135.979 314.996,116.334L 314.252,116.334C 311.353,127.892 308.759,136.169 306.47,141.166L 217.839,338.169L 203.019,338.169L 114.56,142.597C 112.004,136.875 109.41,128.121 106.778,116.334L 106.034,116.334C 106.988,126.595 107.465,143.341 107.465,166.571L 107.465,338.169L 78.169,338.169L 78.169,81.831L 118.165,81.831L 197.927,260.581C 204.068,274.275 208.055,284.517 209.886,291.307L 210.973,291.307C 216.161,277.232 220.337,266.741 223.504,259.837L 304.868,81.831L 341.831,81.831L 341.831,338.169 Z "/>
	</g>
</svg>
