<?xml version="1.0" encoding="utf-8"?>
<!DOCTYPE svg PUBLIC "-//W3C//DTD SVG 1.1//EN" "http://www.w3.org/Graphics/SVG/1.1/DTD/svg11.dtd">
<svg xmlns="http://www.w3.org/2000/svg" xmlns:xlink="http://www.w3.org/1999/xlink" version="1.1" baseProfile="full" width="740" height="420" viewBox="0 0 740.00 420.00" enable-background="new 0 0 740.00 420.00" xml:space="preserve">
	<path fill="#C4C4C4" fill-opacity="1" stroke-width="0.2" stroke-linejoin="round" d="M 52,9.99997L 688,9.99997C 711.196,9.99997 730,28.804 730,52L 730,368C 730,391.196 711.196,410 688,410L 52,410C 28.8041,410 10,391.196 10,368L 10,52C 10,28.804 28.8041,9.99997 52,9.99997 Z "/>
	<path fill="#000000" fill-opacity="1" fill-rule="evenodd" stroke-width="10" stroke-linejoin="round" stroke="#FFFFFF" stroke-opacity="1" d="M 287.442,113.836C 287.442,94.5064 303.112,78.8364 322.442,78.8364L 419.109,78.8364C 438.439,78.8364 454.109,94.5064 454.109,113.836L 454.109,174.549L 504.716,174.549L 505.961,174.521C 523.952,174.519 523.849,174.077 510.635,189.997C 508.501,192.567 506.981,194.332 505.926,195.486L 396.116,327.98L 395.866,327.98L 391.394,332.376C 379.476,344.093 360.152,344.093 348.233,332.376L 343.902,328.119L 343.623,327.782L 232.065,193.18L 229.365,189.972C 216.151,174.052 216.048,174.495 234.039,174.497L 235.983,174.568L 235.999,174.549L 287.442,174.549L 287.442,113.836 Z "/>
</svg>
