<?xml version="1.0" encoding="utf-8"?>
<!DOCTYPE svg PUBLIC "-//W3C//DTD SVG 1.1//EN" "http://www.w3.org/Graphics/SVG/1.1/DTD/svg11.dtd">
<svg xmlns="http://www.w3.org/2000/svg" xmlns:xlink="http://www.w3.org/1999/xlink" version="1.1" baseProfile="full" width="1020" height="420" viewBox="0 0 1020.00 420.00" enable-background="new 0 0 1020.00 420.00" xml:space="preserve">
	<path fill="#C4C4C4" fill-opacity="1" stroke-width="10" stroke-linejoin="round" d="M 54.4389,7.63907L 965.56,7.63907C 988.757,7.63907 1007.56,26.4431 1007.56,49.6391L 1007.56,370.361C 1007.56,393.557 988.757,412.361 965.56,412.361L 54.4389,412.361C 31.2429,412.361 12.4389,393.557 12.4389,370.361L 12.4389,49.6391C 12.4389,26.4431 31.2429,7.63907 54.4389,7.63907 Z "/>
	<g>
		<path fill="#000000" fill-opacity="1" stroke-linejoin="round" d="M 132.645,341.831C 127.114,341.831 122.403,339.857 118.512,335.909C 114.622,331.961 112.676,327.259 112.676,321.805C 112.676,316.312 114.622,311.563 118.512,307.557C 122.403,303.552 127.114,301.549 132.645,301.549C 138.291,301.549 143.088,303.552 147.036,307.557C 150.984,311.563 152.958,316.312 152.958,321.805C 152.958,327.259 150.984,331.961 147.036,335.909C 143.088,339.857 138.291,341.831 132.645,341.831 Z "/>
		<path fill="#000000" fill-opacity="1" stroke-linejoin="round" d="M 233.75,264.93C 232.758,261.916 231.862,257.987 231.061,253.143C 230.26,248.298 229.859,243.473 229.859,238.666C 229.859,231.228 231.395,224.505 234.465,218.497C 237.536,212.489 241.37,206.863 245.966,201.618C 250.563,196.373 255.569,191.328 260.986,186.483C 266.403,181.639 271.409,176.737 276.006,171.778C 280.602,166.819 284.436,161.632 287.507,156.215C 290.577,150.798 292.113,144.809 292.113,138.248C 292.113,132.679 290.997,127.73 288.766,123.4C 286.534,119.071 283.482,115.447 279.611,112.529C 275.739,109.611 271.266,107.427 266.193,105.977C 261.12,104.528 255.741,103.803 250.057,103.803C 229.611,103.803 211.893,112.347 196.902,129.437L 196.902,96.2501C 215.402,84.1961 234.589,78.1691 254.463,78.1691C 263.656,78.1691 272.306,79.3421 280.412,81.688C 288.518,84.034 295.622,87.5243 301.725,92.159C 307.829,96.7936 312.635,102.582 316.144,109.525C 319.654,116.467 321.409,124.516 321.409,133.671C 321.409,142.368 319.797,150.121 316.574,156.93C 313.35,163.739 309.288,169.995 304.386,175.698C 299.484,181.4 294.173,186.712 288.451,191.633C 282.729,196.554 277.417,201.455 272.516,206.338C 267.614,211.221 263.551,216.304 260.328,221.587C 257.105,226.87 255.493,232.678 255.493,239.01C 255.493,244.426 256.151,249.338 257.467,253.743C 258.783,258.149 260.09,261.878 261.387,264.93L 233.75,264.93 Z M 250,341.831C 244.66,341.831 239.949,339.886 235.867,335.995C 231.862,332.104 229.859,327.374 229.859,321.805C 229.859,316.083 231.862,311.334 235.867,307.557C 239.834,303.552 244.545,301.549 250,301.549C 255.455,301.549 260.166,303.552 264.133,307.557C 268.138,311.334 270.141,316.083 270.141,321.805C 270.141,327.374 268.138,332.104 264.133,335.995C 260.051,339.886 255.34,341.831 250,341.831 Z "/>
		<path fill="#000000" fill-opacity="1" stroke-linejoin="round" d="M 515.493,338.169L 369.014,338.169L 369.014,312.535L 427.606,312.535L 427.606,115.361L 367.584,133.099L 367.584,105.176L 456.901,78.1691L 456.901,312.535L 515.493,312.535L 515.493,338.169 Z "/>
		<path fill="#000000" fill-opacity="1" stroke-linejoin="round" d="M 709.577,338.169L 555.775,338.169L 555.775,313.622L 630.731,238.209C 649.842,219.021 663.488,203.038 671.67,190.26C 679.853,177.481 683.944,163.844 683.944,149.349C 683.944,134.853 679.748,123.639 671.356,115.704C 662.964,107.77 651.043,103.803 635.594,103.803C 612.936,103.803 591.212,113.568 570.423,133.099L 570.423,101.915C 590.335,86.0843 613.508,78.1691 639.943,78.1691C 662.716,78.1691 680.625,84.3487 693.671,96.7078C 706.717,109.067 713.239,125.66 713.239,146.488C 713.239,163.043 708.691,179.207 699.593,194.98C 690.495,210.753 674.14,230.332 650.528,253.715L 591.021,312.535L 591.021,313.222L 709.577,313.222L 709.577,338.169 Z "/>
		<path fill="#000000" fill-opacity="1" stroke-linejoin="round" d="M 757.183,325.867L 757.183,294.225C 775.112,308.873 795.348,316.197 817.892,316.197C 836.163,316.197 850.754,311.763 861.664,302.894C 872.573,294.025 878.028,282.095 878.028,267.104C 878.028,233.917 853.577,217.324 804.674,217.324L 782.817,217.324L 782.817,191.69L 804.045,191.69C 848.484,191.69 870.704,176.47 870.704,146.03C 870.704,117.879 854.054,103.803 820.753,103.803C 802.176,103.803 784.648,109.906 768.169,122.113L 768.169,93.5036C 784.915,83.2806 804.693,78.1691 827.504,78.1691C 849.476,78.1691 867.052,83.8051 880.231,95.0771C 893.41,106.349 900,120.797 900,138.42C 900,171.683 882.32,193.063 846.959,202.562L 846.959,203.305C 865.421,205.098 880.097,211.583 890.988,222.76C 901.879,233.936 907.324,247.898 907.324,264.643C 907.324,287.76 898.961,306.403 882.234,320.574C 865.507,334.745 843.449,341.831 816.061,341.831C 791.419,341.831 771.793,336.51 757.183,325.867 Z "/>
	</g>
</svg>
