<?xml version="1.0" encoding="utf-8"?>
<!DOCTYPE svg PUBLIC "-//W3C//DTD SVG 1.1//EN" "http://www.w3.org/Graphics/SVG/1.1/DTD/svg11.dtd">
<svg xmlns="http://www.w3.org/2000/svg" xmlns:xlink="http://www.w3.org/1999/xlink" version="1.1" baseProfile="full" width="420" height="420" viewBox="0 0 420.00 420.00" enable-background="new 0 0 420.00 420.00" xml:space="preserve">
	<path fill="#C4C4C4" fill-opacity="1" stroke-width="10" stroke-linejoin="round" d="M 51.9999,9.99976L 368,9.99976C 391.196,9.99976 410,28.8038 410,51.9998L 410,368C 410,391.196 391.196,410 368,410L 51.9999,410C 28.804,410 9.99994,391.196 9.99994,368L 9.99994,51.9998C 9.99994,28.8038 28.804,9.99976 51.9999,9.99976 Z "/>
	<g>
		<path fill="#000000" fill-opacity="1" stroke-linejoin="round" d="M 325.352,367.465L 291.708,367.465L 263.499,294.225L 155.07,294.225L 128.464,367.465L 94.6479,367.465L 194.093,111.127L 225.563,111.127L 325.352,367.465 Z M 253.886,268.592L 213.548,161.078C 212.251,157.531 210.954,151.866 209.657,144.085L 208.913,144.085C 207.692,151.294 206.281,156.959 204.679,161.078L 164.626,268.592L 253.886,268.592 Z M 241.127,89.1549C 236.13,89.1549 231.829,87.4193 228.224,83.9481C 224.619,80.4768 222.817,76.071 222.817,70.7307C 222.817,65.5429 224.562,61.2134 228.052,57.7421C 231.543,54.2709 235.767,52.5352 240.726,52.5352C 245.99,52.5352 250.425,54.2995 254.029,57.828C 257.634,61.3564 259.437,65.6573 259.437,70.7307C 259.437,75.8422 257.691,80.1908 254.201,83.7764C 250.711,87.3621 246.353,89.1549 241.127,89.1549 Z M 171.835,89.1549C 166.686,89.1549 162.299,87.3239 158.675,83.662C 155.051,80 153.239,75.6896 153.239,70.7307C 153.239,65.5429 154.985,61.2134 158.475,57.7421C 161.965,54.2709 166.228,52.5352 171.263,52.5352C 176.298,52.5352 180.657,54.2995 184.338,57.828C 188.019,61.3564 189.859,65.6573 189.859,70.7307C 189.859,75.8422 188.076,80.1908 184.509,83.7764C 180.943,87.3621 176.718,89.1549 171.835,89.1549 Z "/>
	</g>
</svg>
