<?xml version="1.0" encoding="utf-8"?>
<!DOCTYPE svg PUBLIC "-//W3C//DTD SVG 1.1//EN" "http://www.w3.org/Graphics/SVG/1.1/DTD/svg11.dtd">
<svg xmlns="http://www.w3.org/2000/svg" xmlns:xlink="http://www.w3.org/1999/xlink" version="1.1" baseProfile="full" width="420" height="420" viewBox="0 0 420.00 420.00" enable-background="new 0 0 420.00 420.00" xml:space="preserve">
	<path fill="#C4C4C4" fill-opacity="1" stroke-width="10" stroke-linejoin="round" d="M 51.9999,9.99976L 368,9.99976C 391.196,9.99976 410,28.8038 410,51.9998L 410,368C 410,391.196 391.196,410 368,410L 51.9999,410C 28.804,410 9.99994,391.196 9.99994,368L 9.99994,51.9998C 9.99994,28.8038 28.804,9.99976 51.9999,9.99976 Z "/>
	<g>
		<path fill="#000000" fill-opacity="1" stroke-linejoin="round" d="M 226.479,80.0001L 222.817,263.099L 196.954,263.099L 193.521,80.0001L 226.479,80.0001 Z M 210,340C 204.431,340 199.682,338.055 195.753,334.164C 191.824,330.273 189.859,325.543 189.859,319.974C 189.859,314.366 191.824,309.588 195.753,305.64C 199.682,301.692 204.431,299.718 210,299.718C 215.455,299.718 220.175,301.692 224.162,305.64C 228.148,309.588 230.141,314.366 230.141,319.974C 230.141,325.543 228.148,330.273 224.162,334.164C 220.175,338.055 215.455,340 210,340 Z "/>
	</g>
</svg>
