<?xml version="1.0" encoding="utf-8"?>
<!DOCTYPE svg PUBLIC "-//W3C//DTD SVG 1.1//EN" "http://www.w3.org/Graphics/SVG/1.1/DTD/svg11.dtd">
<svg xmlns="http://www.w3.org/2000/svg" xmlns:xlink="http://www.w3.org/1999/xlink" version="1.1" baseProfile="full" width="1020" height="420" viewBox="0 0 1020.00 420.00" enable-background="new 0 0 1020.00 420.00" xml:space="preserve">
	<path fill="#C4C4C4" fill-opacity="1" stroke-width="10" stroke-linejoin="round" d="M 54.4389,7.63907L 965.56,7.63907C 988.757,7.63907 1007.56,26.4431 1007.56,49.6391L 1007.56,370.361C 1007.56,393.557 988.757,412.361 965.56,412.361L 54.4389,412.361C 31.2429,412.361 12.4389,393.557 12.4389,370.361L 12.4389,49.6391C 12.4389,26.4431 31.2429,7.63907 54.4389,7.63907 Z "/>
	<g>
		<path fill="#000000" fill-opacity="1" stroke-linejoin="round" d="M 414.789,338.169L 381.144,338.169L 352.936,264.93L 244.507,264.93L 217.901,338.169L 184.085,338.169L 283.53,81.8311L 315,81.8311L 414.789,338.169 Z M 343.323,239.296L 302.984,131.783C 301.687,128.235 300.39,122.57 299.093,114.789L 298.35,114.789C 297.129,121.998 295.717,127.663 294.115,131.783L 254.063,239.296L 343.323,239.296 Z "/>
		<path fill="#000000" fill-opacity="1" stroke-linejoin="round" d="M 451.408,338.169L 451.408,81.8311L 524.991,81.8311C 547.383,81.8311 565.13,87.2286 578.233,98.0238C 591.336,108.819 597.887,122.876 597.887,140.194C 597.887,154.651 593.968,167.22 586.129,177.901C 578.29,188.581 567.485,196.172 553.715,200.673L 553.715,201.417C 571.529,203.439 585.786,209.981 596.485,221.043C 607.185,232.105 612.535,246.505 612.535,264.243C 612.535,286.253 604.506,304.076 588.446,317.713C 572.387,331.35 552.132,338.169 527.68,338.169L 451.408,338.169 Z M 480.704,107.465L 480.704,191.69L 511.659,191.69C 528.214,191.69 541.232,187.656 550.711,179.589C 560.19,171.521 564.93,160.144 564.93,145.458C 564.93,120.129 548.432,107.465 515.436,107.465L 480.704,107.465 Z M 480.704,217.324L 480.704,312.535L 522.531,312.535C 540.612,312.535 554.64,308.234 564.615,299.632C 574.59,291.031 579.577,279.215 579.577,264.186C 579.577,232.945 558.426,217.324 516.122,217.324L 480.704,217.324 Z "/>
		<path fill="#000000" fill-opacity="1" stroke-linejoin="round" d="M 835.915,327.011C 817.033,336.891 793.536,341.831 765.422,341.831C 729.146,341.831 700.089,330.149 678.25,306.785C 656.412,283.421 645.493,252.761 645.493,214.806C 645.493,173.991 657.776,141.014 682.341,115.876C 706.907,90.738 738.053,78.1691 775.779,78.1691C 799.963,78.1691 820.009,80.9346 835.915,86.4657L 835.915,118.451C 817.834,108.686 797.865,103.803 776.008,103.803C 747.017,103.803 723.51,113.711 705.486,133.528C 687.462,153.344 678.451,179.827 678.451,212.975C 678.451,244.445 686.871,269.517 703.712,288.189C 720.554,306.861 742.669,316.197 770.057,316.197C 795.424,316.197 817.377,310.094 835.915,297.887L 835.915,327.011 Z "/>
	</g>
</svg>
