<?xml version="1.0" encoding="utf-8"?>
<!DOCTYPE svg PUBLIC "-//W3C//DTD SVG 1.1//EN" "http://www.w3.org/Graphics/SVG/1.1/DTD/svg11.dtd">
<svg xmlns="http://www.w3.org/2000/svg" xmlns:xlink="http://www.w3.org/1999/xlink" version="1.1" baseProfile="full" width="420" height="420" viewBox="0 0 420.00 420.00" enable-background="new 0 0 420.00 420.00" xml:space="preserve">
	<path fill="#C4C4C4" fill-opacity="1" stroke-width="10" stroke-linejoin="round" d="M 51.9999,9.99976L 368,9.99976C 391.196,9.99976 410,28.8038 410,51.9998L 410,368C 410,391.196 391.196,410 368,410L 51.9999,410C 28.804,410 9.99994,391.196 9.99994,368L 9.99994,51.9998C 9.99994,28.8038 28.804,9.99976 51.9999,9.99976 Z "/>
	<g>
		<path fill="#000000" fill-opacity="1" stroke-linejoin="round" d="M 138.592,327.183L 138.592,296.056C 156.062,308.263 173.819,314.366 191.862,314.366C 209.943,314.366 224.505,309.226 235.548,298.946C 246.591,288.666 252.113,275.057 252.113,258.121C 252.113,241.26 246.429,228.11 235.062,218.669C 223.694,209.228 207.425,204.507 186.254,204.507C 179.083,204.507 165.637,205.232 145.915,206.681L 145.915,80L 270.423,80L 270.423,105.634L 175.211,105.634L 175.211,179.617C 182.955,179.121 190.107,178.873 196.668,178.873C 223.637,178.873 244.503,185.816 259.265,199.701C 274.027,213.586 281.408,232.601 281.408,256.747C 281.408,281.733 273.388,301.854 257.348,317.113C 241.308,332.371 219.307,340 191.347,340C 167.773,340 150.188,335.728 138.592,327.183 Z "/>
	</g>
</svg>
