<?xml version="1.0" encoding="utf-8"?>
<!DOCTYPE svg PUBLIC "-//W3C//DTD SVG 1.1//EN" "http://www.w3.org/Graphics/SVG/1.1/DTD/svg11.dtd">
<svg xmlns="http://www.w3.org/2000/svg" xmlns:xlink="http://www.w3.org/1999/xlink" version="1.1" baseProfile="full" width="420" height="420" viewBox="0 0 420.00 420.00" enable-background="new 0 0 420.00 420.00" xml:space="preserve">
	<path fill="#C4C4C4" fill-opacity="1" stroke-width="10" stroke-linejoin="round" d="M 51.9999,9.99976L 368,9.99976C 391.196,9.99976 410,28.8038 410,51.9998L 410,368C 410,391.196 391.196,410 368,410L 51.9999,410C 28.804,410 9.99994,391.196 9.99994,368L 9.99994,51.9998C 9.99994,28.8038 28.804,9.99976 51.9999,9.99976 Z "/>
	<g>
		<path fill="#000000" fill-opacity="1" stroke-linejoin="round" d="M 144.085,333.305L 144.085,305.211C 158.16,312.535 173.056,316.197 188.772,316.197C 211.659,316.197 229.464,306.985 242.185,288.561C 254.907,270.136 261.268,243.969 261.268,210.057C 261.039,210.172 260.81,210.172 260.581,210.057C 249.709,231.991 230.808,242.958 203.878,242.958C 182.135,242.958 164.292,235.538 150.35,220.7C 136.408,205.861 129.437,186.769 129.437,163.424C 129.437,138.515 137.075,118.079 152.353,102.115C 167.63,86.151 187.208,78.169 211.087,78.169C 236.111,78.169 255.613,88.1059 269.593,107.98C 283.573,127.854 290.563,156.768 290.563,194.723C 290.563,241.794 281.523,278.08 263.442,303.581C 245.361,329.081 220.242,341.831 188.085,341.831C 171.187,341.831 156.52,338.989 144.085,333.305 Z M 209.085,103.803C 194.704,103.803 182.716,109.086 173.123,119.652C 163.529,130.219 158.732,143.646 158.732,159.934C 158.732,177.786 163.443,191.814 172.865,202.018C 182.287,212.222 195.028,217.324 211.087,217.324C 225.087,217.324 236.95,212.661 246.677,203.334C 256.404,194.007 261.268,182.611 261.268,169.146C 261.268,149.921 256.433,134.224 246.763,122.055C 237.093,109.887 224.533,103.803 209.085,103.803 Z "/>
	</g>
</svg>
