<?xml version="1.0" encoding="utf-8"?>
<!DOCTYPE svg PUBLIC "-//W3C//DTD SVG 1.1//EN" "http://www.w3.org/Graphics/SVG/1.1/DTD/svg11.dtd">
<svg xmlns="http://www.w3.org/2000/svg" xmlns:xlink="http://www.w3.org/1999/xlink" version="1.1" baseProfile="full" width="420" height="420" viewBox="0 0 420.00 420.00" enable-background="new 0 0 420.00 420.00" xml:space="preserve">
	<path fill="#C4C4C4" fill-opacity="1" stroke-width="10" stroke-linejoin="round" d="M 51.9999,9.99976L 368,9.99976C 391.196,9.99976 410,28.8038 410,51.9998L 410,368C 410,391.196 391.196,410 368,410L 51.9999,410C 28.804,410 9.99994,391.196 9.99994,368L 9.99994,51.9998C 9.99994,28.8038 28.804,9.99976 51.9999,9.99976 Z "/>
	<g>
		<path fill="#000000" fill-opacity="1" stroke-linejoin="round" d="M 314.366,338.169L 277.232,338.169L 217.438,240.04C 215.607,237.064 213.605,232.83 211.43,227.337L 210.744,227.337C 209.523,230.084 207.463,234.318 204.564,240.04L 142.94,338.169L 105.634,338.169L 193.292,209.313L 112.958,81.831L 150.379,81.831L 203.649,171.95C 207.158,177.901 210.248,183.851 212.918,189.802L 213.662,189.802C 217.553,181.944 220.948,175.745 223.847,171.206L 279.291,81.831L 314.366,81.831L 232.372,208.913L 314.366,338.169 Z "/>
	</g>
</svg>
