<?xml version="1.0" encoding="utf-8"?>
<!DOCTYPE svg PUBLIC "-//W3C//DTD SVG 1.1//EN" "http://www.w3.org/Graphics/SVG/1.1/DTD/svg11.dtd">
<svg xmlns="http://www.w3.org/2000/svg" xmlns:xlink="http://www.w3.org/1999/xlink" version="1.1" baseProfile="full" width="420" height="420" viewBox="0 0 420.00 420.00" enable-background="new 0 0 420.00 420.00" xml:space="preserve">
	<path fill="#C4C4C4" fill-opacity="1" stroke-width="10" stroke-linejoin="round" d="M 51.9999,9.99976L 368,9.99976C 391.196,9.99976 410,28.8038 410,51.9998L 410,368C 410,391.196 391.196,410 368,410L 51.9999,410C 28.804,410 9.99994,391.196 9.99994,368L 9.99994,51.9998C 9.99994,28.8038 28.804,9.99976 51.9999,9.99976 Z "/>
	<g>
		<path fill="#000000" fill-opacity="1" stroke-linejoin="round" d="M 160.563,239.296L 160.563,338.169L 131.268,338.169L 131.268,81.831L 201.989,81.831C 229.531,81.831 250.873,88.4207 266.017,101.6C 281.16,114.779 288.732,133.366 288.732,157.359C 288.732,181.391 280.264,201.055 263.327,216.351C 246.391,231.648 223.523,239.296 194.723,239.296L 160.563,239.296 Z M 160.563,107.465L 160.563,213.662L 191.976,213.662C 212.727,213.662 228.548,208.875 239.439,199.3C 250.329,189.726 255.775,176.203 255.775,158.732C 255.775,124.554 235.767,107.465 195.753,107.465L 160.563,107.465 Z "/>
	</g>
</svg>
