<?xml version="1.0" encoding="utf-8"?>
<!DOCTYPE svg PUBLIC "-//W3C//DTD SVG 1.1//EN" "http://www.w3.org/Graphics/SVG/1.1/DTD/svg11.dtd">
<svg xmlns="http://www.w3.org/2000/svg" xmlns:xlink="http://www.w3.org/1999/xlink" version="1.1" baseProfile="full" width="420" height="420" viewBox="0 0 420.00 420.00" enable-background="new 0 0 420.00 420.00" xml:space="preserve">
	<path fill="#C4C4C4" fill-opacity="1" stroke-width="10" stroke-linejoin="round" d="M 51.9999,9.99976L 368,9.99976C 391.196,9.99976 410,28.8038 410,51.9998L 410,368C 410,391.196 391.196,410 368,410L 51.9999,410C 28.804,410 9.99994,391.196 9.99994,368L 9.99994,51.9998C 9.99994,28.8038 28.804,9.99976 51.9999,9.99976 Z "/>
	<g>
		<path fill="#000000" fill-opacity="1" stroke-linejoin="round" d="M 208.913,341.831C 172.675,341.831 143.655,329.91 121.855,306.07C 100.055,282.229 89.1549,251.216 89.1549,213.033C 89.1549,171.988 100.265,139.25 122.485,114.817C 144.704,90.3851 174.944,78.169 213.204,78.169C 248.489,78.169 276.917,90.0323 298.488,113.759C 320.059,137.485 330.845,168.498 330.845,206.796C 330.845,248.413 319.792,281.323 297.687,305.526C 275.582,329.729 245.99,341.831 208.913,341.831 Z M 211.03,103.803C 184.671,103.803 163.262,113.587 146.802,133.156C 130.343,152.724 122.113,178.435 122.113,210.286C 122.113,242.099 130.133,267.705 146.173,287.102C 162.213,306.499 183.146,316.197 208.97,316.197C 236.511,316.197 258.216,306.947 274.085,288.446C 289.953,269.946 297.887,244.064 297.887,210.801C 297.887,176.699 290.182,150.34 274.771,131.725C 259.36,113.11 238.113,103.803 211.03,103.803 Z "/>
	</g>
</svg>
