<?xml version="1.0" encoding="utf-8"?>
<!DOCTYPE svg PUBLIC "-//W3C//DTD SVG 1.1//EN" "http://www.w3.org/Graphics/SVG/1.1/DTD/svg11.dtd">
<svg xmlns="http://www.w3.org/2000/svg" xmlns:xlink="http://www.w3.org/1999/xlink" version="1.1" baseProfile="full" width="420" height="420" viewBox="0 0 420.00 420.00" enable-background="new 0 0 420.00 420.00" xml:space="preserve">
	<path fill="#C4C4C4" fill-opacity="1" stroke-width="10" stroke-linejoin="round" d="M 51.9999,9.99976L 368,9.99976C 391.196,9.99976 410,28.8038 410,51.9998L 410,368C 410,391.196 391.196,410 368,410L 51.9999,410C 28.804,410 9.99994,391.196 9.99994,368L 9.99994,51.9998C 9.99994,28.8038 28.804,9.99976 51.9999,9.99976 Z "/>
	<g>
		<path fill="#000000" fill-opacity="1" stroke-linejoin="round" d="M 133.27,210C 115.38,210 101.114,204.221 90.471,192.663C 79.8284,181.105 74.5071,165.656 74.5071,146.316C 74.5071,125.183 80.1335,108.542 91.3865,96.3931C 102.639,84.2437 117.821,78.1691 136.932,78.1691C 155.433,78.1691 169.795,83.8051 180.018,95.0771C 190.241,106.349 195.352,122.189 195.352,142.597C 195.352,162.967 189.64,179.293 178.215,191.576C 166.791,203.859 151.809,210 133.27,210 Z M 135.731,100.141C 124.745,100.141 116.067,104.108 109.696,112.042C 103.326,119.977 100.141,130.886 100.141,144.771C 100.141,158.389 103.269,169.003 109.525,176.613C 115.781,184.223 124.287,188.028 135.044,188.028C 145.916,188.028 154.412,184.08 160.535,176.184C 166.657,168.288 169.718,157.359 169.718,143.398C 169.718,129.78 166.686,119.166 160.621,111.556C 154.555,103.946 146.259,100.141 135.731,100.141 Z M 305.211,81.8311L 140.423,338.169L 114.789,338.169L 279.406,81.8311L 305.211,81.8311 Z M 283.411,341.831C 265.521,341.831 251.254,336.033 240.612,324.437C 229.969,312.84 224.648,297.468 224.648,278.319C 224.648,257.262 230.332,240.612 241.699,228.367C 253.066,216.122 268.191,210 287.073,210C 305.459,210 319.792,215.674 330.073,227.022C 340.353,238.371 345.493,254.287 345.493,274.771C 345.493,294.988 339.781,311.219 328.356,323.464C 316.931,335.709 301.95,341.831 283.411,341.831 Z M 285.871,231.972C 274.771,231.972 266.064,235.929 259.751,243.845C 253.438,251.76 250.282,262.736 250.282,276.774C 250.282,290.239 253.41,300.786 259.665,308.415C 265.921,316.045 274.428,319.859 285.185,319.859C 296.056,319.859 304.553,315.873 310.676,307.901C 316.798,299.928 319.859,288.98 319.859,275.057C 319.859,261.249 316.827,250.615 310.761,243.158C 304.696,235.701 296.4,231.972 285.871,231.972 Z "/>
	</g>
</svg>
