<?xml version="1.0" encoding="utf-8"?>
<!DOCTYPE svg PUBLIC "-//W3C//DTD SVG 1.1//EN" "http://www.w3.org/Graphics/SVG/1.1/DTD/svg11.dtd">
<svg xmlns="http://www.w3.org/2000/svg" xmlns:xlink="http://www.w3.org/1999/xlink" version="1.1" baseProfile="full" width="420" height="420" viewBox="0 0 420.00 420.00" enable-background="new 0 0 420.00 420.00" xml:space="preserve">
	<path fill="#C4C4C4" fill-opacity="1" stroke-width="10" stroke-linejoin="round" d="M 51.9999,9.99976L 368,9.99976C 391.196,9.99976 410,28.8038 410,51.9998L 410,368C 410,391.196 391.196,410 368,410L 51.9999,410C 28.804,410 9.99994,391.196 9.99994,368L 9.99994,51.9998C 9.99994,28.8038 28.804,9.99976 51.9999,9.99976 Z "/>
	<g>
		<path fill="#000000" fill-opacity="1" stroke-linejoin="round" d="M 209.828,320.141C 204.297,320.141 199.586,318.167 195.695,314.219C 191.805,310.271 189.859,305.57 189.859,300.115C 189.859,294.622 191.805,289.873 195.695,285.867C 199.586,281.862 204.297,279.859 209.828,279.859C 215.474,279.859 220.271,281.862 224.219,285.867C 228.167,289.873 230.141,294.622 230.141,300.115C 230.141,305.57 228.167,310.271 224.219,314.219C 220.271,318.167 215.474,320.141 209.828,320.141 Z "/>
	</g>
</svg>
