<?xml version="1.0" encoding="utf-8"?>
<!DOCTYPE svg PUBLIC "-//W3C//DTD SVG 1.1//EN" "http://www.w3.org/Graphics/SVG/1.1/DTD/svg11.dtd">
<svg xmlns="http://www.w3.org/2000/svg" xmlns:xlink="http://www.w3.org/1999/xlink" version="1.1" baseProfile="full" width="420" height="420" viewBox="0 0 420.00 420.00" enable-background="new 0 0 420.00 420.00" xml:space="preserve">
	<path fill="#C4C4C4" fill-opacity="1" stroke-width="10" stroke-linejoin="round" d="M 51.9999,9.99976L 368,9.99976C 391.196,9.99976 410,28.8038 410,51.9998L 410,368C 410,391.196 391.196,410 368,410L 51.9999,410C 28.804,410 9.99994,391.196 9.99994,368L 9.99994,51.9998C 9.99994,28.8038 28.804,9.99976 51.9999,9.99976 Z "/>
	<g>
		<path fill="#000000" fill-opacity="1" stroke-linejoin="round" d="M 203.477,308.873C 195.886,308.873 188.162,308.129 180.304,306.642C 172.446,305.154 164.836,302.903 157.474,299.89C 150.112,296.876 143.074,293.138 136.36,288.675C 129.646,284.212 123.562,279.024 118.107,273.112C 96.3645,249.385 85.493,218.373 85.493,180.075C 85.493,138.916 96.5361,106.187 118.622,81.8882C 140.976,57.437 171.53,45.2113 210.286,45.2113C 244.96,45.2113 273.112,57.0746 294.74,80.8011C 316.369,104.528 327.183,135.54 327.183,173.838C 327.183,189.974 325.371,205.184 321.747,219.47C 318.124,233.755 312.631,246.648 305.268,258.149C 297.906,269.65 288.637,279.406 277.46,287.416C 266.284,295.427 253.085,301.149 237.865,304.582C 244.121,311.181 249.986,317.027 255.46,322.119C 260.934,327.212 266.417,331.494 271.91,334.965C 277.403,338.436 283.096,341.059 288.99,342.832C 294.883,344.606 301.378,345.493 308.473,345.493C 310.418,345.493 312.535,345.398 314.824,345.207C 317.113,345.016 319.43,344.72 321.776,344.32C 324.122,343.919 326.382,343.443 328.556,342.89C 330.731,342.336 332.714,341.717 334.507,341.03L 334.507,371.07C 332.6,371.68 330.445,372.204 328.041,372.643C 325.638,373.082 323.206,373.454 320.746,373.759C 318.286,374.064 315.854,374.312 313.451,374.503C 311.048,374.693 308.835,374.789 306.813,374.789C 295.293,374.789 284.937,373.072 275.744,369.639C 266.551,366.206 257.968,361.495 249.996,355.506C 242.023,349.517 234.318,342.546 226.879,334.593C 219.441,326.64 211.64,318.066 203.477,308.873 Z M 207.368,70.8451C 181.009,70.8451 159.591,80.6294 143.112,100.198C 126.671,119.767 118.451,145.477 118.451,177.328C 118.451,209.027 126.442,234.661 142.425,254.23C 158.523,273.57 179.484,283.239 205.308,283.239C 232.849,283.239 254.554,273.989 270.423,255.489C 286.291,236.988 294.225,211.106 294.225,177.843C 294.225,143.627 286.52,117.268 271.109,98.7676C 255.698,80.1526 234.451,70.8451 207.368,70.8451 Z "/>
	</g>
</svg>
