<?xml version="1.0" encoding="utf-8"?>
<!DOCTYPE svg PUBLIC "-//W3C//DTD SVG 1.1//EN" "http://www.w3.org/Graphics/SVG/1.1/DTD/svg11.dtd">
<svg xmlns="http://www.w3.org/2000/svg" xmlns:xlink="http://www.w3.org/1999/xlink" version="1.1" baseProfile="full" width="420" height="420" viewBox="0 0 420.00 420.00" enable-background="new 0 0 420.00 420.00" xml:space="preserve">
	<path fill="#C4C4C4" fill-opacity="1" stroke-width="10" stroke-linejoin="round" d="M 51.9999,9.99976L 368,9.99976C 391.196,9.99976 410,28.8038 410,51.9998L 410,368C 410,391.196 391.196,410 368,410L 51.9999,410C 28.804,410 9.99994,391.196 9.99994,368L 9.99994,51.9998C 9.99994,28.8038 28.804,9.99976 51.9999,9.99976 Z "/>
	<g>
		<path fill="#000000" fill-opacity="1" stroke-linejoin="round" d="M 155.814,233.173L 155.07,233.173L 155.07,345.493L 125.775,345.493L 125.775,78.169L 155.07,78.169L 155.07,111.928L 155.814,111.928C 170.233,86.9807 191.328,74.5071 219.098,74.5071C 242.71,74.5071 261.134,82.6511 274.371,98.9393C 287.607,115.227 294.225,137.047 294.225,164.397C 294.225,194.837 286.777,219.203 271.882,237.493C 256.986,255.784 236.587,264.93 210.687,264.93C 186.96,264.93 168.669,254.344 155.814,233.173 Z M 155.07,161.136L 155.07,186.14C 155.07,200.94 160.02,213.5 169.919,223.818C 179.817,234.137 192.396,239.296 207.654,239.296C 225.544,239.296 239.563,232.649 249.709,219.355C 259.856,206.061 264.93,187.589 264.93,163.939C 264.93,144.027 260.19,128.416 250.711,117.106C 241.232,105.796 228.386,100.141 212.174,100.141C 195.009,100.141 181.2,105.939 170.748,117.535C 160.296,129.131 155.07,143.665 155.07,161.136 Z "/>
	</g>
</svg>
