<?xml version="1.0" encoding="utf-8"?>
<!DOCTYPE svg PUBLIC "-//W3C//DTD SVG 1.1//EN" "http://www.w3.org/Graphics/SVG/1.1/DTD/svg11.dtd">
<svg xmlns="http://www.w3.org/2000/svg" xmlns:xlink="http://www.w3.org/1999/xlink" version="1.1" baseProfile="full" width="420" height="420" viewBox="0 0 420.00 420.00" enable-background="new 0 0 420.00 420.00" xml:space="preserve">
	<path fill="#C4C4C4" fill-opacity="1" stroke-width="10" stroke-linejoin="round" d="M 51.9999,9.99976L 368,9.99976C 391.196,9.99976 410,28.8038 410,51.9998L 410,368C 410,391.196 391.196,410 368,410L 51.9999,410C 28.804,410 9.99994,391.196 9.99994,368L 9.99994,51.9998C 9.99994,28.8038 28.804,9.99976 51.9999,9.99976 Z "/>
	<g>
		<path fill="#000000" fill-opacity="1" stroke-linejoin="round" d="M 286.901,334.507L 257.606,334.507L 257.606,303.952L 256.862,303.952C 244.541,326.763 225.43,338.169 199.529,338.169C 155.242,338.169 133.099,312.268 133.099,260.467L 133.099,151.408L 162.394,151.408L 162.394,255.145C 162.394,293.405 177.443,312.535 207.54,312.535C 222.111,312.535 234.098,307.309 243.501,296.857C 252.904,286.406 257.606,272.749 257.606,255.889L 257.606,151.408L 286.901,151.408L 286.901,334.507 Z M 246.62,118.451C 241.623,118.451 237.322,116.715 233.717,113.244C 230.112,109.773 228.31,105.367 228.31,100.026C 228.31,94.8386 230.055,90.5091 233.545,87.0379C 237.036,83.5666 241.26,81.831 246.219,81.831C 251.483,81.831 255.918,83.5952 259.522,87.1237C 263.127,90.6522 264.93,94.9531 264.93,100.026C 264.93,105.138 263.184,109.487 259.694,113.072C 256.204,116.658 251.846,118.451 246.62,118.451 Z M 177.328,118.451C 172.179,118.451 167.792,116.62 164.168,112.958C 160.544,109.296 158.732,104.985 158.732,100.026C 158.732,94.8386 160.478,90.5091 163.968,87.0379C 167.458,83.5666 171.721,81.831 176.756,81.831C 181.791,81.831 186.15,83.5952 189.831,87.1237C 193.512,90.6522 195.352,94.9531 195.352,100.026C 195.352,105.138 193.569,109.487 190.002,113.072C 186.436,116.658 182.211,118.451 177.328,118.451 Z "/>
	</g>
</svg>
