<?xml version="1.0" encoding="utf-8"?>
<!DOCTYPE svg PUBLIC "-//W3C//DTD SVG 1.1//EN" "http://www.w3.org/Graphics/SVG/1.1/DTD/svg11.dtd">
<svg xmlns="http://www.w3.org/2000/svg" xmlns:xlink="http://www.w3.org/1999/xlink" version="1.1" baseProfile="full" width="420" height="420" viewBox="0 0 420.00 420.00" enable-background="new 0 0 420.00 420.00" xml:space="preserve">
	<path fill="#C4C4C4" fill-opacity="1" stroke-width="10" stroke-linejoin="round" d="M 51.9999,9.99976L 368,9.99976C 391.196,9.99976 410,28.8038 410,51.9998L 410,368C 410,391.196 391.196,410 368,410L 51.9999,410C 28.804,410 9.99994,391.196 9.99994,368L 9.99994,51.9998C 9.99994,28.8038 28.804,9.99976 51.9999,9.99976 Z "/>
	<g>
		<path fill="#000000" fill-opacity="1" stroke-linejoin="round" d="M 294.225,343.662L 264.93,343.662L 264.93,310.933L 264.243,310.933C 250.663,335.194 229.721,347.324 201.417,347.324C 178.454,347.324 160.106,339.18 146.373,322.892C 132.641,306.604 125.775,284.441 125.775,256.404C 125.775,226.307 133.385,202.199 148.605,184.08C 163.825,165.961 184.099,156.901 209.428,156.901C 234.528,156.901 252.78,167.124 264.186,187.57L 264.93,187.57L 264.93,72.6761L 294.225,72.6761L 294.225,343.662 Z M 264.93,260.695L 264.93,234.261C 264.93,219.842 260.018,207.616 250.196,197.584C 240.373,187.551 227.928,182.535 212.861,182.535C 194.932,182.535 180.819,188.944 170.519,201.761C 160.22,214.577 155.07,232.296 155.07,254.916C 155.07,275.553 160.01,291.841 169.89,303.781C 179.77,315.72 193.025,321.69 209.657,321.69C 226.059,321.69 239.372,315.921 249.595,304.382C 259.818,292.843 264.93,278.28 264.93,260.695 Z "/>
	</g>
</svg>
