<?xml version="1.0" encoding="utf-8"?>
<!DOCTYPE svg PUBLIC "-//W3C//DTD SVG 1.1//EN" "http://www.w3.org/Graphics/SVG/1.1/DTD/svg11.dtd">
<svg xmlns="http://www.w3.org/2000/svg" xmlns:xlink="http://www.w3.org/1999/xlink" version="1.1" baseProfile="full" width="420" height="420" viewBox="0 0 420.00 420.00" enable-background="new 0 0 420.00 420.00" xml:space="preserve">
	<path fill="#C4C4C4" fill-opacity="1" stroke-width="10" stroke-linejoin="round" d="M 51.9999,9.99976L 368,9.99976C 391.196,9.99976 410,28.8038 410,51.9998L 410,368C 410,391.196 391.196,410 368,410L 51.9999,410C 28.804,410 9.99994,391.196 9.99994,368L 9.99994,51.9998C 9.99994,28.8038 28.804,9.99976 51.9999,9.99976 Z "/>
	<g>
		<path fill="#000000" fill-opacity="1" stroke-linejoin="round" d="M 314.366,338.169L 278.261,338.169L 143.055,133.842C 139.66,128.731 136.856,123.371 134.643,117.764L 133.556,117.764C 134.472,123.257 134.93,134.987 134.93,152.953L 134.93,338.169L 105.634,338.169L 105.634,81.831L 143.856,81.831L 275.401,282.953C 280.932,291.307 284.479,297.029 286.043,300.119L 286.787,300.119C 285.643,292.719 285.07,280.15 285.07,262.412L 285.07,81.831L 314.366,81.831L 314.366,338.169 Z "/>
	</g>
</svg>
