<?xml version="1.0" encoding="utf-8"?>
<!DOCTYPE svg PUBLIC "-//W3C//DTD SVG 1.1//EN" "http://www.w3.org/Graphics/SVG/1.1/DTD/svg11.dtd">
<svg xmlns="http://www.w3.org/2000/svg" xmlns:xlink="http://www.w3.org/1999/xlink" version="1.1" baseProfile="full" width="420" height="420" viewBox="0 0 420.00 420.00" enable-background="new 0 0 420.00 420.00" xml:space="preserve">
	<path fill="#C4C4C4" fill-opacity="1" stroke-width="10" stroke-linejoin="round" d="M 51.9999,9.99976L 368,9.99976C 391.196,9.99976 410,28.8038 410,51.9998L 410,368C 410,391.196 391.196,410 368,410L 51.9999,410C 28.804,410 9.99994,391.196 9.99994,368L 9.99994,51.9998C 9.99994,28.8038 28.804,9.99976 51.9999,9.99976 Z "/>
	<g>
		<path fill="#000000" fill-opacity="1" stroke-linejoin="round" d="M 129.437,338.169L 129.437,81.831L 203.019,81.831C 225.411,81.831 243.158,87.2286 256.261,98.0238C 269.364,108.819 275.915,122.876 275.915,140.194C 275.915,154.651 271.996,167.22 264.157,177.901C 256.318,188.581 245.513,196.172 231.743,200.673L 231.743,201.417C 249.557,203.439 263.814,209.981 274.514,221.043C 285.213,232.105 290.563,246.505 290.563,264.243C 290.563,286.253 282.534,304.076 266.474,317.713C 250.415,331.35 230.16,338.169 205.709,338.169L 129.437,338.169 Z M 158.732,107.465L 158.732,191.69L 189.688,191.69C 206.243,191.69 219.26,187.656 228.739,179.588C 238.218,171.521 242.958,160.144 242.958,145.458C 242.958,120.129 226.46,107.465 193.464,107.465L 158.732,107.465 Z M 158.732,217.324L 158.732,312.535L 200.559,312.535C 218.64,312.535 232.668,308.234 242.643,299.632C 252.618,291.031 257.606,279.215 257.606,264.186C 257.606,232.945 236.454,217.324 194.151,217.324L 158.732,217.324 Z "/>
	</g>
</svg>
