<?xml version="1.0" encoding="utf-8"?>
<!DOCTYPE svg PUBLIC "-//W3C//DTD SVG 1.1//EN" "http://www.w3.org/Graphics/SVG/1.1/DTD/svg11.dtd">
<svg xmlns="http://www.w3.org/2000/svg" xmlns:xlink="http://www.w3.org/1999/xlink" version="1.1" baseProfile="full" width="420" height="420" viewBox="0 0 420.00 420.00" enable-background="new 0 0 420.00 420.00" xml:space="preserve">
	<path fill="#C4C4C4" fill-opacity="1" stroke-width="10" stroke-linejoin="round" d="M 51.9999,9.99976L 368,9.99976C 391.196,9.99976 410,28.8038 410,51.9998L 410,368C 410,391.196 391.196,410 368,410L 51.9999,410C 28.804,410 9.99994,391.196 9.99994,368L 9.99994,51.9998C 9.99994,28.8038 28.804,9.99976 51.9999,9.99976 Z "/>
	<g>
		<path fill="#000000" fill-opacity="1" stroke-linejoin="round" d="M 290.563,340L 129.437,340L 129.437,315.282C 156.291,307.119 169.718,288.58 169.718,259.666L 169.718,226.479L 133.099,226.479L 133.099,200.845L 169.718,200.845L 169.718,155.814C 169.718,133.614 176.108,115.428 188.886,101.257C 201.665,87.0856 218.182,80.0001 238.438,80.0001C 252.17,80.0001 264.663,82.5558 275.915,87.6673L 275.915,116.62C 264.281,109.296 251.979,105.634 239.01,105.634C 212.346,105.634 199.014,123.581 199.014,159.476L 199.014,200.845L 250.282,200.845L 250.282,226.479L 199.014,226.479L 199.014,254.173C 199.014,282.82 187.094,302.884 163.253,314.366L 290.563,314.366L 290.563,340 Z "/>
	</g>
</svg>
