<?xml version="1.0" encoding="utf-8"?>
<!DOCTYPE svg PUBLIC "-//W3C//DTD SVG 1.1//EN" "http://www.w3.org/Graphics/SVG/1.1/DTD/svg11.dtd">
<svg xmlns="http://www.w3.org/2000/svg" xmlns:xlink="http://www.w3.org/1999/xlink" version="1.1" baseProfile="full" width="420" height="420" viewBox="0 0 420.00 420.00" enable-background="new 0 0 420.00 420.00" xml:space="preserve">
	<path fill="#C4C4C4" fill-opacity="1" stroke-width="10" stroke-linejoin="round" d="M 51.9999,9.99976L 368,9.99976C 391.196,9.99976 410,28.8038 410,51.9998L 410,368C 410,391.196 391.196,410 368,410L 51.9999,410C 28.804,410 9.99994,391.196 9.99994,368L 9.99994,51.9998C 9.99994,28.8038 28.804,9.99976 51.9999,9.99976 Z "/>
	<g>
		<path fill="#000000" fill-opacity="1" stroke-linejoin="round" d="M 209.828,155.07C 204.297,155.07 199.586,153.077 195.695,149.091C 191.805,145.105 189.859,140.327 189.859,134.758C 189.859,129.189 191.805,124.468 195.695,120.596C 199.586,116.725 204.297,114.789 209.828,114.789C 215.474,114.789 220.271,116.725 224.219,120.596C 228.167,124.468 230.141,129.189 230.141,134.758C 230.141,140.327 228.167,145.105 224.219,149.091C 220.271,153.077 215.474,155.07 209.828,155.07 Z M 209.828,305.211C 204.297,305.211 199.586,303.237 195.695,299.289C 191.805,295.341 189.859,290.64 189.859,285.185C 189.859,279.692 191.805,274.943 195.695,270.937C 199.586,266.932 204.297,264.93 209.828,264.93C 215.474,264.93 220.271,266.932 224.219,270.937C 228.167,274.943 230.141,279.692 230.141,285.185C 230.141,290.64 228.167,295.341 224.219,299.289C 220.271,303.237 215.474,305.211 209.828,305.211 Z "/>
	</g>
</svg>
