<?xml version="1.0" encoding="utf-8"?>
<!DOCTYPE svg PUBLIC "-//W3C//DTD SVG 1.1//EN" "http://www.w3.org/Graphics/SVG/1.1/DTD/svg11.dtd">
<svg xmlns="http://www.w3.org/2000/svg" xmlns:xlink="http://www.w3.org/1999/xlink" version="1.1" baseProfile="full" width="420" height="420" viewBox="0 0 420.00 420.00" enable-background="new 0 0 420.00 420.00" xml:space="preserve">
	<path fill="#C4C4C4" fill-opacity="1" stroke-width="10" stroke-linejoin="round" d="M 51.9999,9.99976L 368,9.99976C 391.196,9.99976 410,28.8038 410,51.9998L 410,368C 410,391.196 391.196,410 368,410L 51.9999,410C 28.804,410 9.99994,391.196 9.99994,368L 9.99994,51.9998C 9.99994,28.8038 28.804,9.99976 51.9999,9.99976 Z "/>
	<g>
		<path fill="#000000" fill-opacity="1" stroke-linejoin="round" d="M 286.901,303.38L 257.606,303.38L 257.606,199.987C 257.606,161.498 243.129,142.254 214.177,142.254C 199.224,142.254 186.855,147.708 177.071,158.618C 167.287,169.528 162.394,183.317 162.394,199.987L 162.394,303.38L 133.099,303.38L 133.099,120.282L 162.394,120.282L 162.394,152.267L 163.138,152.267C 177.176,128.502 197.488,116.62 224.076,116.62C 244.407,116.62 259.961,123.066 270.737,135.96C 281.513,148.853 286.901,167.468 286.901,191.805L 286.901,303.38 Z "/>
	</g>
</svg>
