<?xml version="1.0" encoding="utf-8"?>
<!DOCTYPE svg PUBLIC "-//W3C//DTD SVG 1.1//EN" "http://www.w3.org/Graphics/SVG/1.1/DTD/svg11.dtd">
<svg xmlns="http://www.w3.org/2000/svg" xmlns:xlink="http://www.w3.org/1999/xlink" version="1.1" baseProfile="full" width="420" height="420" viewBox="0 0 420.00 420.00" enable-background="new 0 0 420.00 420.00" xml:space="preserve">
	<path fill="#C4C4C4" fill-opacity="1" stroke-width="10" stroke-linejoin="round" d="M 51.9999,9.99976L 368,9.99976C 391.196,9.99976 410,28.8038 410,51.9998L 410,368C 410,391.196 391.196,410 368,410L 51.9999,410C 28.804,410 9.99994,391.196 9.99994,368L 9.99994,51.9998C 9.99994,28.8038 28.804,9.99976 51.9999,9.99976 Z "/>
	<g>
		<path fill="#000000" fill-opacity="1" stroke-linejoin="round" d="M 217.324,334.908L 217.324,372.958L 199.014,372.958L 199.014,336.338C 173.457,336.338 152.705,331.093 136.761,320.603L 136.761,288.732C 143.703,294.95 153.201,300.167 165.255,304.382C 177.309,308.597 188.562,310.704 199.014,310.704L 199.014,220.299C 172.923,207.711 156.024,196.106 148.319,185.482C 140.613,174.858 136.761,162.299 136.761,147.804C 136.761,130.6 142.625,115.733 154.355,103.202C 166.085,90.6712 180.971,83.1661 199.014,80.6866L 199.014,47.0423L 217.324,47.0423L 217.324,80.0001C 242.042,80.7248 259.131,84.0435 268.592,89.956L 268.592,120.282C 255.736,111.203 238.647,106.32 217.324,105.634L 217.324,198.556C 242.653,210.343 259.971,221.739 269.278,232.744C 278.586,243.749 283.239,256.271 283.239,270.308C 283.239,287.207 277.422,301.397 265.788,312.879C 254.153,324.36 237.999,331.703 217.324,334.908 Z M 199.014,188.6L 199.014,106.721C 188.867,108.705 180.838,113.063 174.925,119.795C 169.013,126.528 166.056,134.701 166.056,144.313C 166.056,154.384 168.469,162.642 173.294,169.089C 178.12,175.536 186.693,182.039 199.014,188.6 Z M 217.324,229.511L 217.324,309.274C 241.737,304.315 253.944,292.089 253.944,272.597C 253.944,256.347 241.737,241.985 217.324,229.511 Z "/>
	</g>
</svg>
