<?xml version="1.0" encoding="utf-8"?>
<!DOCTYPE svg PUBLIC "-//W3C//DTD SVG 1.1//EN" "http://www.w3.org/Graphics/SVG/1.1/DTD/svg11.dtd">
<svg xmlns="http://www.w3.org/2000/svg" xmlns:xlink="http://www.w3.org/1999/xlink" version="1.1" baseProfile="full" width="420" height="420" viewBox="0 0 420.00 420.00" enable-background="new 0 0 420.00 420.00" xml:space="preserve">
	<path fill="#C4C4C4" fill-opacity="1" stroke-width="10" stroke-linejoin="round" d="M 51.9999,9.99976L 368,9.99976C 391.196,9.99976 410,28.8038 410,51.9998L 410,368C 410,391.196 391.196,410 368,410L 51.9999,410C 28.804,410 9.99994,391.196 9.99994,368L 9.99994,51.9998C 9.99994,28.8038 28.804,9.99976 51.9999,9.99976 Z "/>
	<g>
		<path fill="#000000" fill-opacity="1" stroke-linejoin="round" d="M 252.113,367.465C 215.493,367.007 197.183,348.602 197.183,312.249L 197.183,258.75C 197.183,234.756 187.418,222.168 167.887,220.986L 167.887,199.014C 187.418,197.832 197.183,184.996 197.183,160.506L 197.183,108.495C 197.183,71.6461 215.493,52.993 252.113,52.5352L 252.113,74.5071C 232.582,75.003 222.817,86.8853 222.817,110.154L 222.817,162.967C 222.817,188.181 213.776,203.668 195.695,209.428L 195.695,210.172C 213.776,215.55 222.817,230.885 222.817,256.175L 222.817,308.129C 222.817,321.404 225.001,330.893 229.368,336.595C 233.736,342.298 241.317,345.264 252.113,345.493L 252.113,367.465 Z "/>
	</g>
</svg>
