<?xml version="1.0" encoding="utf-8"?>
<!DOCTYPE svg PUBLIC "-//W3C//DTD SVG 1.1//EN" "http://www.w3.org/Graphics/SVG/1.1/DTD/svg11.dtd">
<svg xmlns="http://www.w3.org/2000/svg" xmlns:xlink="http://www.w3.org/1999/xlink" version="1.1" baseProfile="full" width="420" height="420" viewBox="0 0 420.00 420.00" enable-background="new 0 0 420.00 420.00" xml:space="preserve">
	<path fill="#C4C4C4" fill-opacity="1" stroke-width="10" stroke-linejoin="round" d="M 51.9999,9.99976L 368,9.99976C 391.196,9.99976 410,28.8038 410,51.9998L 410,368C 410,391.196 391.196,410 368,410L 51.9999,410C 28.804,410 9.99994,391.196 9.99994,368L 9.99994,51.9998C 9.99994,28.8038 28.804,9.99976 51.9999,9.99976 Z "/>
	<g>
		<path fill="#000000" fill-opacity="1" stroke-linejoin="round" d="M 277.746,85.8363L 277.746,114.789C 264.09,107.465 249.671,103.803 234.489,103.803C 210.992,103.803 192.186,113.806 178.072,133.814C 163.958,153.821 156.901,180.59 156.901,214.12L 157.645,214.12C 169.814,189.401 189.783,177.042 217.553,177.042C 240.44,177.042 258.636,184.233 272.139,198.614C 285.643,212.994 292.394,232.22 292.394,256.29C 292.394,281.466 284.746,302.017 269.45,317.942C 254.153,333.868 234.699,341.831 211.087,341.831C 185.072,341.831 164.654,331.627 149.835,311.219C 135.015,290.811 127.606,262.164 127.606,225.277C 127.606,180.571 137.38,144.876 156.93,118.193C 176.48,91.5104 202.295,78.169 234.375,78.169C 252.609,78.169 267.066,80.7248 277.746,85.8363 Z M 211.602,202.676C 195.924,202.676 183.212,207.73 173.466,217.839C 163.72,227.947 158.847,239.868 158.847,253.6C 158.847,270.88 163.691,285.633 173.38,297.859C 183.069,310.084 195.943,316.197 212.003,316.197C 227.299,316.197 239.639,310.876 249.023,300.233C 258.407,289.591 263.099,276.106 263.099,259.78C 263.099,241.928 258.597,227.947 249.595,217.839C 240.593,207.73 227.928,202.676 211.602,202.676 Z "/>
	</g>
</svg>
