<?xml version="1.0" encoding="utf-8"?>
<!DOCTYPE svg PUBLIC "-//W3C//DTD SVG 1.1//EN" "http://www.w3.org/Graphics/SVG/1.1/DTD/svg11.dtd">
<svg xmlns="http://www.w3.org/2000/svg" xmlns:xlink="http://www.w3.org/1999/xlink" version="1.1" baseProfile="full" width="740" height="420" viewBox="0 0 740.00 420.00" enable-background="new 0 0 740.00 420.00" xml:space="preserve">
	<path fill="#C4C4C4" fill-opacity="1" stroke-width="0.2" stroke-linejoin="round" d="M 52,9.99997L 688,9.99997C 711.196,9.99997 730,28.804 730,52L 730,368C 730,391.196 711.196,410 688,410L 52,410C 28.8041,410 10,391.196 10,368L 10,52C 10,28.804 28.8041,9.99997 52,9.99997 Z "/>
	<path fill="#FFFFFF" fill-opacity="1" fill-rule="evenodd" stroke-width="10" stroke-linejoin="round" stroke="#000000" stroke-opacity="1" d="M 452.558,306.164C 452.558,325.494 436.888,341.164 417.558,341.164L 320.891,341.164C 301.561,341.164 285.891,325.494 285.891,306.164L 285.891,245.451L 235.284,245.451L 234.039,245.479C 216.047,245.481 216.151,245.923 229.365,230.003C 231.499,227.433 233.019,225.668 234.074,224.514L 343.884,92.0196L 344.133,92.0196L 348.606,87.6234C 360.524,75.9074 379.848,75.9074 391.767,87.6235L 396.098,91.881L 396.377,92.2175L 507.935,226.82L 510.635,230.028C 523.849,245.947 523.952,245.505 505.961,245.503L 504.017,245.432L 504.001,245.451L 452.558,245.451L 452.558,306.164 Z "/>
</svg>
