<?xml version="1.0" encoding="utf-8"?>
<!DOCTYPE svg PUBLIC "-//W3C//DTD SVG 1.1//EN" "http://www.w3.org/Graphics/SVG/1.1/DTD/svg11.dtd">
<svg xmlns="http://www.w3.org/2000/svg" xmlns:xlink="http://www.w3.org/1999/xlink" version="1.1" baseProfile="full" width="420" height="420" viewBox="0 0 420.00 420.00" enable-background="new 0 0 420.00 420.00" xml:space="preserve">
	<path fill="#C4C4C4" fill-opacity="1" stroke-width="10" stroke-linejoin="round" d="M 51.9999,9.99976L 368,9.99976C 391.196,9.99976 410,28.8038 410,51.9998L 410,368C 410,391.196 391.196,410 368,410L 51.9999,410C 28.804,410 9.99994,391.196 9.99994,368L 9.99994,51.9998C 9.99994,28.8038 28.804,9.99976 51.9999,9.99976 Z "/>
	<g>
		<path fill="#000000" fill-opacity="1" stroke-linejoin="round" d="M 376.62,81.831L 304.067,338.169L 268.878,338.169L 216.065,150.836C 213.815,142.864 212.46,134.167 212.003,124.745L 211.259,124.745C 210.534,133.556 208.989,142.139 206.624,150.493L 153.411,338.169L 118.565,338.169L 43.3803,81.831L 76.5097,81.831L 131.096,278.433C 133.347,286.673 134.777,295.255 135.387,304.181L 136.303,304.181C 136.875,297.849 138.725,289.266 141.853,278.433L 198.556,81.831L 227.337,81.831L 281.752,279.864C 283.659,286.653 285.089,294.645 286.043,303.838L 286.787,303.838C 287.245,297.658 288.847,289.438 291.593,279.177L 344.062,81.831L 376.62,81.831 Z "/>
	</g>
</svg>
