<?xml version="1.0" encoding="utf-8"?>
<!DOCTYPE svg PUBLIC "-//W3C//DTD SVG 1.1//EN" "http://www.w3.org/Graphics/SVG/1.1/DTD/svg11.dtd">
<svg xmlns="http://www.w3.org/2000/svg" xmlns:xlink="http://www.w3.org/1999/xlink" version="1.1" baseProfile="full" width="420" height="420" viewBox="0 0 420.00 420.00" enable-background="new 0 0 420.00 420.00" xml:space="preserve">
	<path fill="#C4C4C4" fill-opacity="1" stroke-width="10" stroke-linejoin="round" d="M 51.9999,9.99976L 368,9.99976C 391.196,9.99976 410,28.8038 410,51.9998L 410,368C 410,391.196 391.196,410 368,410L 51.9999,410C 28.804,410 9.99994,391.196 9.99994,368L 9.99994,51.9998C 9.99994,28.8038 28.804,9.99976 51.9999,9.99976 Z "/>
	<g>
		<path fill="#000000" fill-opacity="1" stroke-linejoin="round" d="M 255.775,293.138C 255.775,323.349 249.671,346.647 237.465,363.03C 225.258,379.414 207.807,387.606 185.11,387.606C 176.68,387.606 168.498,385.698 160.563,381.884L 160.563,354.648C 169.489,359.53 177.939,361.972 185.911,361.972C 212.956,361.972 226.479,340.534 226.479,297.658L 226.479,116.62L 255.775,116.62L 255.775,293.138 Z M 240.955,69.0141C 235.92,69.0141 231.638,67.2976 228.11,63.8645C 224.581,60.4314 222.817,56.0828 222.817,50.8187C 222.817,45.5165 224.581,41.1202 228.11,37.6299C 231.638,34.1396 235.92,32.3944 240.955,32.3944C 246.105,32.3944 250.472,34.1396 254.058,37.6299C 257.644,41.1202 259.437,45.5165 259.437,50.8187C 259.437,55.8539 257.644,60.1453 254.058,63.6928C 250.472,67.2404 246.105,69.0141 240.955,69.0141 Z "/>
	</g>
</svg>
