<?xml version="1.0" encoding="utf-8"?>
<!DOCTYPE svg PUBLIC "-//W3C//DTD SVG 1.1//EN" "http://www.w3.org/Graphics/SVG/1.1/DTD/svg11.dtd">
<svg xmlns="http://www.w3.org/2000/svg" xmlns:xlink="http://www.w3.org/1999/xlink" version="1.1" baseProfile="full" width="24" height="22" viewBox="0 0 24.00 22.00" enable-background="new 0 0 24.00 22.00" xml:space="preserve">
	<g>
		<path fill="#000000" fill-opacity="0.933333" stroke-linejoin="round" d="M 23.0283,10.2945C 22.3121,8.55776 20.9873,7.65323 19.0538,7.65323L 16.7264,7.65323C 17.1203,6.7487 17.5499,5.44617 17.5499,3.89038C 17.5499,3.45621 17.5141,2.98585 17.4425,2.55167C 17.1203,0.706427 15.9029,-0.270468 14.1484,-0.053381C 13.4322,0.0189819 13.1816,0.670246 12.6087,2.2984C 12.1432,3.63711 11.4987,5.48236 10.532,6.96579C 9.85164,8.05123 8.59842,8.8834 7.56005,9.42612L 7.56005,9.28139L -0.138257,9.28139L -0.138257,20.8232L 7.56005,20.8232L 7.56005,20.2081C 8.77745,20.1358 9.45777,20.172 9.60099,20.2081L 10.9974,21.0403L 12.0358,21.6916C 13.0026,22.2343 17.4067,22.2705 19.2686,21.981C 21.6676,21.6554 22.2405,19.6292 22.2763,19.5569C 22.4554,18.9056 24.1383,12.9719 23.0283,10.2945 Z M 20.8441,19.1227C 20.8083,19.1951 20.4502,20.2805 19.0538,20.4976C 17.0128,20.787 13.289,20.6061 12.7161,20.3167L 11.821,19.7378L 10.1023,18.7609C 9.67261,18.6523 8.77745,18.6162 7.56005,18.6885L 7.56005,11.0543C 8.77745,10.5477 10.711,9.4623 11.821,7.79796C 12.8593,6.1698 13.5397,4.21601 14.0409,2.80494C 14.0409,2.80494 14.5064,1.7195 14.6138,1.43005C 15.3658,1.46623 15.7954,1.86423 15.9387,2.80494C 16.0103,3.16675 16.0461,3.52857 16.0461,3.8542C 16.0461,6.13362 14.8645,7.97886 14.8645,7.97886L 14.0768,9.17284L 19.0538,9.17284C 20.3786,9.17284 21.1664,9.71556 21.6318,10.8734C 22.3838,12.7186 21.3096,17.4584 20.8441,19.1227 Z "/>
		<path fill="#000000" fill-opacity="1" stroke-linejoin="round" d="M 15.4016,22.1257C 14.2916,22.0896 13.6113,22.0172 12.931,21.9087C 12.3223,21.8001 12.1432,21.7277 11.5703,21.3659C 11.2839,21.185 10.711,20.8594 10.3171,20.6061L 9.60099,20.172L 8.67004,20.172C 8.16875,20.1358 7.70327,20.1358 7.66747,20.172C 7.56005,20.2081 7.56005,20.2081 7.56005,20.4976L 7.56005,20.787L 3.7288,20.787L -0.102451,20.787L -0.102451,15.0704L -0.102451,9.31757L 3.69299,9.31757C 7.02296,9.31757 7.48844,9.31757 7.52424,9.38993C 7.56005,9.4623 7.8823,9.28139 8.59842,8.84721C 9.60099,8.15977 10.2097,7.54469 10.7826,6.60397C 11.3197,5.66326 11.9284,4.32456 12.6803,2.22604C 13.11,0.995878 13.3606,0.453161 13.6113,0.236069C 13.8619,-0.0171967 14.0768,-0.053381 14.7213,-0.0171967C 15.1509,-0.0171967 15.2942,0.0189819 15.5448,0.0913448C 16.9412,0.597885 17.5499,1.90041 17.4783,4.14365C 17.4425,5.22909 17.2993,6.09744 16.9054,7.11051C 16.798,7.39996 16.6906,7.61705 16.6906,7.65323C 16.6906,7.65323 17.2277,7.65323 17.8364,7.65323C 19.6625,7.65323 20.307,7.76178 21.0231,8.08741C 21.8467,8.4854 22.4196,9.0643 22.885,10.005C 23.5296,11.3075 23.5654,13.3699 22.9567,16.5176C 22.6702,18.0734 22.3121,19.5207 22.0615,19.991C 21.596,20.9318 20.7725,21.583 19.7341,21.8725C 18.9822,22.0534 17.2635,22.1619 15.4016,22.1257 Z M 18.5167,20.5699C 19.2686,20.4614 19.4477,20.4252 19.8415,20.2443C 20.1996,20.0634 20.5577,19.7016 20.7367,19.376C 20.9157,19.0142 21.3454,17.3136 21.596,15.8664C 21.9541,13.8402 21.9899,12.0312 21.7393,11.1266C 21.5602,10.4392 20.9873,9.71556 20.4502,9.4623C 19.8773,9.17284 19.9489,9.17284 16.9054,9.17284C 15.4016,9.17284 14.1484,9.13666 14.1484,9.13666C 14.1484,9.13666 14.3632,8.81103 14.578,8.44922C 15.3658,7.25524 15.7238,6.31453 15.9745,4.97582C 16.1177,4.07129 16.0461,2.73258 15.7954,2.18986C 15.5806,1.75569 15.2225,1.46623 14.7929,1.43005L 14.578,1.43005L 14.3274,2.00895C 14.22,2.33459 14.0051,2.91348 13.8261,3.34766C 12.9668,5.66326 12.179,7.29142 11.4987,8.19595C 10.7468,9.13666 9.56519,10.0774 8.20456,10.7286L 7.56005,11.0543L 7.56005,14.8895L 7.56005,18.6885L 8.56262,18.6885C 9.24293,18.6885 9.6368,18.6885 9.81583,18.7247C 10.0665,18.7971 11.3555,19.4845 12.2148,20.0272C 12.4297,20.172 12.6803,20.3167 12.7519,20.3529C 13.0384,20.4614 13.8261,20.5699 15.1151,20.6423C 15.688,20.6785 17.9796,20.6061 18.5167,20.5699 Z "/>
		<path fill="#B9B9B9" fill-opacity="1" stroke-linejoin="round" d="M 14.7929,20.5699C 13.2532,20.4976 12.8952,20.4252 12.3581,20.0634C 12.1074,19.9187 11.5345,19.5569 11.0332,19.2674C 9.88744,18.6162 9.92325,18.6162 8.52681,18.6523L 7.52424,18.6523L 7.56005,17.9287C 7.59585,17.5307 7.59585,15.8302 7.59585,14.1659L 7.59585,11.0905L 8.27617,10.7648C 9.45777,10.1497 10.2813,9.57084 11.069,8.73867C 12.0358,7.72559 12.8593,6.13362 13.8619,3.42002C 14.1126,2.6964 14.578,1.5386 14.6138,1.50242C 14.6855,1.43005 15.1509,1.57478 15.33,1.68332C 15.688,1.93659 15.9029,2.47931 15.9745,3.34766C 16.0461,3.92656 16.0103,4.36074 15.9029,5.04818C 15.688,6.27834 15.2584,7.3276 14.5064,8.4854C 14.2916,8.81103 14.1126,9.10048 14.0768,9.13666C 14.0768,9.17284 14.5064,9.20903 16.5832,9.20903C 19.7341,9.20903 19.9848,9.20903 20.5577,9.57084C 21.1305,9.93265 21.5602,10.5477 21.7751,11.3799C 21.8825,11.7779 21.8825,13.5508 21.7751,14.3829C 21.4886,16.4091 20.9157,19.0142 20.6293,19.4845C 20.3428,19.9187 19.8415,20.2805 19.3044,20.389C 18.6599,20.5699 16.1177,20.6785 14.7929,20.5699 Z "/>
	</g>
</svg>
