<?xml version="1.0" encoding="UTF-8" standalone="no"?>
<!-- Generator: Adobe Illustrator 16.0.4, SVG Export Plug-In . SVG Version: 6.00 Build 0)  -->

<svg
   xmlns:dc="http://purl.org/dc/elements/1.1/"
   xmlns:cc="http://creativecommons.org/ns#"
   xmlns:rdf="http://www.w3.org/1999/02/22-rdf-syntax-ns#"
   xmlns:svg="http://www.w3.org/2000/svg"
   xmlns="http://www.w3.org/2000/svg"
   xmlns:sodipodi="http://sodipodi.sourceforge.net/DTD/sodipodi-0.dtd"
   xmlns:inkscape="http://www.inkscape.org/namespaces/inkscape"
   version="1.1"
   id="Capa_1"
   x="0px"
   y="0px"
   width="23.301px"
   height="21.787px"
   viewBox="0 0 23.301 21.787"
   enable-background="new 0 0 23.301 21.787"
   xml:space="preserve"
   inkscape:version="0.48.2 r9819"
   sodipodi:docname="Flaticon_13804.svg"><metadata
   id="metadata3039"><rdf:RDF><cc:Work
       rdf:about=""><dc:format>image/svg+xml</dc:format><dc:type
         rdf:resource="http://purl.org/dc/dcmitype/StillImage" /><dc:title></dc:title></cc:Work></rdf:RDF></metadata><defs
   id="defs3037" /><sodipodi:namedview
   pagecolor="#ffffff"
   bordercolor="#666666"
   borderopacity="1"
   objecttolerance="10"
   gridtolerance="10"
   guidetolerance="10"
   inkscape:pageopacity="0"
   inkscape:pageshadow="2"
   inkscape:window-width="1049"
   inkscape:window-height="788"
   id="namedview3035"
   showgrid="false"
   inkscape:zoom="23.867443"
   inkscape:cx="11.6505"
   inkscape:cy="10.8935"
   inkscape:window-x="0"
   inkscape:window-y="0"
   inkscape:window-maximized="0"
   inkscape:current-layer="Capa_1" />
<path
   d="M22.939,10.161c-0.705-1.712-2.037-2.581-3.961-2.581c0,0-1.263,0-2.306,0c0.39-0.881,0.824-2.159,0.824-3.699  c0-0.422-0.033-0.86-0.113-1.306c-0.303-1.79-1.525-2.742-3.262-2.551c-0.688,0.079-0.924,0.732-1.494,2.315  c-0.473,1.312-1.121,3.109-2.061,4.554c-0.691,1.062-1.922,1.9-2.956,2.416V9.178H0v11.307h7.612v-0.623  c1.198-0.059,1.879-0.024,2.039,0.027l1.362,0.791l1.018,0.635c0.989,0.533,5.315,0.584,7.17,0.309  c2.385-0.348,2.961-2.303,2.985-2.387C22.374,18.589,24.015,12.772,22.939,10.161z M20.749,18.826  c-0.014,0.043-0.361,1.114-1.765,1.315c-1.996,0.297-5.698,0.117-6.247-0.145c0.004,0.003-0.903-0.566-0.903-0.566l-1.711-0.961  c-0.397-0.133-1.297-0.148-2.511-0.094v-7.448c1.226-0.496,3.125-1.561,4.208-3.218c1.036-1.59,1.718-3.481,2.216-4.864  c0,0,0.439-1.093,0.545-1.346c0.758,0.004,1.176,0.421,1.332,1.324c0.062,0.354,0.086,0.705,0.086,1.044  c0,2.241-1.151,4.025-1.168,4.047l-0.759,1.157l4.906,0.002c1.312,0,2.106,0.511,2.579,1.657  C22.301,12.535,21.221,17.188,20.749,18.826z"
   id="path3033" />
<path
   style="fill:#00aa00"
   d="M 15.383619,21.740003 C 14.269551,21.711144 13.593625,21.655177 12.932581,21.537059 12.316076,21.426898 12.150592,21.36157 11.574873,21.001078 11.296157,20.826557 10.747597,20.494809 10.35585,20.263861 L 9.6435824,19.843955 8.7306459,19.826746 c -0.5021154,-0.0095 -0.9593282,-0.0056 -1.0160284,0.0087 -0.097208,0.0244 -0.1030919,0.04257 -0.1030919,0.318363 l 0,0.292488 -3.7917761,0 -3.79177609,0 0,-5.614342 0,-5.6143428 3.76634439,0 c 3.3076706,0 3.7692789,0.00765 3.7904391,0.062789 0.02977,0.07758 0.3630535,-0.094409 1.0532716,-0.543535 1.0027182,-0.6524695 1.6130955,-1.2701716 2.1746335,-2.2007313 0.539136,-0.8934346 1.119214,-2.2208219 1.867598,-4.273604 0.443548,-1.2166308 0.689128,-1.73013549 0.936454,-1.95811313 0.252874,-0.23309076 0.433601,-0.2756625 1.075587,-0.25336374 0.425708,0.01478655 0.581021,0.03852871 0.829866,0.12685807 1.361879,0.48340969 1.989362,1.7809823 1.923762,3.9781464 -0.03168,1.0612003 -0.205668,1.9126174 -0.593548,2.9046194 -0.104979,0.2684837 -0.190871,0.4959723 -0.190871,0.5055305 0,0.00956 0.513776,0.01754 1.141723,0.017737 1.798745,5.656e-4 2.425739,0.084892 3.128881,0.4208167 0.832451,0.3977029 1.396282,0.9701551 1.839665,1.8677946 0.643232,1.3022393 0.671192,3.2888543 0.08985,6.3839323 -0.28509,1.517827 -0.658735,2.957059 -0.883351,3.402554 -0.459853,0.912054 -1.284685,1.571238 -2.29922,1.837474 -0.742636,0.194884 -2.445725,0.291437 -4.29544,0.243521 z M 18.4645,20.219465 c 0.73487,-0.08043 0.917747,-0.123506 1.296485,-0.305405 0.370024,-0.177713 0.733789,-0.518896 0.897328,-0.841625 0.180932,-0.357052 0.589789,-2.036315 0.84202,-3.458356 0.348632,-1.965538 0.410638,-3.753655 0.160787,-4.636783 -0.192551,-0.680594 -0.742438,-1.3838415 -1.276401,-1.6323863 -0.594591,-0.2767645 -0.496668,-0.268803 -3.503244,-0.2848182 -1.503617,-0.00801 -2.733849,-0.023592 -2.733849,-0.034628 0,-0.011036 0.19016,-0.3126652 0.422578,-0.6702871 0.755724,-1.1628346 1.128704,-2.0980576 1.360433,-3.4112037 0.152538,-0.8643897 0.06781,-2.1860896 -0.17479,-2.7266793 C 15.567922,1.7985419 15.197823,1.5319436 14.76219,1.5015202 l -0.202448,-0.014138 -0.22889,0.565624 C 14.204962,2.3640991 13.978574,2.9485773 13.827767,3.3518463 12.981717,5.6142457 12.189501,7.2344134 11.505102,8.10195 10.76165,9.0443416 9.5918382,9.9452681 8.2723492,10.591643 l -0.6589659,0.322806 -9.289e-4,3.734592 -9.288e-4,3.734591 0.9950793,-0.0036 c 0.6812787,-0.0025 1.0740363,0.01383 1.245456,0.05165 0.2563391,0.05654 1.5095461,0.729668 2.3668971,1.271315 0.219663,0.138776 0.465262,0.280111 0.545776,0.314077 0.260518,0.109905 1.047542,0.204389 2.325599,0.279196 0.569814,0.03335 2.839719,-0.01833 3.374167,-0.07682 l 0,0 z"
   id="path3041"
   inkscape:connector-curvature="0" /></svg>