<?xml version="1.0" encoding="UTF-8" standalone="no"?>
<!-- Generator: Adobe Illustrator 16.0.4, SVG Export Plug-In . SVG Version: 6.00 Build 0)  -->

<svg
   xmlns:dc="http://purl.org/dc/elements/1.1/"
   xmlns:cc="http://creativecommons.org/ns#"
   xmlns:rdf="http://www.w3.org/1999/02/22-rdf-syntax-ns#"
   xmlns:svg="http://www.w3.org/2000/svg"
   xmlns="http://www.w3.org/2000/svg"
   xmlns:sodipodi="http://sodipodi.sourceforge.net/DTD/sodipodi-0.dtd"
   xmlns:inkscape="http://www.inkscape.org/namespaces/inkscape"
   version="1.1"
   id="Layer_1"
   x="0px"
   y="0px"
   width="50px"
   height="50px"
   viewBox="0 0 50 50"
   enable-background="new 0 0 50 50"
   xml:space="preserve"
   inkscape:version="0.48.2 r9819"
   sodipodi:docname="Flaticon_36962.svg"><metadata
   id="metadata3050"><rdf:RDF><cc:Work
       rdf:about=""><dc:format>image/svg+xml</dc:format><dc:type
         rdf:resource="http://purl.org/dc/dcmitype/StillImage" /><dc:title></dc:title></cc:Work></rdf:RDF></metadata><defs
   id="defs3048" /><sodipodi:namedview
   pagecolor="#ffffff"
   bordercolor="#666666"
   borderopacity="1"
   objecttolerance="10"
   gridtolerance="10"
   guidetolerance="10"
   inkscape:pageopacity="0"
   inkscape:pageshadow="2"
   inkscape:window-width="999"
   inkscape:window-height="743"
   id="namedview3046"
   showgrid="false"
   inkscape:zoom="10.26"
   inkscape:cx="25"
   inkscape:cy="25"
   inkscape:window-x="0"
   inkscape:window-y="0"
   inkscape:window-maximized="0"
   inkscape:current-layer="Layer_1" />
<path
   d="M25,5.829c-10.571,0-19.171,8.6-19.171,19.171c0,10.57,8.6,19.171,19.171,19.171c10.57,0,19.171-8.601,19.171-19.171  C44.171,14.429,35.57,5.829,25,5.829z M25,40.17c-8.365,0-15.171-6.807-15.171-15.171c0-8.365,6.806-15.171,15.171-15.171  s15.171,6.806,15.171,15.171C40.171,33.363,33.365,40.17,25,40.17z M36.684,25c0,1.656-1.343,3-3,3H28v5.684c0,1.656-1.344,3-3,3  c-1.657,0-3-1.344-3-3V28h-5.684c-1.657,0-3-1.344-3-3c0-1.657,1.343-3,3-3H22v-5.683c0-1.657,1.343-3,3-3c1.656,0,3,1.343,3,3V22  h5.684C35.341,22,36.684,23.343,36.684,25z"
   id="path3044" />
<path
   style="fill:#00ff00"
   d="M 23.596491,40.051753 C 23.462476,40.028312 23.023879,39.961693 22.621832,39.903712 17.269107,39.131767 12.639815,35.235552 10.704182,29.873294 10.195892,28.465186 9.9220599,26.758974 9.9220599,25 c 0,-3.534255 1.0445241,-6.516573 3.2941581,-9.405458 2.159797,-2.77352 5.553819,-4.809808 9.134177,-5.48017 1.395629,-0.261308 4.186024,-0.2323168 5.534595,0.0575 3.412184,0.733307 6.328217,2.423218 8.493377,4.922116 2.433903,2.809064 3.69924,6.197448 3.69924,9.906009 0,1.460267 -0.106085,2.325748 -0.453975,3.703704 -1.250281,4.952219 -5.001321,8.997272 -9.841235,10.612607 -1.501832,0.501241 -2.666805,0.697911 -4.382787,0.739903 -0.8577,0.02099 -1.669103,0.01898 -1.803119,-0.0045 l 0,3e-6 z m 2.729045,-3.632436 c 0.902689,-0.468747 1.472917,-1.230132 1.649401,-2.202325 0.05917,-0.325931 0.104985,-1.801954 0.104985,-3.382062 l 0,-2.803734 3.240741,-0.02924 3.240741,-0.02924 0.487329,-0.259611 C 36.132797,27.135596 36.690446,26.214023 36.690446,25 c 0,-1.214023 -0.557649,-2.135596 -1.641713,-2.713099 l -0.487329,-0.259611 -3.240741,-0.02924 -3.240741,-0.02924 0,-2.803733 c 0,-1.580109 -0.04582,-3.056132 -0.104985,-3.382063 -0.176479,-0.972167 -0.746648,-1.73349 -1.649401,-2.202376 -0.626154,-0.325222 -1.988061,-0.328778 -2.641312,-0.0069 -0.610352,0.300744 -1.136081,0.842334 -1.441261,1.484745 l -0.254659,0.536062 -0.03038,3.188293 -0.03038,3.188294 -3.234725,0.02808 c -3.135669,0.02722 -3.248454,0.03485 -3.683054,0.248989 -1.871995,0.922402 -2.29423,3.463047 -0.817466,4.918807 0.203025,0.200137 0.570885,0.463295 0.817466,0.584795 0.4346,0.214143 0.547385,0.221768 3.683054,0.248989 l 3.234725,0.02808 0.03038,3.188294 0.03038,3.188293 0.262104,0.536062 c 0.392212,0.80216 0.937479,1.318408 1.696057,1.605793 0.59052,0.223716 1.830201,0.15702 2.379071,-0.127996 z"
   id="path3052"
   inkscape:connector-curvature="0" /></svg>