<?xml version="1.0" encoding="utf-8"?>
<!DOCTYPE svg PUBLIC "-//W3C//DTD SVG 1.1//EN" "http://www.w3.org/Graphics/SVG/1.1/DTD/svg11.dtd">
<svg xmlns="http://www.w3.org/2000/svg" xmlns:xlink="http://www.w3.org/1999/xlink" version="1.1" baseProfile="full" width="60" height="60" viewBox="0 0 60.00 60.00" enable-background="new 0 0 60.00 60.00" xml:space="preserve">
	<g>
		<ellipse fill="#FFFFFF" fill-opacity="1" stroke-linejoin="round" cx="30" cy="30" rx="28" ry="28"/>
		<g>
			<path fill="#000000" fill-opacity="1" stroke-linejoin="round" d="M 26.69,16.19C 26.77,17.9833 26.8733,20.0267 27,22.32C 27.08,24.5267 27.12,26.2333 27.12,27.44C 25.9133,27.44 24.04,27.42 21.5,27.38C 18.7067,27.2933 16.7267,27.21 15.56,27.13C 14.8133,27.0033 14.21,27.2433 13.75,27.85C 13.3767,28.4033 13.19,29.09 13.19,29.91C 13.19,30.7767 13.3767,31.4833 13.75,32.03C 14.21,32.6767 14.8133,32.9567 15.56,32.87L 27.12,32.56C 27.12,34.8533 27.1,36.75 27.06,38.25C 26.98,40.83 26.8767,42.7233 26.75,43.93C 26.5833,44.5967 26.8367,45.14 27.51,45.56C 28.11,45.9333 28.8633,46.12 29.77,46.12C 30.7233,46.12 31.5233,45.9333 32.17,45.56C 32.89,45.14 33.23,44.5967 33.19,43.93L 33.06,39.93L 32.88,32.56C 35.1267,32.56 37.27,32.58 39.31,32.62C 41.9767,32.66 43.6867,32.7433 44.44,32.87C 45.1467,32.9567 45.73,32.6767 46.19,32.03C 46.5633,31.4833 46.75,30.7967 46.75,29.97C 46.75,29.1433 46.5633,28.4567 46.19,27.91C 45.73,27.2633 45.1467,27.0033 44.44,27.13C 43.6467,27.21 41.9367,27.2733 39.31,27.32C 36.9367,27.4 34.7933,27.44 32.88,27.44L 32.81,26.38C 32.81,24.38 32.8333,22.7533 32.88,21.5C 32.92,19.38 33.0033,17.61 33.13,16.19C 33.25,15.5233 32.9933,15.0033 32.36,14.63C 31.76,14.2967 30.9833,14.13 30.03,14.13C 29.0833,14.13 28.2867,14.2967 27.64,14.63C 26.92,15.0033 26.6033,15.5233 26.69,16.19 Z "/>
		</g>
		<path fill="#00D400" fill-opacity="1" stroke-linejoin="round" d="M 30,0C 13.4532,0 0,13.4532 0,30C 0,46.5468 13.4532,60 30,60C 46.5468,60 60,46.5468 60,30C 60,13.4532 46.5468,0 30,0 Z M 30,55.1079C 16.1151,55.1079 4.89209,43.8849 4.89209,30C 4.89209,16.1871 16.1151,4.89209 30,4.89209C 43.813,4.89209 55.1079,16.1871 55.1079,30C 55.1079,43.8849 43.813,55.1079 30,55.1079 Z "/>
	</g>
</svg>
