<?xml version="1.0" encoding="utf-8"?>
<!DOCTYPE svg PUBLIC "-//W3C//DTD SVG 1.1//EN" "http://www.w3.org/Graphics/SVG/1.1/DTD/svg11.dtd">
<svg xmlns="http://www.w3.org/2000/svg" xmlns:xlink="http://www.w3.org/1999/xlink" version="1.1" baseProfile="full" width="60" height="60" viewBox="0 0 60.00 60.00" enable-background="new 0 0 60.00 60.00" xml:space="preserve">
	<g>
		<ellipse fill="#FF004D" fill-opacity="1" stroke-width="0.2" stroke-linejoin="round" cx="30" cy="30" rx="28" ry="28"/>
		<path fill="#000000" fill-opacity="1" stroke-width="0.2" stroke-linejoin="round" d="M 30,0C 13.4532,0 -2.54313e-006,13.4532 -2.54313e-006,30C -2.54313e-006,46.5468 13.4532,60 30,60C 46.5468,60 60,46.5468 60,30C 60,13.4532 46.5468,0 30,0 Z M 30,55.1079C 16.1151,55.1079 4.89208,43.8849 4.89208,30C 4.89208,16.1871 16.1151,4.89209 30,4.89209C 43.8129,4.89209 55.1079,16.1871 55.1079,30C 55.1079,43.8849 43.8129,55.1079 30,55.1079 Z "/>
	</g>
	<g>
		<path fill="#000000" fill-opacity="1" stroke-width="0.2" stroke-linejoin="round" d="M 8.88015,31.5L 8.88015,34.38L 6.96017,34.38L 6.96017,25.98L 9.91515,25.98C 12.0251,25.98 13.0801,26.8744 13.0801,28.6631C 13.0801,29.5094 12.7798,30.1938 12.1792,30.7163C 11.5786,31.2388 10.7764,31.5 9.77265,31.5L 8.88015,31.5 Z M 8.88015,27.42L 8.88015,30.06L 9.59265,30.06C 10.5576,30.06 11.0401,29.615 11.0401,28.725C 11.0401,27.855 10.5576,27.42 9.59265,27.42L 8.88015,27.42 Z "/>
		<path fill="#000000" fill-opacity="1" stroke-width="0.2" stroke-linejoin="round" d="M 18.0001,30.0019C 17.7801,29.8806 17.5232,29.82 17.2295,29.82C 16.832,29.82 16.521,29.9691 16.2967,30.2672C 16.0723,30.5653 15.9601,30.9713 15.9601,31.485L 15.9601,34.38L 14.1601,34.38L 14.1601,28.38L 15.9601,28.38L 15.9601,29.445L 15.9826,29.445C 16.2726,28.655 16.7945,28.26 17.5482,28.26C 17.7407,28.26 17.8913,28.2831 18.0001,28.3294L 18.0001,30.0019 Z "/>
		<path fill="#000000" fill-opacity="1" stroke-width="0.2" stroke-linejoin="round" d="M 21.8101,34.5C 20.8126,34.5 20.0282,34.2222 19.457,33.6665C 18.8857,33.1109 18.6001,32.3562 18.6001,31.4025C 18.6001,30.4188 18.8963,29.6491 19.4888,29.0935C 20.0813,28.5378 20.8826,28.26 21.8926,28.26C 22.8863,28.26 23.666,28.5378 24.2316,29.0935C 24.7972,29.6491 25.08,30.3844 25.08,31.2994C 25.08,32.2869 24.7885,33.0672 24.2054,33.6403C 23.6222,34.2134 22.8238,34.5 21.8101,34.5 Z M 21.8607,29.7C 21.4357,29.7 21.106,29.8463 20.8716,30.1388C 20.6373,30.4313 20.5201,30.845 20.5201,31.38C 20.5201,32.5 20.9707,33.06 21.8719,33.06C 22.7307,33.06 23.1601,32.485 23.1601,31.335C 23.1601,30.245 22.7269,29.7 21.8607,29.7 Z "/>
		<path fill="#000000" fill-opacity="1" stroke-width="0.2" stroke-linejoin="round" d="M 28.1044,33.6337L 28.08,33.6337L 28.08,34.38L 26.28,34.38L 26.28,25.5L 28.08,25.5L 28.08,29.3306L 28.1044,29.3306C 28.5669,28.6169 29.2244,28.26 30.0769,28.26C 30.8594,28.26 31.4622,28.5235 31.8853,29.0503C 32.3084,29.5772 32.52,30.2975 32.52,31.2113C 32.52,32.2025 32.2731,32.9984 31.7794,33.599C 31.2856,34.1997 30.6256,34.5 29.7994,34.5C 29.0519,34.5 28.4869,34.2112 28.1044,33.6337 Z M 28.0519,31.1588L 28.0519,31.755C 28.0519,32.1312 28.1644,32.4428 28.3894,32.6897C 28.6144,32.9366 28.9031,33.06 29.2556,33.06C 29.6819,33.06 30.0125,32.9016 30.2475,32.5847C 30.4825,32.2678 30.6,31.8187 30.6,31.2375C 30.6,30.755 30.4925,30.3781 30.2775,30.1069C 30.0625,29.8356 29.755,29.7 29.355,29.7C 28.98,29.7 28.6691,29.8347 28.4222,30.1041C 28.1753,30.3734 28.0519,30.725 28.0519,31.1588 Z "/>
		<rect x="33.72" y="25.5" fill="#000000" fill-opacity="1" stroke-width="0.2" stroke-linejoin="round" width="1.79999" height="8.87994"/>
		<path fill="#000000" fill-opacity="1" stroke-width="0.2" stroke-linejoin="round" d="M 42.3599,31.86L 38.5199,31.86C 38.5824,32.74 39.1268,33.18 40.1531,33.18C 40.8081,33.18 41.3837,33.02 41.8799,32.7L 41.8799,34.05C 41.3312,34.35 40.6187,34.5 39.7424,34.5C 38.7849,34.5 38.0418,34.2337 37.5131,33.7012C 36.9843,33.1687 36.72,32.4262 36.72,31.4737C 36.72,30.485 37.0037,29.7022 37.5712,29.1253C 38.1387,28.5485 38.8362,28.26 39.6637,28.26C 40.5224,28.26 41.1865,28.5147 41.6559,29.0241C 42.1252,29.5335 42.3599,30.2244 42.3599,31.0969L 42.3599,31.86 Z M 40.6799,30.78C 40.6799,29.98 40.3381,29.58 39.6543,29.58C 39.3631,29.58 39.1109,29.6947 38.8978,29.9241C 38.6846,30.1534 38.5549,30.4388 38.5087,30.78L 40.6799,30.78 Z "/>
		<path fill="#000000" fill-opacity="1" stroke-width="0.2" stroke-linejoin="round" d="M 53.0398,34.38L 51.2399,34.38L 51.2399,30.9938C 51.2399,30.1313 50.9117,29.7 50.2555,29.7C 49.9442,29.7 49.6905,29.8294 49.4942,30.0881C 49.298,30.3469 49.1999,30.67 49.1999,31.0575L 49.1999,34.38L 47.3999,34.38L 47.3999,30.9581C 47.3999,30.1194 47.0768,29.7 46.4305,29.7C 46.1055,29.7 45.8458,29.8238 45.6515,30.0713C 45.4571,30.3188 45.3599,30.655 45.3599,31.08L 45.3599,34.38L 43.5599,34.38L 43.5599,28.38L 45.3599,28.38L 45.3599,29.3663L 45.3843,29.3663C 45.5755,29.0388 45.8443,28.7725 46.1905,28.5675C 46.5368,28.3625 46.9149,28.26 47.3249,28.26C 48.1749,28.26 48.7561,28.6406 49.0686,29.4019C 49.5249,28.6406 50.1967,28.26 51.0842,28.26C 52.388,28.26 53.0398,29.0613 53.0398,30.6638L 53.0398,34.38 Z "/>
	</g>
</svg>
