<?xml version="1.0" encoding="UTF-8" standalone="no"?>
<!-- Generator: Adobe Illustrator 16.0.0, SVG Export Plug-In . SVG Version: 6.00 Build 0)  -->

<svg
   xmlns:dc="http://purl.org/dc/elements/1.1/"
   xmlns:cc="http://creativecommons.org/ns#"
   xmlns:rdf="http://www.w3.org/1999/02/22-rdf-syntax-ns#"
   xmlns:svg="http://www.w3.org/2000/svg"
   xmlns="http://www.w3.org/2000/svg"
   xmlns:sodipodi="http://sodipodi.sourceforge.net/DTD/sodipodi-0.dtd"
   xmlns:inkscape="http://www.inkscape.org/namespaces/inkscape"
   version="1.1"
   id="Capa_1"
   x="0px"
   y="0px"
   width="29.535px"
   height="29.534px"
   viewBox="0 0 29.535 29.534"
   style="enable-background:new 0 0 29.535 29.534;"
   xml:space="preserve"
   inkscape:version="0.48.2 r9819"
   sodipodi:docname="helpButton.svg"><metadata
   id="metadata4412"><rdf:RDF><cc:Work
       rdf:about=""><dc:format>image/svg+xml</dc:format><dc:type
         rdf:resource="http://purl.org/dc/dcmitype/StillImage" /><dc:title></dc:title></cc:Work></rdf:RDF></metadata><defs
   id="defs4410" /><sodipodi:namedview
   pagecolor="#ffffff"
   bordercolor="#666666"
   borderopacity="1"
   objecttolerance="10"
   gridtolerance="10"
   guidetolerance="10"
   inkscape:pageopacity="0"
   inkscape:pageshadow="2"
   inkscape:window-width="959"
   inkscape:window-height="724"
   id="namedview4408"
   showgrid="false"
   inkscape:zoom="7.9907902"
   inkscape:cx="19.773263"
   inkscape:cy="24.778526"
   inkscape:window-x="298"
   inkscape:window-y="47"
   inkscape:window-maximized="0"
   inkscape:current-layer="Capa_1" />
<path
   d="M14.768,0C6.611,0,0,6.609,0,14.768c0,8.155,6.611,14.767,14.768,14.767s14.768-6.612,14.768-14.767  C29.535,6.609,22.924,0,14.768,0z M14.768,27.126c-6.828,0-12.361-5.532-12.361-12.359c0-6.828,5.533-12.362,12.361-12.362  c6.826,0,12.359,5.535,12.359,12.362C27.127,21.594,21.594,27.126,14.768,27.126z"
   id="path4372"
   style="fill:#d40000" />


<g
   id="g4378">
</g>
<g
   id="g4380">
</g>
<g
   id="g4382">
</g>
<g
   id="g4384">
</g>
<g
   id="g4386">
</g>
<g
   id="g4388">
</g>
<g
   id="g4390">
</g>
<g
   id="g4392">
</g>
<g
   id="g4394">
</g>
<g
   id="g4396">
</g>
<g
   id="g4398">
</g>
<g
   id="g4400">
</g>
<g
   id="g4402">
</g>
<g
   id="g4404">
</g>
<g
   id="g4406">
</g>
<path
   style="fill:#ffffff;fill-opacity:1"
   d="M 12.652565,26.872609 C 10.799714,26.532183 9.2656371,25.887497 7.7297128,24.803812 5.3174966,23.101853 3.5217918,20.473836 2.8075717,17.600254 2.3984664,15.954267 2.4207313,13.440484 2.8590594,11.787135 4.0304216,7.3688201 7.1867235,4.1730262 11.657527,2.878579 c 0.875782,-0.2535681 1.257514,-0.2872373 3.185059,-0.2809254 2.021102,0.00662 2.2763,0.033647 3.308604,0.3504292 2.172947,0.6668089 4.382099,2.0499764 5.742409,3.5953667 4.353887,4.9462705 4.157207,12.2595225 -0.453967,16.8800985 -2.797368,2.803072 -6.996105,4.145578 -10.787067,3.449061 z m 2.725903,-2.992222 c 0.486996,-0.208371 1.027039,-0.7643 1.208174,-1.243715 0.184826,-0.489183 0.166362,-1.515883 -0.03597,-2.000132 -0.713166,-1.706844 -3.404508,-1.797707 -4.212825,-0.142231 -0.274765,0.562734 -0.32931,1.576005 -0.115326,2.142363 0.175869,0.465474 0.714532,1.030473 1.180908,1.238644 0.491412,0.219346 1.468383,0.221854 1.975038,0.0051 l 0,3e-6 z M 16.270762,17.33 c 0.134478,-1.31258 0.365447,-1.726468 2.242137,-4.017837 0.746861,-0.911889 1.111447,-1.812285 1.18075,-2.916023 C 19.771235,9.1604659 19.51901,8.3769193 18.778546,7.5533466 17.917938,6.5961428 16.40259,6.0319441 14.692298,6.0319441 c -1.541352,0 -4.229754,0.7755943 -4.229754,1.2202687 0,0.1398351 0.726218,2.6095794 0.807877,2.7474532 0.0084,0.014126 0.322772,-0.1217481 0.698678,-0.3019426 0.467934,-0.224309 0.963386,-0.3457275 1.57111,-0.3850262 1.424556,-0.092119 2.126701,0.39729 2.09876,1.4628768 -0.01567,0.59744 -0.246329,1.027088 -1.341319,2.498402 -1.218042,1.636659 -1.48784,2.284539 -1.557188,3.73936 l -0.05518,1.157583 1.749662,0 1.749663,0 0.08615,-0.840919 0,0 z"
   id="path4414"
   inkscape:connector-curvature="0" /><path
   style="fill:#ffffff;fill-opacity:1"
   d="M 12.632739,26.878837 C 6.2319032,25.661352 1.7459216,19.63207 2.5689836,13.352872 3.239518,8.2373185 6.624978,4.3356703 11.657527,2.878579 c 0.875782,-0.2535681 1.257514,-0.2872373 3.185059,-0.2809254 2.021102,0.00662 2.2763,0.033647 3.308604,0.3504292 4.900295,1.5037459 8.311931,5.5988952 8.824349,10.5922882 0.619425,6.036125 -3.299725,11.593342 -9.274602,13.151067 -1.318524,0.343756 -3.769673,0.434388 -5.068198,0.187399 l 0,0 z m 3.189964,-3.290747 c 0.713509,-0.569876 0.922454,-1.072489 0.859236,-2.066882 -0.04305,-0.677147 -0.12139,-0.931003 -0.400053,-1.296348 -0.860648,-1.128368 -2.640422,-1.239158 -3.590073,-0.223479 -0.438343,0.46882 -0.602396,0.924591 -0.602396,1.673572 0,0.74903 0.164082,1.204836 0.602396,1.673399 0.52013,0.556027 0.980435,0.717261 1.87945,0.65832 0.642527,-0.04212 0.879223,-0.121294 1.25144,-0.418582 l 0,0 z m 0.447849,-6.266794 c 0.106097,-1.07673 0.48914,-1.902514 1.357049,-2.925598 1.725761,-2.034311 2.033032,-2.683694 2.033032,-4.296572 0,-0.9506196 -0.04816,-1.2205715 -0.308742,-1.7307132 -0.814283,-1.5941018 -2.868477,-2.4884207 -5.258012,-2.289141 -1.665664,0.1389111 -3.637732,0.7853705 -3.624799,1.1882378 0.0036,0.1119753 0.186925,0.7705692 0.407402,1.4635421 l 0.400866,1.2599507 0.687608,-0.3065294 c 0.913642,-0.4072928 2.288759,-0.5118093 2.902435,-0.2206009 0.529005,0.2510294 0.787852,0.6910749 0.771578,1.3117019 -0.01548,0.590366 -0.247074,1.027811 -1.288648,2.434045 -1.319417,1.781353 -1.630973,2.566407 -1.633698,4.116577 l -0.0015,0.844723 1.735847,0 1.735847,0 0.08372,-0.849623 0,0 z"
   id="path4416"
   inkscape:connector-curvature="0" /><path
   style="fill:#ffffff;fill-opacity:1"
   d="M 12.576771,26.869208 C 5.4284492,25.516202 0.94598019,18.272911 2.97315,11.350567 4.188531,7.2003049 7.338118,4.1298794 11.665926,2.8762749 12.5321,2.6253764 12.919958,2.5913578 14.842586,2.5976536 c 2.021102,0.00662 2.2763,0.033647 3.308604,0.3504292 4.902458,1.5044098 8.311584,5.595516 8.824038,10.5892482 0.620106,6.042783 -3.294562,11.595118 -9.274291,13.154107 -1.344722,0.350586 -3.767125,0.434625 -5.124166,0.17777 z m 2.734545,-3.009007 c 0.620572,-0.259291 0.899654,-0.526111 1.173069,-1.121524 0.416699,-0.907442 0.19387,-2.251759 -0.471122,-2.842254 -1.002549,-0.890238 -2.680268,-0.727912 -3.493269,0.337986 -0.412527,0.540852 -0.55475,1.623688 -0.310474,2.363849 0.159817,0.484253 0.993203,1.282915 1.427503,1.368026 0.595506,0.116704 1.238613,0.07595 1.674293,-0.106083 z m 0.948766,-6.514971 c 0.101436,-1.086252 0.496176,-1.913381 1.458189,-3.055449 1.61473,-1.916954 2.105077,-3.067825 1.961623,-4.6040347 C 19.446968,7.1913996 16.948283,5.7075884 13.695406,6.1319368 12.465303,6.2924076 11.100549,6.6939784 10.709711,7.0104595 l -0.278157,0.2252383 0.413457,1.3465602 c 0.327549,1.0667722 0.45428,1.332983 0.60993,1.2812155 0.108059,-0.03594 0.506203,-0.178805 0.884764,-0.3174787 0.829854,-0.3039905 1.995888,-0.3344777 2.559711,-0.066927 1.013584,0.4809774 0.968841,1.8693867 -0.101224,3.1410877 -1.413327,1.679642 -2.083055,3.186873 -2.083055,4.687937 l 0,0.862826 1.733921,0 1.73392,0 0.0771,-0.825689 z"
   id="path4418"
   inkscape:connector-curvature="0" /><path
   style="fill:#ffffff;fill-opacity:1"
   d="M 12.631808,26.879223 C 10.083696,26.393071 7.9756747,25.290356 6.1632622,23.495502 1.3998935,18.778281 1.2504463,11.213049 5.8247,6.3569976 7.2836342,4.8081854 9.1274357,3.674574 11.338552,2.9669547 12.206289,2.6892548 12.719005,2.6142338 14.121315,2.559779 c 2.631639,-0.1021925 4.202957,0.2338786 6.373615,1.3631786 5.16658,2.6879504 7.682711,8.6595454 6.038852,14.3321574 -1.183395,4.083645 -4.520726,7.282511 -8.805148,8.439824 -1.229827,0.332203 -3.828963,0.426179 -5.096826,0.184284 z m 2.488467,-2.957185 c 1.782398,-0.495019 2.171008,-3.161897 0.613671,-4.211387 -0.81485,-0.549127 -2.054216,-0.501592 -2.82987,0.108538 -0.72987,0.574115 -1.017322,1.87934 -0.62217,2.82507 0.259291,0.620572 0.526111,0.899654 1.121524,1.173069 0.569925,0.26171 1.046815,0.290796 1.716845,0.10471 l 0,0 z m 1.139807,-6.576808 c 0.103344,-1.106686 0.488393,-1.883469 1.637817,-3.304065 0.52906,-0.653878 1.125194,-1.526758 1.32474,-1.939733 C 19.890967,10.718274 19.834507,9.1236384 19.076698,7.9795552 17.860457,6.143366 14.68807,5.5526407 11.660811,6.5986542 10.362492,7.0472644 10.372092,7.0251009 10.83137,8.5134174 c 0.214328,0.6945426 0.43816,1.2927628 0.497405,1.3293783 0.05925,0.036616 0.381335,-0.055148 0.715755,-0.2039178 0.870772,-0.3873733 2.335765,-0.4522552 2.9232,-0.1294635 0.726186,0.399034 0.885078,1.2634466 0.407439,2.2165846 -0.103475,0.206488 -0.540454,0.854109 -0.971065,1.439157 -1.277211,1.735282 -1.684693,2.755171 -1.687481,4.223612 l -0.0015,0.782151 1.733921,0 1.73392,0 0.0771,-0.825689 0,0 z"
   id="path4420"
   inkscape:connector-curvature="0" /><text
   xml:space="preserve"
   style="font-size:5.66149998px;font-style:normal;font-variant:normal;font-weight:bold;font-stretch:normal;text-align:start;line-height:125%;letter-spacing:0px;word-spacing:0px;writing-mode:lr-tb;text-anchor:start;fill:#000000;fill-opacity:1;stroke:none;font-family:Sans;-inkscape-font-specification:Sans Bold"
   x="3.1347749"
   y="15.37244"
   id="text3075"
   sodipodi:linespacing="125%"
   transform="scale(0.89807126,1.1134974)"><tspan
     sodipodi:role="line"
     id="tspan3077"
     x="3.1347749"
     y="15.37244">Problem</tspan></text>
<path
   style="fill:#ffffff;fill-opacity:1"
   d="M 12.632739,26.879379 C 6.2283082,25.657335 1.7463732,19.6324 2.5692599,13.351337 3.2237812,8.355402 6.3981628,4.5924791 11.338552,2.9561877 c 1.011344,-0.3349639 1.177731,-0.3523894 3.37889,-0.353866 2.176137,-0.00146 2.382338,0.019182 3.433748,0.343733 8.078353,2.4936385 11.427995,11.7351363 6.779698,18.7048503 -0.621732,0.932233 -2.060897,2.413542 -3.017662,3.106033 -0.899465,0.651019 -2.964857,1.614154 -4.129754,1.92579 -1.287415,0.344413 -3.861341,0.442683 -5.150733,0.196651 z m -1.191083,-9.720682 c 0.589504,-0.205501 0.898049,-0.803644 0.898049,-1.740948 0,-1.006614 -0.313067,-1.560646 -0.997797,-1.765796 -1.34402,-0.402679 -2.3043011,0.59284 -2.0928123,2.169606 0.1552744,1.157658 1.0835213,1.723752 2.1925603,1.337138 z m 3.874377,-0.0591 c 0.449259,-0.314675 0.65285,-0.85096 0.65285,-1.7197 0,-0.626805 -0.06212,-0.893318 -0.285446,-1.224717 -0.384635,-0.57076 -0.870796,-0.736375 -1.351598,-0.460432 l -0.365261,0.20963 0,-0.807615 0,-0.807616 -0.500576,0 -0.500577,0 0,2.440309 0,2.440309 0.500577,0 c 0.275317,0 0.500576,-0.05951 0.500576,-0.132239 0,-0.07412 0.122237,-0.04662 0.278133,0.06257 0.353746,0.247772 0.717104,0.247602 1.071322,-5.01e-4 l 0,0 z m 5.299947,0.05036 c 0.455495,-0.136469 0.48381,-0.173872 0.48381,-0.639109 0,-0.422689 -0.03167,-0.480681 -0.219002,-0.400986 -0.960733,0.40873 -1.541504,0.369294 -1.636049,-0.111091 -0.03485,-0.177054 0.09977,-0.205589 0.969867,-0.205589 l 1.010328,0 -7.51e-4,-0.344147 c -0.0013,-0.592658 -0.236544,-1.226841 -0.572341,-1.542307 -0.429924,-0.403892 -1.507471,-0.433577 -1.933976,-0.05328 -0.892057,0.795414 -0.805253,2.603715 0.153033,3.187967 0.468434,0.285595 1.036205,0.320912 1.745029,0.108542 l 5.2e-5,0 z M 4.3304845,16.35633 l 0,-0.813437 0.6353468,0 c 0.5353667,0 0.6929112,-0.05756 1.0011526,-0.365806 0.3250537,-0.325053 0.3658057,-0.451599 0.3658057,-1.135922 0,-0.684324 -0.040752,-0.81087 -0.3658057,-1.135923 C 5.6136011,12.551859 5.5604768,12.539436 4.402683,12.539436 l -1.1984951,0 0,2.315165 0,2.315165 0.5631483,0 0.5631483,0 0,-0.813436 z m 3.629178,-0.250288 c 0,-0.911591 0.037347,-1.101072 0.2611329,-1.324858 0.182898,-0.182898 0.3516163,-0.238423 0.5631483,-0.185332 0.2858859,0.07175 0.3020155,0.0456 0.3020155,-0.489731 0,-0.505072 -0.030471,-0.565533 -0.2850149,-0.565533 -0.1567581,0 -0.4101748,0.08767 -0.5631483,0.194813 -0.155896,0.109193 -0.2781335,0.136693 -0.2781335,0.06257 0,-0.07273 -0.2252593,-0.132241 -0.5005762,-0.132241 l -0.5005763,0 0,1.752017 0,1.752017 0.5005763,0 0.5005762,0 0,-1.063724 z m 9.6360935,-1.376585 0,-2.440309 -0.500576,0 -0.500577,0 0,2.440309 0,2.440309 0.500577,0 0.500576,0 0,-2.440309 z m 5.130907,1.520403 c 0,-1.088155 0.187083,-1.738533 0.483759,-1.681755 0.170548,0.03264 0.210459,0.252038 0.240197,1.320403 l 0.03566,1.281258 0.554239,0 0.554239,0 0.03582,-1.206874 c 0.02958,-0.996713 0.07457,-1.230979 0.258383,-1.345299 0.353214,-0.219682 0.461679,0.106451 0.463811,1.394591 l 0.0019,1.157582 0.511057,0 0.511057,0 -0.04177,-1.51285 c -0.04086,-1.479877 -0.04942,-1.519428 -0.392892,-1.814589 -0.422316,-0.362917 -0.832861,-0.384576 -1.227798,-0.06477 -0.287153,0.232523 -0.298285,0.232523 -0.593889,0 -0.365962,-0.287865 -0.74444,-0.302165 -1.11566,-0.04215 -0.155897,0.109193 -0.278134,0.136693 -0.278134,0.06257 0,-0.07273 -0.22526,-0.132241 -0.500577,-0.132241 l -0.500576,0 0,1.752017 0,1.752017 0.500576,0 0.500577,0 0,-0.919906 z"
   id="path4481"
   inkscape:connector-curvature="0" /><path
   style="fill:#ffffff;fill-opacity:1"
   d="M 12.632739,26.879379 C 10.107864,26.397602 7.8954049,25.231243 6.09921,23.435048 1.3745549,18.710392 1.2795733,11.121998 5.884781,6.3035945 7.317156,4.8049083 9.1411722,3.6850343 11.338552,2.955194 12.355969,2.6172682 12.50579,2.6018873 14.780014,2.6018873 c 2.267586,0 2.427016,0.016235 3.441462,0.3504439 4.961986,1.6347253 8.243792,5.6155755 8.757661,10.6230968 0.612763,5.971221 -3.281421,11.508889 -9.220308,13.111602 -1.260333,0.340123 -3.843634,0.437059 -5.12609,0.192349 l 0,0 z m -1.124016,-9.756788 c 0.524986,-0.219354 0.830982,-0.847134 0.830982,-1.704842 0,-1.2795 -0.688249,-1.985656 -1.791128,-1.837729 -0.909118,0.121939 -1.4189453,0.945814 -1.3068963,2.111929 0.1238069,1.288483 1.1131023,1.912788 2.2670423,1.430642 l 0,0 z m 3.80731,-0.02299 c 0.449259,-0.314675 0.65285,-0.85096 0.65285,-1.7197 0,-0.626805 -0.06212,-0.893318 -0.285446,-1.224717 -0.384635,-0.57076 -0.870796,-0.736375 -1.351598,-0.460432 l -0.365261,0.20963 0,-0.807615 0,-0.807616 -0.500576,0 -0.500577,0 0,2.440309 0,2.440309 0.500577,0 c 0.275317,0 0.500576,-0.05951 0.500576,-0.132239 0,-0.07412 0.122237,-0.04662 0.278133,0.06257 0.353746,0.247772 0.717104,0.247602 1.071322,-5.01e-4 l 0,0 z m 5.227764,0.05531 c 0.541555,-0.136365 0.555993,-0.152962 0.555993,-0.639109 0,-0.427407 -0.03146,-0.485724 -0.219002,-0.405939 -0.960733,0.40873 -1.541504,0.369294 -1.636049,-0.111091 -0.03485,-0.177054 0.09977,-0.205589 0.969867,-0.205589 l 1.010328,0 -0.0071,-0.406719 c -0.01188,-0.68407 -0.280335,-1.256939 -0.731022,-1.559967 -0.524555,-0.352694 -1.072543,-0.363685 -1.615898,-0.03241 -1.035313,0.631213 -1.035313,2.616116 0,3.24733 0.470729,0.286994 0.874915,0.314417 1.672846,0.113495 l -5e-6,0 z m -16.2133125,-0.79858 0,-0.813437 0.6353468,0 c 0.5353667,0 0.6929112,-0.05756 1.0011526,-0.365806 0.3250537,-0.325053 0.3658057,-0.451599 0.3658057,-1.135922 0,-0.684324 -0.040752,-0.81087 -0.3658057,-1.135923 C 5.6136011,12.551859 5.5604768,12.539436 4.402683,12.539436 l -1.1984951,0 0,2.315165 0,2.315165 0.5631483,0 0.5631483,0 0,-0.813436 z m 3.629178,-0.250288 c 0,-0.911591 0.037347,-1.101072 0.2611329,-1.324858 0.182898,-0.182898 0.3516163,-0.238423 0.5631483,-0.185332 0.2858859,0.07175 0.3020155,0.0456 0.3020155,-0.489731 0,-0.505072 -0.030471,-0.565533 -0.2850149,-0.565533 -0.1567581,0 -0.4101748,0.08767 -0.5631483,0.194813 -0.155896,0.109193 -0.2781335,0.136693 -0.2781335,0.06257 0,-0.07273 -0.2252593,-0.132241 -0.5005762,-0.132241 l -0.5005763,0 0,1.752017 0,1.752017 0.5005763,0 0.5005762,0 0,-1.063724 z m 9.6360935,-1.376585 0,-2.440309 -0.500576,0 -0.500577,0 0,2.440309 0,2.440309 0.500577,0 0.500576,0 0,-2.440309 z m 5.130907,1.520403 c 0,-1.088155 0.187083,-1.738533 0.483759,-1.681755 0.170548,0.03264 0.210459,0.252038 0.240197,1.320403 l 0.03566,1.281258 0.554239,0 0.554239,0 0.03582,-1.206874 c 0.02958,-0.996713 0.07457,-1.230979 0.258383,-1.345299 0.353214,-0.219682 0.461679,0.106451 0.463811,1.394591 l 0.0019,1.157582 0.513758,0 0.513756,0 -0.04466,-1.512731 c -0.04363,-1.477841 -0.05276,-1.519693 -0.395591,-1.814589 -0.422046,-0.363028 -0.832622,-0.384732 -1.227605,-0.06489 -0.287153,0.232523 -0.298285,0.232523 -0.593889,0 -0.365962,-0.287865 -0.74444,-0.302165 -1.11566,-0.04215 -0.155897,0.109193 -0.278134,0.136693 -0.278134,0.06257 0,-0.07273 -0.22526,-0.132241 -0.500577,-0.132241 l -0.500576,0 0,1.752017 0,1.752017 0.500576,0 0.500577,0 0,-0.919906 z"
   id="path4483"
   inkscape:connector-curvature="0" /><path
   style="fill:#ffffff;fill-opacity:1"
   d="m 14.116751,16.143585 c -0.1947,-0.1947 -0.1947,-1.256971 0,-1.451671 0.39873,-0.398731 0.850979,-0.01299 0.850979,0.725835 0,0.738824 -0.452249,1.124566 -0.850979,0.725836 z"
   id="path4485"
   inkscape:connector-curvature="0" /><path
   style="fill:#ffffff;fill-opacity:1"
   d="m 10.605339,16.304667 c -0.420064,-0.259614 -0.381657,-1.644488 0.0502,-1.810209 0.302454,-0.116062 0.683009,0.368093 0.683009,0.868946 0,0.706775 -0.361575,1.170947 -0.733213,0.941263 z"
   id="path4487"
   inkscape:connector-curvature="0" /><path
   style="fill:#ffffff;fill-opacity:1"
   d="m 4.3304845,14.041165 c 0,-0.542291 0.033372,-0.625721 0.2502882,-0.625721 0.2607312,0 0.7508644,0.408445 0.7508644,0.625721 0,0.217276 -0.4901332,0.62572 -0.7508644,0.62572 -0.2169164,0 -0.2502882,-0.08343 -0.2502882,-0.62572 z"
   id="path4489"
   inkscape:connector-curvature="0" /><path
   style="fill:#ffffff;fill-opacity:1"
   d="m 19.250935,14.769684 c 0.09543,-0.286302 0.438885,-0.411441 0.649496,-0.236649 0.314066,0.260652 0.233628,0.384138 -0.250227,0.384138 -0.288629,0 -0.430913,-0.05256 -0.399269,-0.147489 z"
   id="path4491"
   inkscape:connector-curvature="0" /><path
   style="fill:#ffffff;fill-opacity:1"
   d="M 12.840281,26.932204 C 10.387973,26.540035 7.9944665,25.308966 6.1684397,23.50063 0.76692919,18.151448 1.3820685,9.4529122 7.4838729,4.8994088 8.5718471,4.0875024 9.8061976,3.4657499 11.349821,2.9520991 c 1.004648,-0.3343032 1.160466,-0.3502118 3.430193,-0.3502118 2.269861,0 2.425998,0.015944 3.441462,0.3514196 4.985665,1.6470993 8.241571,5.592951 8.756646,10.6122331 0.546377,5.324294 -2.501491,10.412115 -7.505205,12.528481 -0.585049,0.247452 -1.429771,0.540105 -1.877161,0.650339 -0.953311,0.234892 -3.766424,0.346011 -4.755475,0.187844 z M 11.885638,16.805585 c 0.373,-0.373001 0.391495,-0.438567 0.391495,-1.387836 0,-0.949269 -0.01849,-1.014834 -0.391495,-1.387834 -0.775738,-0.775738 -2.0809958,-0.541319 -2.4943493,0.447975 -0.3948309,0.944963 -0.1229573,2.120781 0.5944343,2.570851 0.599045,0.375822 1.381014,0.275743 1.899915,-0.243156 z m 3.442899,0.285254 c 0.679454,-0.475908 0.882222,-2.153165 0.3549,-2.935658 -0.384635,-0.57076 -0.870796,-0.736375 -1.351598,-0.460432 l -0.365261,0.20963 0,-0.807615 0,-0.807616 -0.500576,0 -0.500577,0 0,2.440309 0,2.440309 0.500577,0 c 0.275317,0 0.500576,-0.05951 0.500576,-0.132239 0,-0.07412 0.122237,-0.04662 0.278133,0.06257 0.357317,0.250273 0.717686,0.247194 1.083826,-0.0093 l 0,10e-7 z m 5.517382,-0.0443 c 0.344866,-0.184566 0.378303,-1.082785 0.03487,-0.936677 -0.960733,0.40873 -1.541504,0.369294 -1.636049,-0.111091 -0.03485,-0.177054 0.09977,-0.205589 0.969867,-0.205589 l 1.010328,0 -0.0028,-0.406719 c -0.0042,-0.618538 -0.423488,-1.425572 -0.857212,-1.649859 -1.208425,-0.624901 -2.387036,0.372716 -2.230636,1.888087 0.121369,1.175948 0.757356,1.726612 1.866858,1.616405 0.324968,-0.03228 0.705093,-0.119829 0.844723,-0.194557 l 5e-6,0 z M 4.3304845,16.35633 l 0,-0.813437 0.6353468,0 c 0.5353667,0 0.6929112,-0.05756 1.0011526,-0.365806 0.3250537,-0.325053 0.3658057,-0.451599 0.3658057,-1.135922 0,-0.684324 -0.040752,-0.81087 -0.3658057,-1.135923 C 5.6136011,12.551859 5.5604768,12.539436 4.402683,12.539436 l -1.1984951,0 0,2.315165 0,2.315165 0.5631483,0 0.5631483,0 0,-0.813436 z m 3.629178,-0.250288 c 0,-0.911591 0.037347,-1.101072 0.2611329,-1.324858 0.182898,-0.182898 0.3516163,-0.238423 0.5631483,-0.185332 0.2858859,0.07175 0.3020155,0.0456 0.3020155,-0.489731 0,-0.505072 -0.030471,-0.565533 -0.2850149,-0.565533 -0.1567581,0 -0.4101748,0.08767 -0.5631483,0.194813 -0.155896,0.109193 -0.2781335,0.136693 -0.2781335,0.06257 0,-0.07273 -0.2252593,-0.132241 -0.5005762,-0.132241 l -0.5005763,0 0,1.752017 0,1.752017 0.5005763,0 0.5005762,0 0,-1.063724 z m 9.6360935,-1.376585 0,-2.440309 -0.500576,0 -0.500577,0 0,2.440309 0,2.440309 0.500577,0 0.500576,0 0,-2.440309 z m 5.130907,1.520403 c 0,-1.088155 0.187083,-1.738533 0.483759,-1.681755 0.170548,0.03264 0.210459,0.252038 0.240197,1.320403 l 0.03566,1.281258 0.554239,0 0.554239,0 0.03582,-1.206874 c 0.02958,-0.996713 0.07457,-1.230979 0.258383,-1.345299 0.353214,-0.219682 0.461679,0.106451 0.463811,1.394591 l 0.0019,1.157582 0.513758,0 0.513756,0 -0.04466,-1.512731 c -0.04363,-1.477841 -0.05276,-1.519693 -0.395591,-1.814589 -0.422046,-0.363028 -0.832622,-0.384732 -1.227605,-0.06489 -0.287153,0.232523 -0.298285,0.232523 -0.593889,0 -0.365962,-0.287865 -0.74444,-0.302165 -1.11566,-0.04215 -0.155897,0.109193 -0.278134,0.136693 -0.278134,0.06257 0,-0.07273 -0.22526,-0.132241 -0.500577,-0.132241 l -0.500576,0 0,1.752017 0,1.752017 0.500576,0 0.500577,0 0,-0.919906 z"
   id="path4493"
   inkscape:connector-curvature="0" /><path
   style="fill:#ffffff;fill-opacity:1"
   d="M 12.840281,26.932204 C 10.387973,26.540035 7.9944665,25.308966 6.1684397,23.50063 0.76156764,18.146138 1.3760119,9.457432 7.4838729,4.8994088 8.5718471,4.0875024 9.8061976,3.4657499 11.349821,2.9520991 c 1.004648,-0.3343032 1.160466,-0.3502118 3.430193,-0.3502118 2.269861,0 2.425998,0.015944 3.441462,0.3514196 0.585049,0.1932807 1.566435,0.6098402 2.18086,0.9256878 7.375589,3.7914577 8.918795,13.6576703 3.054474,19.5282353 -1.546439,1.548086 -3.601782,2.735675 -5.681715,3.28293 -1.122813,0.295425 -3.784615,0.425982 -4.934814,0.242044 z m -1.103946,-9.96664 c 0.580977,-0.517497 0.773502,-1.649246 0.423185,-2.487674 -0.196197,-0.469565 -0.840723,-0.936091 -1.294277,-0.936834 -0.45083,-7.38e-4 -1.1158293,0.326181 -1.3307659,0.654216 -0.5493331,0.838388 -0.2941273,2.384598 0.4731729,2.866803 0.479115,0.301098 1.336012,0.253258 1.728685,-0.09651 z m 3.643464,0.0771 c 0.431952,-0.339774 0.6283,-0.998064 0.563772,-1.890147 -0.08852,-1.223725 -0.776688,-1.854472 -1.583934,-1.451764 l -0.393059,0.196083 0,-0.803845 0,-0.803844 -0.500576,0 -0.500577,0 0,2.440309 0,2.440309 0.430619,0 c 0.23684,0 0.465796,-0.05692 0.508791,-0.126485 0.04948,-0.08006 0.177238,-0.0571 0.348091,0.06257 0.368746,0.258278 0.745017,0.23718 1.126873,-0.06319 l 0,0 z m 5.46612,0.0039 c 0.344866,-0.184566 0.378303,-1.082785 0.03487,-0.936677 -0.960733,0.40873 -1.541504,0.369294 -1.636049,-0.111091 -0.03485,-0.177054 0.09977,-0.205589 0.969867,-0.205589 l 1.010328,0 0,-0.411488 c 0,-0.69781 -0.490919,-1.497495 -1.046844,-1.705262 -1.427272,-0.533416 -2.551532,1.132162 -1.832926,2.715456 0.303401,0.668484 0.818134,0.932436 1.656032,0.849208 0.324968,-0.03228 0.705093,-0.119829 0.844723,-0.194557 l 0,0 z M 4.3304845,16.35633 l 0,-0.813437 0.6124858,0 c 0.5031641,0 0.6818581,-0.0648 1.0011525,-0.363069 0.3536434,-0.330352 0.3886668,-0.432712 0.3886668,-1.135923 0,-0.687348 -0.040471,-0.813325 -0.3658057,-1.138659 C 5.6136011,12.551859 5.5604768,12.539436 4.402683,12.539436 l -1.1984951,0 0,2.315165 0,2.315165 0.5631483,0 0.5631483,0 0,-0.813436 z m 3.629178,-0.250288 c 0,-0.911591 0.037347,-1.101072 0.2611329,-1.324858 0.182898,-0.182898 0.3516163,-0.238423 0.5631483,-0.185332 0.2858859,0.07175 0.3020155,0.0456 0.3020155,-0.489731 0,-0.505072 -0.030471,-0.565533 -0.2850149,-0.565533 -0.1567581,0 -0.4064781,0.08508 -0.5549332,0.189058 -0.170853,0.119671 -0.2986093,0.142636 -0.3480911,0.06257 -0.042995,-0.06957 -0.2719511,-0.126487 -0.5087914,-0.126487 l -0.4306186,0 0,1.752017 0,1.752017 0.5005763,0 0.5005762,0 0,-1.063724 z m 9.6360935,-1.376585 0,-2.440309 -0.500576,0 -0.500577,0 0,2.440309 0,2.440309 0.500577,0 0.500576,0 0,-2.440309 z m 5.130907,1.520403 c 0,-1.088155 0.187083,-1.738533 0.483759,-1.681755 0.170548,0.03264 0.210459,0.252038 0.240197,1.320403 l 0.03566,1.281258 0.554239,0 0.554239,0 0.03582,-1.206874 c 0.02958,-0.996713 0.07457,-1.230979 0.258383,-1.345299 0.353214,-0.219682 0.461679,0.106451 0.463811,1.394591 l 0.0019,1.157582 0.500576,0 0.500577,0 -7.51e-4,-1.157582 c -3.76e-4,-0.636671 -0.05889,-1.367103 -0.130007,-1.623184 -0.220386,-0.793538 -0.930832,-1.081069 -1.51079,-0.611448 -0.287153,0.232523 -0.298284,0.232523 -0.593888,0 -0.365963,-0.287865 -0.744441,-0.302165 -1.115661,-0.04215 -0.155844,0.109193 -0.278081,0.136693 -0.278081,0.06257 0,-0.07273 -0.22526,-0.132241 -0.500577,-0.132241 l -0.500576,0 0,1.752017 0,1.752017 0.500576,0 0.500577,0 0,-0.919906 z"
   id="path4495"
   inkscape:connector-curvature="0" /><path
   style="fill:#ffffff;fill-opacity:1"
   d="M 13.090569,26.981089 C 10.597616,26.523236 8.8202894,25.736756 7.0517473,24.308866 2.4881821,20.624326 1.1667534,14.242768 3.8957256,9.0675333 5.5043508,6.0169297 8.3069906,3.7925754 11.776557,2.8128014 c 0.867646,-0.2450155 3.912031,-0.349582 5.042089,-0.1731825 2.479657,0.3870686 5.334319,1.9556349 7.063248,3.8810803 1.392389,1.5506516 2.489065,3.6961448 2.916581,5.7058768 0.255685,1.201959 0.292816,3.679095 0.07128,4.755474 -0.985372,4.787706 -4.455575,8.484126 -9.120821,9.715391 -0.939887,0.248058 -3.878041,0.426962 -4.658369,0.283648 l 0,0 z M 11.675102,16.978037 c 0.453633,-0.297232 0.701301,-0.990917 0.635799,-1.780786 -0.06649,-0.801756 -0.386023,-1.276948 -1.021233,-1.51871 -1.4130211,-0.5378 -2.5436701,1.08967 -1.8486253,2.660934 0.4040205,0.913356 1.3862093,1.194094 2.2340593,0.638562 l 0,0 z m 3.704697,0.06463 c 0.93658,-0.736714 0.686342,-3.190708 -0.351937,-3.451299 -0.166197,-0.04171 -0.467813,0.0094 -0.679983,0.115253 l -0.381301,0.190218 0,-0.803845 0,-0.803844 -0.500576,0 -0.500577,0 0,2.440309 0,2.440309 0.430619,0 c 0.23684,0 0.465796,-0.05692 0.508791,-0.126485 0.04948,-0.08006 0.177238,-0.0571 0.348091,0.06257 0.368746,0.258278 0.745017,0.23718 1.126873,-0.06319 z m 5.498659,-0.01354 c 0.298915,-0.159974 0.272626,-0.953115 -0.02896,-0.873576 -0.103244,0.02723 -0.4013,0.109899 -0.662345,0.183709 -0.523179,0.147928 -0.871027,0.02225 -0.942418,-0.340488 -0.03485,-0.177054 0.09977,-0.205589 0.969867,-0.205589 0.964525,0 1.010297,-0.01276 1.00963,-0.281575 -0.0034,-1.377972 -1.068818,-2.259545 -2.173102,-1.798145 -1.199672,0.501255 -1.242975,2.774822 -0.06426,3.373675 0.447287,0.227247 1.413962,0.1976 1.891579,-0.05801 l 0,0 z M 4.3304845,16.35633 l 0,-0.813437 0.4946879,0 c 0.9929306,0 1.5076172,-0.508544 1.5076172,-1.489625 0,-1.164281 -0.4753547,-1.513832 -2.0586625,-1.513832 l -1.0699392,0 0,2.315165 0,2.315165 0.5631483,0 0.5631483,0 0,-0.813436 z m 3.629178,-0.226369 c 0,-1.179426 0.1514879,-1.507956 0.7060351,-1.531173 0.3182911,-0.01333 0.3619743,-0.06565 0.3965898,-0.475021 0.047753,-0.564741 -0.227683,-0.721535 -0.7454724,-0.424365 -0.2027941,0.116388 -0.3823461,0.151954 -0.4243136,0.08405 -0.040015,-0.06475 -0.2665325,-0.117719 -0.5033728,-0.117719 l -0.4306186,0 0,1.752017 0,1.752017 0.5005763,0 0.5005762,0 0,-1.039805 z m 9.6360935,-1.400504 0,-2.440309 -0.500576,0 -0.500577,0 0,2.440309 0,2.440309 0.500577,0 0.500576,0 0,-2.440309 z m 5.130907,1.520403 c 0,-1.088155 0.187083,-1.738533 0.483759,-1.681755 0.170548,0.03264 0.210459,0.252038 0.240197,1.320403 l 0.03566,1.281258 0.554239,0 0.554239,0 0.03582,-1.206874 c 0.02958,-0.996713 0.07457,-1.230979 0.258383,-1.345299 0.353214,-0.219682 0.461679,0.106451 0.463811,1.394591 l 0.0019,1.157582 0.500576,0 0.500577,0 -0.003,-1.09501 c -0.0016,-0.602256 -0.05518,-1.32027 -0.118967,-1.595587 -0.199609,-0.861501 -0.914472,-1.191574 -1.519542,-0.701617 -0.287153,0.232523 -0.298285,0.232523 -0.593889,0 -0.363513,-0.285939 -0.744101,-0.302402 -1.107446,-0.04791 -0.170853,0.119671 -0.298609,0.142636 -0.348091,0.06257 -0.04299,-0.06957 -0.271946,-0.126487 -0.508787,-0.126487 l -0.430618,0 0,1.752017 0,1.752017 0.500576,0 0.500577,0 0,-0.919906 z"
   id="path4497"
   inkscape:connector-curvature="0" /></svg>