<?xml version="1.0" encoding="utf-8"?>
<!DOCTYPE svg PUBLIC "-//W3C//DTD SVG 1.1//EN" "http://www.w3.org/Graphics/SVG/1.1/DTD/svg11.dtd">
<svg xmlns="http://www.w3.org/2000/svg" xmlns:xlink="http://www.w3.org/1999/xlink" version="1.1" baseProfile="full" width="60" height="60" viewBox="0 0 60.00 60.00" enable-background="new 0 0 60.00 60.00" xml:space="preserve">
	<g>
		<ellipse fill="#00CCFF" fill-opacity="1" stroke-linejoin="round" cx="30" cy="30" rx="30" ry="30"/>
		<g>
			<path fill="#000000" fill-opacity="1" stroke-linejoin="round" d="M 4.98667,36.8133L 4.98667,23.7467L 9.76417,23.7467C 11.2283,23.7467 12.3537,24.0131 13.1402,24.5459C 13.9267,25.0786 14.32,25.8292 14.32,26.7975C 14.32,27.4995 14.0808,28.1134 13.6025,28.6394C 13.1242,29.1654 12.5126,29.5314 11.7679,29.7375L 11.7679,29.7754C 12.7129,29.8902 13.4678,30.2338 14.0327,30.8065C 14.5976,31.3791 14.88,32.0767 14.88,32.8992C 14.88,34.1008 14.4483,35.0536 13.585,35.7575C 12.7217,36.4614 11.5424,36.8133 10.0471,36.8133L 4.98667,36.8133 Z M 7.97334,25.9867L 7.97334,28.9734L 9.23625,28.9734C 9.82931,28.9734 10.296,28.8314 10.6363,28.5475C 10.9765,28.2636 11.1467,27.8728 11.1467,27.375C 11.1467,26.4495 10.4476,25.9867 9.04959,25.9867L 7.97334,25.9867 Z M 7.97334,31.2134L 7.97334,34.5733L 9.55125,34.5733C 10.224,34.5733 10.7515,34.4193 11.1335,34.1111C 11.5156,33.8029 11.7067,33.3824 11.7067,32.8496C 11.7067,32.3402 11.519,31.9401 11.1438,31.6494C 10.7685,31.3587 10.2435,31.2134 9.56875,31.2134L 7.97334,31.2134 Z "/>
			<path fill="#000000" fill-opacity="1" stroke-linejoin="round" d="M 24.96,32.8933L 18.9867,32.8933C 19.0839,34.2622 19.9307,34.9467 21.5271,34.9467C 22.546,34.9467 23.4414,34.6978 24.2133,34.2L 24.2133,36.3C 23.3597,36.7667 22.2514,37 20.8883,37C 19.3989,37 18.2429,36.5858 17.4204,35.7575C 16.5979,34.9292 16.1867,33.7742 16.1867,32.2925C 16.1867,30.7545 16.6281,29.5368 17.5108,28.6394C 18.3936,27.742 19.4786,27.2933 20.7658,27.2933C 22.1017,27.2933 23.1347,27.6895 23.8648,28.4819C 24.5949,29.2743 24.96,30.349 24.96,31.7063L 24.96,32.8933 Z M 22.3467,31.2134C 22.3467,29.9689 21.8149,29.3467 20.7513,29.3467C 20.2982,29.3467 19.9059,29.5251 19.5744,29.8819C 19.2428,30.2387 19.0411,30.6825 18.9692,31.2134L 22.3467,31.2134 Z "/>
			<path fill="#000000" fill-opacity="1" stroke-linejoin="round" d="M 32.8,30.0029C 32.4578,29.8143 32.0582,29.72 31.6013,29.72C 30.9829,29.72 30.4992,29.9519 30.1502,30.4156C 29.8012,30.8794 29.6267,31.5108 29.6267,32.31L 29.6267,36.8133L 26.8267,36.8133L 26.8267,27.48L 29.6267,27.48L 29.6267,29.1367L 29.6617,29.1367C 30.1128,27.9078 30.9246,27.2933 32.0971,27.2933C 32.3965,27.2933 32.6308,27.3293 32.8,27.4013L 32.8,30.0029 Z "/>
			<path fill="#000000" fill-opacity="1" stroke-linejoin="round" d="M 42.5067,32.8933L 36.5333,32.8933C 36.6306,34.2622 37.4774,34.9467 39.0738,34.9467C 40.0926,34.9467 40.9881,34.6978 41.76,34.2L 41.76,36.3C 40.9064,36.7667 39.7981,37 38.435,37C 36.9456,37 35.7896,36.5858 34.9671,35.7575C 34.1446,34.9292 33.7333,33.7742 33.7333,32.2925C 33.7333,30.7545 34.1747,29.5368 35.0575,28.6394C 35.9403,27.742 37.0253,27.2933 38.3125,27.2933C 39.6483,27.2933 40.6813,27.6895 41.4115,28.4819C 42.1416,29.2743 42.5067,30.349 42.5067,31.7063L 42.5067,32.8933 Z M 39.8933,31.2134C 39.8933,29.9689 39.3615,29.3467 38.2979,29.3467C 37.8449,29.3467 37.4526,29.5251 37.121,29.8819C 36.7895,30.2387 36.5878,30.6825 36.5158,31.2134L 39.8933,31.2134 Z "/>
			<path fill="#000000" fill-opacity="1" stroke-linejoin="round" d="M 45.7733,25.9867C 45.3086,25.9867 44.928,25.8413 44.6315,25.5506C 44.3349,25.2599 44.1867,24.9027 44.1867,24.4788C 44.1867,24.0452 44.3349,23.6903 44.6315,23.4142C 44.928,23.1381 45.3086,23 45.7733,23C 46.2439,23 46.626,23.1381 46.9196,23.4142C 47.2132,23.6903 47.36,24.0452 47.36,24.4788C 47.36,24.9202 47.2132,25.2818 46.9196,25.5638C 46.626,25.8457 46.2439,25.9867 45.7733,25.9867 Z M 47.1733,36.8133L 44.3733,36.8133L 44.3733,27.48L 47.1733,27.48L 47.1733,36.8133 Z "/>
			<path fill="#000000" fill-opacity="1" stroke-linejoin="round" d="M 55.0133,36.6267C 54.5972,36.8756 53.9711,37 53.135,37C 51.1517,37 50.16,35.9413 50.16,33.8238L 50.16,29.5333L 48.6667,29.5333L 48.6667,27.48L 50.16,27.48L 50.16,25.4909L 52.96,24.68L 52.96,27.48L 55.0133,27.48L 55.0133,29.5333L 52.96,29.5333L 52.96,33.3017C 52.96,34.2739 53.3382,34.76 54.0946,34.76C 54.3921,34.76 54.6983,34.6978 55.0133,34.5733L 55.0133,36.6267 Z "/>
		</g>
	</g>
</svg>
