<?xml version="1.0" encoding="utf-8"?>
<!DOCTYPE svg PUBLIC "-//W3C//DTD SVG 1.1//EN" "http://www.w3.org/Graphics/SVG/1.1/DTD/svg11.dtd">
<svg xmlns="http://www.w3.org/2000/svg" xmlns:xlink="http://www.w3.org/1999/xlink" version="1.1" baseProfile="full" width="60" height="60" viewBox="0 0 60.00 60.00" enable-background="new 0 0 60.00 60.00" xml:space="preserve">
	<g>
		<ellipse fill="#00CCFF" fill-opacity="0.501961" stroke-width="0.2" stroke-linejoin="round" cx="30" cy="30" rx="30" ry="30"/>
		<g>
			<path fill="#FFFFFF" fill-opacity="1" stroke-width="0.2" stroke-linejoin="round" d="M 8.56,35.84L 8.56,24.64L 12.655,24.64C 13.91,24.64 14.8746,24.8683 15.5487,25.325C 16.2229,25.7817 16.56,26.425 16.56,27.255C 16.56,27.8567 16.355,28.3829 15.945,28.8338C 15.535,29.2846 15.0108,29.5983 14.3725,29.775L 14.3725,29.8075C 15.1825,29.9058 15.8296,30.2004 16.3137,30.6913C 16.7979,31.1821 17.04,31.78 17.04,32.485C 17.04,33.515 16.67,34.3317 15.93,34.935C 15.19,35.5383 14.1792,35.84 12.8975,35.84L 8.56,35.84 Z M 11.12,26.56L 11.12,29.12L 12.2025,29.12C 12.7108,29.12 13.1108,28.9983 13.4025,28.755C 13.6942,28.5117 13.84,28.1767 13.84,27.75C 13.84,26.9567 13.2408,26.56 12.0425,26.56L 11.12,26.56 Z M 11.12,31.04L 11.12,33.92L 12.4725,33.92C 13.0492,33.92 13.5012,33.7879 13.8287,33.5238C 14.1562,33.2596 14.32,32.8992 14.32,32.4425C 14.32,32.0058 14.1592,31.6629 13.8375,31.4138C 13.5158,31.1646 13.0658,31.04 12.4875,31.04L 11.12,31.04 Z "/>
			<path fill="#FFFFFF" fill-opacity="1" stroke-width="0.2" stroke-linejoin="round" d="M 25.68,32.48L 20.56,32.48C 20.6433,33.6533 21.3692,34.24 22.7375,34.24C 23.6108,34.24 24.3783,34.0267 25.04,33.6L 25.04,35.4C 24.3083,35.8 23.3583,36 22.19,36C 20.9133,36 19.9225,35.645 19.2175,34.935C 18.5125,34.225 18.16,33.235 18.16,31.965C 18.16,30.6467 18.5383,29.6029 19.295,28.8338C 20.0517,28.0646 20.9817,27.68 22.085,27.68C 23.23,27.68 24.1154,28.0196 24.7412,28.6988C 25.3671,29.3779 25.68,30.2992 25.68,31.4625L 25.68,32.48 Z M 23.44,31.04C 23.44,29.9733 22.9842,29.44 22.0725,29.44C 21.6842,29.44 21.3479,29.5929 21.0637,29.8988C 20.7796,30.2046 20.6067,30.585 20.545,31.04L 23.44,31.04 Z "/>
			<path fill="#FFFFFF" fill-opacity="1" stroke-width="0.2" stroke-linejoin="round" d="M 32.4,30.0025C 32.1067,29.8408 31.7642,29.76 31.3725,29.76C 30.8425,29.76 30.4279,29.9588 30.1287,30.3563C 29.8296,30.7538 29.68,31.295 29.68,31.98L 29.68,35.84L 27.28,35.84L 27.28,27.84L 29.68,27.84L 29.68,29.26L 29.71,29.26C 30.0967,28.2067 30.7925,27.68 31.7975,27.68C 32.0542,27.68 32.255,27.7108 32.4,27.7725L 32.4,30.0025 Z "/>
			<path fill="#FFFFFF" fill-opacity="1" stroke-width="0.2" stroke-linejoin="round" d="M 40.72,32.48L 35.6,32.48C 35.6833,33.6533 36.4092,34.24 37.7775,34.24C 38.6508,34.24 39.4183,34.0267 40.08,33.6L 40.08,35.4C 39.3483,35.8 38.3983,36 37.23,36C 35.9533,36 34.9625,35.645 34.2575,34.935C 33.5525,34.225 33.2,33.235 33.2,31.965C 33.2,30.6467 33.5783,29.6029 34.335,28.8338C 35.0917,28.0646 36.0217,27.68 37.125,27.68C 38.27,27.68 39.1554,28.0196 39.7812,28.6988C 40.4071,29.3779 40.72,30.2992 40.72,31.4625L 40.72,32.48 Z M 38.48,31.04C 38.48,29.9733 38.0242,29.44 37.1125,29.44C 36.7242,29.44 36.3879,29.5929 36.1037,29.8988C 35.8196,30.2046 35.6467,30.585 35.585,31.04L 38.48,31.04 Z "/>
			<path fill="#FFFFFF" fill-opacity="1" stroke-width="0.2" stroke-linejoin="round" d="M 43.52,26.56C 43.1217,26.56 42.7954,26.4354 42.5412,26.1863C 42.2871,25.9371 42.16,25.6308 42.16,25.2675C 42.16,24.8958 42.2871,24.5917 42.5412,24.355C 42.7954,24.1183 43.1217,24 43.52,24C 43.9233,24 44.2508,24.1183 44.5025,24.355C 44.7542,24.5917 44.88,24.8958 44.88,25.2675C 44.88,25.6458 44.7542,25.9558 44.5025,26.1975C 44.2508,26.4392 43.9233,26.56 43.52,26.56 Z M 44.72,35.84L 42.32,35.84L 42.32,27.84L 44.72,27.84L 44.72,35.84 Z "/>
			<path fill="#FFFFFF" fill-opacity="1" stroke-width="0.2" stroke-linejoin="round" d="M 51.44,35.68C 51.0833,35.8933 50.5467,36 49.83,36C 48.13,36 47.28,35.0925 47.28,33.2775L 47.28,29.6L 46,29.6L 46,27.84L 47.28,27.84L 47.28,26.135L 49.68,25.44L 49.68,27.84L 51.44,27.84L 51.44,29.6L 49.68,29.6L 49.68,32.83C 49.68,33.6633 50.0042,34.08 50.6525,34.08C 50.9075,34.08 51.17,34.0267 51.44,33.92L 51.44,35.68 Z "/>
		</g>
	</g>
	<path fill="#FFFFFF" fill-opacity="1" stroke-width="0.2" stroke-linejoin="round" d="M 30,0C 13.4532,0 -1.27157e-006,13.4532 -1.27157e-006,30C -1.27157e-006,46.5468 13.4532,60 30,60C 46.5468,60 60,46.5468 60,30C 60,13.4532 46.5468,0 30,0 Z M 30,55.1079C 16.1151,55.1079 4.89208,43.8849 4.89208,30C 4.89208,16.1871 16.1151,4.89209 30,4.89209C 43.8129,4.89209 55.1079,16.1871 55.1079,30C 55.1079,43.8849 43.8129,55.1079 30,55.1079 Z "/>
</svg>
