<?xml version="1.0" encoding="utf-8"?>
<!DOCTYPE svg PUBLIC "-//W3C//DTD SVG 1.1//EN" "http://www.w3.org/Graphics/SVG/1.1/DTD/svg11.dtd">
<svg xmlns="http://www.w3.org/2000/svg" xmlns:xlink="http://www.w3.org/1999/xlink" version="1.1" baseProfile="full" width="60" height="60" viewBox="0 0 60.00 60.00" enable-background="new 0 0 60.00 60.00" xml:space="preserve">
	<g>
		<ellipse fill="#00CCFF" fill-opacity="1" stroke-linejoin="round" cx="30" cy="30" rx="30" ry="30"/>
		<g>
			<path fill="#000000" fill-opacity="1" stroke-linejoin="round" d="M 14.8538,34.6667L 11.4733,34.6667L 9.51043,31.2804C 9.36459,31.0218 9.22411,30.7919 9.08897,30.5906C 8.95383,30.3894 8.81723,30.2168 8.67918,30.0729C 8.54112,29.929 8.39723,29.8187 8.24751,29.7419C 8.09779,29.6651 7.93543,29.6267 7.76043,29.6267L 6.99334,29.6267L 6.99334,34.6667L 4.00668,34.6667L 4.00668,21.6L 8.62959,21.6C 11.7699,21.6 13.34,22.7793 13.34,25.1379C 13.34,25.591 13.2715,26.0095 13.1344,26.3936C 12.9973,26.7776 12.8038,27.1237 12.554,27.4319C 12.3041,27.7401 12.0022,28.006 11.6483,28.2296C 11.2945,28.4532 10.9007,28.6282 10.4671,28.7546L 10.4671,28.7925C 10.6576,28.8528 10.8424,28.9515 11.0213,29.0886C 11.2001,29.2256 11.3727,29.3861 11.539,29.5698C 11.7052,29.7536 11.8647,29.9509 12.0173,30.1619C 12.1699,30.3729 12.3085,30.5795 12.4329,30.7817L 14.8538,34.6667 Z M 6.99334,23.84L 6.99334,27.3867L 8.19209,27.3867C 8.78515,27.3867 9.26057,27.2088 9.61834,26.8529C 9.9839,26.4913 10.1667,26.044 10.1667,25.5113C 10.1667,24.3971 9.52501,23.84 8.24168,23.84L 6.99334,23.84 Z "/>
			<path fill="#000000" fill-opacity="1" stroke-linejoin="round" d="M 23.7,30.7467L 17.7267,30.7467C 17.8239,32.1156 18.6707,32.8 20.2671,32.8C 21.286,32.8 22.1814,32.5511 22.9533,32.0533L 22.9533,34.1533C 22.0997,34.62 20.9914,34.8533 19.6283,34.8533C 18.1389,34.8533 16.9829,34.4392 16.1604,33.6108C 15.3379,32.7825 14.9267,31.6275 14.9267,30.1458C 14.9267,28.6078 15.3681,27.3901 16.2508,26.4927C 17.1336,25.5954 18.2186,25.1467 19.5058,25.1467C 20.8417,25.1467 21.8747,25.5429 22.6048,26.3352C 23.3349,27.1276 23.7,28.2024 23.7,29.5596L 23.7,30.7467 Z M 21.0867,29.0667C 21.0867,27.8222 20.5549,27.2 19.4913,27.2C 19.0382,27.2 18.6459,27.3784 18.3144,27.7352C 17.9829,28.092 17.7811,28.5358 17.7092,29.0667L 21.0867,29.0667 Z "/>
			<path fill="#000000" fill-opacity="1" stroke-linejoin="round" d="M 33.4067,34.6667L 30.6067,34.6667L 30.6067,33.2754L 30.5688,33.2754C 29.9368,34.3274 29.0015,34.8533 27.7629,34.8533C 26.849,34.8533 26.1301,34.5981 25.606,34.0877C 25.082,33.5773 24.82,32.8963 24.82,32.0446C 24.82,30.246 25.9021,29.2077 28.0663,28.9296L 30.6242,28.5942C 30.6242,27.6647 30.0671,27.2 28.9529,27.2C 27.831,27.2 26.7645,27.5111 25.7533,28.1333L 25.7533,25.94C 26.1597,25.73 26.7163,25.5453 27.4231,25.3858C 28.1299,25.2264 28.7731,25.1467 29.3525,25.1467C 32.0553,25.1467 33.4067,26.4689 33.4067,29.1133L 33.4067,34.6667 Z M 30.6242,30.8838L 30.6242,30.2742L 28.88,30.4871C 27.9156,30.6038 27.4333,31.0131 27.4333,31.715C 27.4333,32.032 27.5505,32.292 27.7848,32.4952C 28.0191,32.6984 28.3365,32.8 28.7371,32.8C 29.2951,32.8 29.7492,32.6192 30.0992,32.2575C 30.4492,31.8958 30.6242,31.4379 30.6242,30.8838 Z "/>
			<path fill="#000000" fill-opacity="1" stroke-linejoin="round" d="M 44.7933,34.6667L 41.8067,34.6667L 41.8067,33.3046L 41.7717,33.3046C 41.1242,34.3371 40.1733,34.8533 38.9192,34.8533C 37.7681,34.8533 36.8415,34.445 36.1396,33.6283C 35.4376,32.8117 35.0867,31.6713 35.0867,30.2071C 35.0867,28.6768 35.4736,27.4508 36.2475,26.5292C 37.0214,25.6075 38.0345,25.1467 39.2867,25.1467C 40.4747,25.1467 41.3031,25.59 41.7717,26.4767L 41.8067,26.4767L 41.8067,20.8533L 44.7933,20.8533L 44.7933,34.6667 Z M 41.8621,30.1254L 41.8621,29.4429C 41.8621,28.8518 41.6924,28.3613 41.3531,27.9715C 41.0138,27.5816 40.5729,27.3867 40.0304,27.3867C 39.416,27.3867 38.9362,27.6302 38.591,28.1173C 38.2459,28.6044 38.0733,29.2738 38.0733,30.1254C 38.0733,30.9227 38.2401,31.5366 38.5735,31.9673C 38.907,32.398 39.3683,32.6133 39.9575,32.6133C 40.5195,32.6133 40.9774,32.3858 41.3313,31.9308C 41.6851,31.4758 41.8621,30.874 41.8621,30.1254 Z "/>
			<path fill="#000000" fill-opacity="1" stroke-linejoin="round" d="M 55.9933,25.3333L 52.2279,35.4833C 51.3296,37.9256 49.9772,39.1467 48.1708,39.1467C 47.4825,39.1467 46.9167,39.0222 46.4733,38.7733L 46.4733,36.5333C 46.8467,36.7822 47.2521,36.9067 47.6896,36.9067C 48.411,36.9067 48.9136,36.5557 49.1975,35.8538L 49.6758,34.69L 45.9133,25.3333L 49.1013,25.3333L 50.8192,31.0442C 50.9261,31.4 51.0097,31.819 51.07,32.3013L 51.105,32.3013C 51.1594,31.9474 51.2586,31.5352 51.4025,31.0646L 53.1379,25.3333L 55.9933,25.3333 Z "/>
		</g>
	</g>
</svg>
