<?xml version="1.0" encoding="utf-8"?>
<!DOCTYPE svg PUBLIC "-//W3C//DTD SVG 1.1//EN" "http://www.w3.org/Graphics/SVG/1.1/DTD/svg11.dtd">
<svg xmlns="http://www.w3.org/2000/svg" xmlns:xlink="http://www.w3.org/1999/xlink" version="1.1" baseProfile="full" width="60" height="60" viewBox="0 0 60.00 60.00" enable-background="new 0 0 60.00 60.00" xml:space="preserve">
	<ellipse fill="#00D4D4" fill-opacity="1" stroke-linejoin="round" cx="30" cy="30" rx="28" ry="28"/>
	<path fill="#000000" fill-opacity="1" stroke-linejoin="round" d="M 30,0C 13.4532,0 -3.17891e-006,13.4532 -3.17891e-006,30C -3.17891e-006,46.5468 13.4532,60 30,60C 46.5468,60 60,46.5468 60,30C 60,13.4532 46.5468,0 30,0 Z M 30,55.1079C 16.1151,55.1079 4.89208,43.8849 4.89208,30C 4.89208,16.1871 16.1151,4.89209 30,4.89209C 43.8129,4.89209 55.1079,16.1871 55.1079,30C 55.1079,43.8849 43.8129,55.1079 30,55.1079 Z "/>
	<path fill="#000000" fill-opacity="0.952941" stroke-linejoin="round" d="M 28.5043,11.545C 18.2867,11.545 10,19.829 10,30C 10,40.1783 18.2501,48.455 28.5701,48.455L 28.5701,42.2839C 21.7535,42.2839 16.1949,36.7758 16.1949,30C 16.1949,23.2315 21.6804,17.7161 28.4823,17.7161C 35.1454,17.7161 40.5869,23.0056 40.799,29.592L 37.7491,29.592L 43.8782,38.1601L 50,29.592L 47.0013,29.592C 46.7819,19.6031 38.5756,11.545 28.5043,11.545 Z "/>
</svg>
