<?xml version="1.0" encoding="utf-8"?>
<!DOCTYPE svg PUBLIC "-//W3C//DTD SVG 1.1//EN" "http://www.w3.org/Graphics/SVG/1.1/DTD/svg11.dtd">
<svg xmlns="http://www.w3.org/2000/svg" xmlns:xlink="http://www.w3.org/1999/xlink" version="1.1" baseProfile="full" width="60" height="60" viewBox="0 0 60.00 60.00" enable-background="new 0 0 60.00 60.00" xml:space="preserve">
	<ellipse fill="#00D400" fill-opacity="0.501961" stroke-width="0.2" stroke-linejoin="round" cx="30" cy="30" rx="28" ry="28"/>
	<path fill="#FFFFFF" fill-opacity="1" stroke-width="0.2" stroke-linejoin="round" d="M 30,0C 13.4532,0 -3.17891e-006,13.4532 -3.17891e-006,30C -3.17891e-006,46.5468 13.4532,60 30,60C 46.5468,60 60,46.5468 60,30C 60,13.4532 46.5468,0 30,0 Z M 30,55.1079C 16.1151,55.1079 4.89208,43.8849 4.89208,30C 4.89208,16.1871 16.1151,4.89209 30,4.89209C 43.8129,4.89209 55.1079,16.1871 55.1079,30C 55.1079,43.8849 43.8129,55.1079 30,55.1079 Z "/>
	<g>
		<path fill="#FFFFFF" fill-opacity="1" stroke-width="0.2" stroke-linejoin="round" d="M 13.896,34.048L 12.015,34.048L 8.65082,28.8872C 8.45404,28.5853 8.31715,28.3579 8.24015,28.2052L 8.21815,28.2052C 8.24871,28.4948 8.26399,28.9379 8.26399,29.5343L 8.26399,34.048L 6.50399,34.048L 6.50399,25.8347L 8.50965,25.8347L 11.7492,30.8342C 11.897,31.0603 12.0339,31.2839 12.1598,31.5052L 12.1818,31.5052C 12.1513,31.3145 12.136,30.9387 12.136,30.3777L 12.136,25.8347L 13.896,25.8347L 13.896,34.048 Z "/>
		<path fill="#FFFFFF" fill-opacity="1" stroke-width="0.2" stroke-linejoin="round" d="M 20.8187,31.584L 17.064,31.584C 17.1251,32.4445 17.6574,32.8747 18.6608,32.8747C 19.3013,32.8747 19.8641,32.7182 20.3493,32.4053L 20.3493,33.7253C 19.8128,34.0187 19.1161,34.1653 18.2593,34.1653C 17.3231,34.1653 16.5965,33.905 16.0795,33.3843C 15.5625,32.8637 15.304,32.1377 15.304,31.2063C 15.304,30.2396 15.5814,29.4741 16.1363,28.9101C 16.6912,28.346 17.3732,28.064 18.1823,28.064C 19.022,28.064 19.6713,28.313 20.1302,28.8111C 20.5892,29.3091 20.8187,29.9847 20.8187,30.8378L 20.8187,31.584 Z M 19.176,30.528C 19.176,29.7458 18.8417,29.3547 18.1732,29.3547C 17.8884,29.3547 17.6418,29.4668 17.4334,29.6911C 17.225,29.9154 17.0982,30.1943 17.053,30.528L 19.176,30.528 Z "/>
		<path fill="#FFFFFF" fill-opacity="1" stroke-width="0.2" stroke-linejoin="round" d="M 27.5067,34.048L 25.7467,34.048L 25.7467,33.1057L 25.7173,33.1057C 25.27,33.8121 24.6711,34.1653 23.9207,34.1653C 22.5567,34.1653 21.8747,33.3458 21.8747,31.7068L 21.8747,28.1813L 23.6347,28.1813L 23.6347,31.5272C 23.6347,32.3473 23.972,32.7573 24.6467,32.7573C 24.9803,32.7573 25.2471,32.6449 25.4469,32.42C 25.6467,32.1951 25.7467,31.8896 25.7467,31.5033L 25.7467,28.1813L 27.5067,28.1813L 27.5067,34.048 Z "/>
		<path fill="#FFFFFF" fill-opacity="1" stroke-width="0.2" stroke-linejoin="round" d="M 28.5627,33.8482L 28.5627,32.288C 28.8658,32.486 29.168,32.6333 29.4692,32.7298C 29.7705,32.8264 30.055,32.8747 30.3227,32.8747C 30.6502,32.8747 30.9081,32.8368 31.0963,32.761C 31.2845,32.6852 31.3787,32.5703 31.3787,32.4163C 31.3787,32.3027 31.3359,32.2079 31.2503,32.1322C 31.1648,32.0564 31.0551,31.9901 30.9212,31.9333C 30.7874,31.8764 30.6407,31.8254 30.4812,31.7802C 30.3217,31.7349 30.168,31.6836 30.0202,31.6262C 29.783,31.5394 29.574,31.4456 29.3932,31.3448C 29.2123,31.2439 29.0607,31.1272 28.9385,30.9946C 28.8163,30.862 28.7231,30.7086 28.6589,30.5344C 28.5947,30.3603 28.5627,30.154 28.5627,29.9157C 28.5627,29.5906 28.6357,29.3104 28.7817,29.0751C 28.9278,28.8398 29.1221,28.6476 29.3647,28.4985C 29.6074,28.3494 29.8854,28.2397 30.1989,28.1694C 30.5124,28.0991 30.8384,28.064 31.177,28.064C 31.441,28.064 31.7093,28.0842 31.9818,28.1245C 32.2544,28.1648 32.5227,28.2235 32.7867,28.3005L 32.7867,29.7067C 32.5495,29.5893 32.2953,29.5013 32.024,29.4427C 31.7527,29.384 31.4862,29.3547 31.2247,29.3547C 31.1024,29.3547 30.9869,29.3635 30.8782,29.3813C 30.7694,29.399 30.6734,29.4249 30.5903,29.4592C 30.5072,29.4934 30.4418,29.5374 30.3942,29.5912C 30.3465,29.6449 30.3227,29.7061 30.3227,29.7745C 30.3227,29.8808 30.3581,29.9719 30.429,30.0477C 30.4999,30.1234 30.5925,30.1888 30.7067,30.2438C 30.821,30.2988 30.9478,30.348 31.0872,30.3914C 31.2265,30.4348 31.3652,30.4791 31.5033,30.5243C 31.7514,30.6074 31.9757,30.6982 32.1762,30.7966C 32.3766,30.895 32.5486,31.0105 32.6922,31.1431C 32.8359,31.2757 32.9462,31.4312 33.0232,31.6097C 33.1002,31.7881 33.1387,32.0002 33.1387,32.2458C 33.1387,32.5905 33.062,32.8848 32.9086,33.1286C 32.7552,33.3724 32.5514,33.571 32.2972,33.7244C 32.0429,33.8778 31.7499,33.9896 31.4181,34.0599C 31.0862,34.1302 30.7419,34.1653 30.385,34.1653C 29.7287,34.1653 29.1212,34.0596 28.5627,33.8482 Z "/>
		<path fill="#FFFFFF" fill-opacity="1" stroke-width="0.2" stroke-linejoin="round" d="M 37.5973,33.9307C 37.3358,34.0871 36.9422,34.1653 36.4167,34.1653C 35.17,34.1653 34.5467,33.4998 34.5467,32.1688L 34.5467,29.472L 33.608,29.472L 33.608,28.1813L 34.5467,28.1813L 34.5467,26.931L 36.3067,26.4213L 36.3067,28.1813L 37.5973,28.1813L 37.5973,29.472L 36.3067,29.472L 36.3067,31.8407C 36.3067,32.4518 36.5444,32.7573 37.0198,32.7573C 37.2068,32.7573 37.3993,32.7182 37.5973,32.64L 37.5973,33.9307 Z "/>
		<path fill="#FFFFFF" fill-opacity="1" stroke-width="0.2" stroke-linejoin="round" d="M 43.6987,34.048L 41.9387,34.048L 41.9387,33.1735L 41.9148,33.1735C 41.5176,33.8347 40.9297,34.1653 40.1512,34.1653C 39.5767,34.1653 39.1248,34.0049 38.7954,33.6841C 38.466,33.3633 38.3013,32.9352 38.3013,32.3998C 38.3013,31.2693 38.9815,30.6166 40.3418,30.4418L 41.9497,30.231C 41.9497,29.6468 41.5995,29.3547 40.8992,29.3547C 40.1939,29.3547 39.5235,29.5502 38.888,29.9413L 38.888,28.5627C 39.1434,28.4307 39.4933,28.3146 39.9376,28.2143C 40.3819,28.1141 40.7861,28.064 41.1503,28.064C 42.8492,28.064 43.6987,28.8951 43.6987,30.5573L 43.6987,34.048 Z M 41.9497,31.6702L 41.9497,31.287L 40.8533,31.4208C 40.2471,31.4942 39.944,31.7514 39.944,32.1927C 39.944,32.3919 40.0176,32.5554 40.1649,32.6831C 40.3122,32.8108 40.5117,32.8747 40.7635,32.8747C 41.1143,32.8747 41.3997,32.761 41.6197,32.5337C 41.8397,32.3063 41.9497,32.0185 41.9497,31.6702 Z "/>
		<path fill="#FFFFFF" fill-opacity="1" stroke-width="0.2" stroke-linejoin="round" d="M 48.8613,29.7672C 48.6462,29.6486 48.3951,29.5893 48.1078,29.5893C 47.7192,29.5893 47.4151,29.7351 47.1957,30.0266C 46.9764,30.3181 46.8667,30.715 46.8667,31.2173L 46.8667,34.048L 45.1067,34.048L 45.1067,28.1813L 46.8667,28.1813L 46.8667,29.2227L 46.8887,29.2227C 47.1722,28.4502 47.6825,28.064 48.4195,28.064C 48.6077,28.064 48.755,28.0866 48.8613,28.1318L 48.8613,29.7672 Z "/>
		<path fill="#FFFFFF" fill-opacity="1" stroke-width="0.2" stroke-linejoin="round" d="M 53.496,33.9307C 53.2344,34.0871 52.8409,34.1653 52.3153,34.1653C 51.0687,34.1653 50.4453,33.4998 50.4453,32.1688L 50.4453,29.472L 49.5067,29.472L 49.5067,28.1813L 50.4453,28.1813L 50.4453,26.931L 52.2053,26.4213L 52.2053,28.1813L 53.496,28.1813L 53.496,29.472L 52.2053,29.472L 52.2053,31.8407C 52.2053,32.4518 52.4431,32.7573 52.9185,32.7573C 53.1055,32.7573 53.298,32.7182 53.496,32.64L 53.496,33.9307 Z "/>
	</g>
</svg>
