<?xml version="1.0" encoding="utf-8"?>
<!DOCTYPE svg PUBLIC "-//W3C//DTD SVG 1.1//EN" "http://www.w3.org/Graphics/SVG/1.1/DTD/svg11.dtd">
<svg xmlns="http://www.w3.org/2000/svg" xmlns:xlink="http://www.w3.org/1999/xlink" version="1.1" baseProfile="full" width="60" height="60" viewBox="0 0 60.00 60.00" enable-background="new 0 0 60.00 60.00" xml:space="preserve">
	<ellipse fill="#000000" fill-opacity="0.501961" stroke-width="0.2" stroke-linejoin="round" cx="30" cy="30" rx="28" ry="28"/>
	<path fill="#FFFFFF" fill-opacity="1" stroke-width="0.2" stroke-linejoin="round" stroke="#FFFFFF" stroke-opacity="1" d="M 30,0C 13.4532,0 -3.17891e-006,13.4532 -3.17891e-006,30C -3.17891e-006,46.5468 13.4532,60 30,60C 46.5468,60 60,46.5468 60,30C 60,13.4532 46.5468,0 30,0 Z M 30,55.1079C 16.1151,55.1079 4.89208,43.8849 4.89208,30C 4.89208,16.1871 16.1151,4.89209 30,4.89209C 43.8129,4.89209 55.1079,16.1871 55.1079,30C 55.1079,43.8849 43.8129,55.1079 30,55.1079 Z "/>
	<path fill="#FFFFFF" fill-opacity="1" stroke-width="0.2" stroke-linejoin="round" d="M 41.2505,14.4375L 15,14.4375L 15,45.5625L 45,45.5625L 45,18.3276L 41.2505,14.4375 Z M 30,18.3276L 33.7495,18.3276L 33.7495,26.1099L 30,26.1099L 30,18.3276 Z M 41.2505,41.6724L 18.7495,41.6724L 18.7495,18.3276L 20.6242,18.3276L 20.6242,28.055L 37.499,28.055L 37.499,18.3276L 39.6955,18.3276L 41.2505,19.9409L 41.2505,41.6724 Z "/>
	<g>
		<path fill="#FFFFFF" fill-opacity="1" stroke-width="0.2" stroke-linejoin="round" d="M 26.2667,39.2667L 24.4904,39.2667L 23.3456,37.139C 23.3028,37.0602 23.2581,36.9144 23.2115,36.7015L 23.1925,36.7015C 23.1711,36.8016 23.1201,36.9538 23.0394,37.1579L 21.8902,39.2667L 20.1067,39.2667L 22.2242,36L 20.2933,32.7333L 22.1119,32.7333L 23.0598,34.6919C 23.1337,34.8474 23.1998,35.0312 23.2581,35.2431L 23.2771,35.2431C 23.314,35.1158 23.3826,34.9262 23.4827,34.6744L 24.5269,32.7333L 26.1733,32.7333L 24.2177,35.9723L 26.2667,39.2667 Z "/>
		<path fill="#FFFFFF" fill-opacity="1" stroke-width="0.2" stroke-linejoin="round" d="M 34.48,39.2667L 32.9867,39.2667L 32.9867,35.3569C 32.9867,34.9349 33.0056,34.4688 33.0435,33.9583L 33.0071,33.9583C 32.9312,34.3599 32.8627,34.6486 32.8015,34.8246L 31.2702,39.2667L 30.0671,39.2667L 28.5081,34.8698C 28.4653,34.7512 28.3968,34.4474 28.3025,33.9583L 28.2617,33.9583C 28.3006,34.6029 28.32,35.1683 28.32,35.6544L 28.32,39.2667L 27.0133,39.2667L 27.0133,32.7333L 29.1498,32.7333L 30.4842,36.6067C 30.5911,36.9158 30.6689,37.2269 30.7175,37.54L 30.7452,37.54C 30.8269,37.1783 30.9134,36.8638 31.0048,36.5965L 32.3392,32.7333L 34.48,32.7333L 34.48,39.2667 Z "/>
		<path fill="#FFFFFF" fill-opacity="1" stroke-width="0.2" stroke-linejoin="round" d="M 39.8933,39.2667L 35.9733,39.2667L 35.9733,32.7333L 37.4667,32.7333L 37.4667,38.0533L 39.8933,38.0533L 39.8933,39.2667 Z "/>
	</g>
</svg>
