<?xml version="1.0" encoding="utf-8"?>
<!DOCTYPE svg PUBLIC "-//W3C//DTD SVG 1.1//EN" "http://www.w3.org/Graphics/SVG/1.1/DTD/svg11.dtd">
<svg xmlns="http://www.w3.org/2000/svg" xmlns:xlink="http://www.w3.org/1999/xlink" version="1.1" baseProfile="full" width="60" height="60" viewBox="0 0 60.00 60.00" enable-background="new 0 0 60.00 60.00" xml:space="preserve">
	<ellipse fill="#C4C4C4" fill-opacity="1" stroke-linejoin="round" cx="30" cy="30" rx="28" ry="28"/>
	<path fill="#000000" fill-opacity="1" stroke-linejoin="round" d="M 30,0C 13.4532,0 -1.58946e-006,13.4532 -1.58946e-006,30C -1.58946e-006,46.5468 13.4532,60 30,60C 46.5468,60 60,46.5468 60,30C 60,13.4532 46.5468,0 30,0 Z M 30,55.1079C 16.1151,55.1079 4.89209,43.8849 4.89209,30C 4.89209,16.1871 16.1151,4.89209 30,4.89209C 43.8129,4.89209 55.1079,16.1871 55.1079,30C 55.1079,43.8849 43.8129,55.1079 30,55.1079 Z "/>
	<g>
		<path fill="#000000" fill-opacity="0.952941" stroke-linejoin="round" d="M 45.8763,31.5758L 44.6105,31.5758C 44.2653,31.5758 43.8626,31.2689 43.7347,30.8982C 43.6133,30.5593 43.4726,30.2205 43.3128,29.8881C 43.1402,29.5429 43.2041,29.0379 43.4471,28.795L 44.3484,27.8936C 44.9813,27.2607 44.9813,26.2315 44.3484,25.5986L 42.8845,24.1283C 42.5776,23.8214 42.1685,23.6552 41.7338,23.6552C 41.2991,23.6552 40.8964,23.8214 40.5895,24.1283L 39.6818,25.0361C 39.5411,25.1767 39.2982,25.2662 39.0361,25.2662C 38.8763,25.2662 38.7229,25.2342 38.5886,25.1703C 38.2626,25.0105 37.9238,24.8698 37.5786,24.7484C 37.2142,24.6141 36.9009,24.2178 36.9009,23.8726L 36.9009,22.6004C 36.9009,21.7055 36.1722,20.9767 35.2772,20.9767L 33.206,20.9767C 32.3046,20.9767 31.5822,21.7055 31.5822,22.6004L 31.5822,23.8726C 31.5822,24.2178 31.269,24.6141 30.8982,24.7484C 30.5594,24.8698 30.2206,25.0105 29.8881,25.1703C 29.7603,25.2278 29.6069,25.2662 29.4471,25.2662C 29.185,25.2662 28.942,25.1767 28.795,25.0297L 27.8936,24.1283C 27.5868,23.8214 27.1776,23.6552 26.7493,23.6552C 26.3146,23.6552 25.9055,23.8214 25.5986,24.1283L 24.1283,25.5986C 23.8215,25.9055 23.6553,26.3082 23.6553,26.7429C 23.6553,27.1776 23.8215,27.5867 24.1283,27.8936L 25.0361,28.795C 25.279,29.0379 25.3365,29.5429 25.1703,29.8881C 25.0105,30.2205 24.8699,30.5593 24.7484,30.8982C 24.6142,31.2689 24.2178,31.5758 23.8726,31.5758L 22.6069,31.5758C 21.7055,31.5758 20.9831,32.3046 20.9831,33.1995L 20.9831,35.2771C 20.9831,36.1721 21.7055,36.9009 22.6069,36.9009L 23.8726,36.9009C 24.2178,36.9009 24.6142,37.2077 24.7484,37.5785C 24.8699,37.9173 25.0105,38.2561 25.1703,38.5886C 25.3365,38.9402 25.279,39.4388 25.0361,39.6817L 24.1283,40.5831C 23.4955,41.216 23.4955,42.2452 24.1283,42.8845L 25.5986,44.3484C 25.9055,44.6552 26.3146,44.8278 26.7493,44.8278C 27.1776,44.8278 27.5868,44.6552 27.8936,44.3484L 28.8014,43.447C 28.942,43.3 29.185,43.2169 29.4471,43.2169C 29.6069,43.2169 29.7603,43.2488 29.8945,43.3128C 30.2206,43.4662 30.5594,43.6132 30.8982,43.7347C 31.269,43.8625 31.5822,44.2653 31.5822,44.6041L 31.5822,45.8762C 31.5822,46.7712 32.3046,47.5 33.206,47.5L 35.2772,47.5C 36.1722,47.5 36.9009,46.7712 36.9009,45.8762L 36.9009,44.6041C 36.9009,44.2653 37.2142,43.8625 37.5786,43.7347C 37.9238,43.6132 38.2626,43.4662 38.5886,43.3128C 38.7165,43.2488 38.8763,43.2169 39.0361,43.2169C 39.2982,43.2169 39.5411,43.3 39.6818,43.447L 40.5895,44.3484C 40.8964,44.6552 41.2991,44.8278 41.7338,44.8278C 42.1685,44.8278 42.5776,44.6552 42.8845,44.3484L 44.3484,42.8845C 44.9813,42.2516 44.9813,41.216 44.3484,40.5831L 43.4471,39.6817C 43.2041,39.4388 43.1402,38.9402 43.3128,38.5886C 43.4726,38.2625 43.6133,37.9173 43.7347,37.5785C 43.8626,37.2141 44.2653,36.9009 44.6105,36.9009L 45.8763,36.9009C 46.7713,36.9009 47.5,36.1721 47.5,35.2771L 47.5,33.1995C 47.5,32.3046 46.7713,31.5758 45.8763,31.5758 Z M 38.9977,34.2415C 38.9977,36.8625 36.8626,38.9977 34.2416,38.9977C 31.6142,38.9977 29.479,36.8625 29.479,34.2415C 29.479,31.6141 31.6142,29.479 34.2416,29.479C 36.8626,29.479 38.9977,31.6141 38.9977,34.2415 Z "/>
		<path fill="#000000" fill-opacity="0.952941" stroke-linejoin="round" d="M 24.4032,21.1621C 24.4352,21.0726 24.5375,21.0023 24.5822,21.0023L 25.2215,21.0023C 25.816,21.0023 26.3018,20.5164 26.3018,19.9155L 26.3018,18.8799C 26.3018,18.2854 25.816,17.7995 25.2215,17.7995L 24.5822,17.7995C 24.5375,17.7995 24.4352,17.7228 24.4032,17.6397C 24.3393,17.4607 24.2626,17.2817 24.1795,17.1091C 24.1411,17.026 24.1603,16.9045 24.1923,16.8726L 24.6461,16.4187C 25.0681,15.9968 25.0681,15.3064 24.6461,14.8845L 23.911,14.1557C 23.7064,13.9511 23.4379,13.8361 23.1502,13.8361C 22.8562,13.8361 22.5877,13.9511 22.3831,14.1557L 21.9292,14.6032C 21.9165,14.6224 21.8653,14.6415 21.8014,14.6415C 21.7566,14.6415 21.7183,14.6351 21.6927,14.6224C 21.5201,14.5392 21.3411,14.4625 21.1621,14.3986C 21.0726,14.3666 21.0023,14.2644 21.0023,14.2196L 21.0023,13.5803C 21.0023,12.9858 20.5165,12.5 19.9219,12.5L 18.8799,12.5C 18.2854,12.5 17.7996,12.9858 17.7996,13.5803L 17.7996,14.2196C 17.7996,14.2644 17.7292,14.3666 17.6397,14.3986C 17.4608,14.4625 17.2818,14.5392 17.1092,14.6224C 17.0836,14.6351 17.0452,14.6415 17.0005,14.6415C 16.9366,14.6415 16.8854,14.6224 16.8726,14.6032L 16.4187,14.1557C 16.2142,13.9511 15.9457,13.8361 15.6516,13.8361C 15.3639,13.8361 15.0955,13.9511 14.8909,14.1557L 14.1557,14.8845C 13.7338,15.3128 13.7338,15.9968 14.1557,16.4187L 14.6096,16.8726C 14.6416,16.9045 14.6608,17.026 14.6224,17.1091C 14.5393,17.2817 14.4626,17.4607 14.3987,17.6397C 14.3667,17.7228 14.2644,17.7995 14.2197,17.7995L 13.5804,17.7995C 12.9859,17.7995 12.5,18.2854 12.5,18.8799L 12.5,19.9219C 12.5,20.5164 12.9859,21.0023 13.5804,21.0023L 14.2197,21.0023C 14.2644,21.0023 14.3667,21.0726 14.3987,21.1621C 14.4626,21.3411 14.5393,21.5201 14.6224,21.6927C 14.6608,21.7758 14.6416,21.8972 14.6096,21.9292L 14.1557,22.3831C 13.9512,22.5877 13.8361,22.8561 13.8361,23.1502C 13.8361,23.4379 13.9512,23.7064 14.1557,23.9109L 14.8909,24.6461C 15.0955,24.8507 15.3639,24.9657 15.6516,24.9657C 15.9457,24.9657 16.2142,24.8507 16.4187,24.6461L 16.8726,24.1922C 16.8854,24.1794 16.9366,24.1603 17.0005,24.1603C 17.0452,24.1603 17.0836,24.1666 17.1092,24.1794C 17.2818,24.2625 17.4608,24.3393 17.6397,24.4032C 17.7292,24.4287 17.7996,24.5374 17.7996,24.5822L 17.7996,25.215C 17.7996,25.816 18.2854,26.3018 18.8799,26.3018L 19.9219,26.3018C 20.5165,26.3018 21.0023,25.816 21.0023,25.215L 21.0023,24.5822C 21.0023,24.5374 21.0726,24.4287 21.1621,24.4032C 21.3411,24.3393 21.5201,24.2625 21.6927,24.1794C 21.7183,24.1666 21.7566,24.1603 21.8014,24.1603C 21.8653,24.1603 21.9165,24.1794 21.9292,24.1922L 22.3831,24.6461C 22.5877,24.8507 22.8562,24.9657 23.1502,24.9657C 23.4379,24.9657 23.7064,24.8507 23.911,24.6461L 24.6461,23.9109C 25.0681,23.489 25.0681,22.805 24.6461,22.3831L 24.1923,21.9292C 24.1603,21.8972 24.1411,21.7758 24.1795,21.6927C 24.2626,21.5201 24.3393,21.3411 24.4032,21.1621 Z M 21.5073,19.3977C 21.5073,20.5612 20.5612,21.5073 19.4041,21.5073C 18.2407,21.5073 17.2945,20.5612 17.2945,19.3977C 17.2945,18.2342 18.2407,17.2881 19.4041,17.2881C 20.5612,17.2881 21.5073,18.2342 21.5073,19.3977 Z "/>
	</g>
</svg>
