<?xml version="1.0" encoding="utf-8"?>
<!DOCTYPE svg PUBLIC "-//W3C//DTD SVG 1.1//EN" "http://www.w3.org/Graphics/SVG/1.1/DTD/svg11.dtd">
<svg xmlns="http://www.w3.org/2000/svg" xmlns:xlink="http://www.w3.org/1999/xlink" version="1.1" baseProfile="full" width="60" height="60" viewBox="0 0 60.00 60.00" enable-background="new 0 0 60.00 60.00" xml:space="preserve">
	<ellipse fill="#C4C4C4" fill-opacity="1" stroke-width="0.2" stroke-linejoin="round" cx="30" cy="30" rx="28" ry="28"/>
	<path fill="#000000" fill-opacity="1" stroke-width="0.2" stroke-linejoin="round" d="M 30,0C 13.4532,0 -1.58946e-006,13.4532 -1.58946e-006,30C -1.58946e-006,46.5468 13.4532,60 30,60C 46.5468,60 60,46.5468 60,30C 60,13.4532 46.5468,0 30,0 Z M 30,55.1079C 16.1151,55.1079 4.89208,43.8849 4.89208,30C 4.89208,16.1871 16.1151,4.89209 30,4.89209C 43.8129,4.89209 55.1079,16.1871 55.1079,30C 55.1079,43.8849 43.8129,55.1079 30,55.1079 Z "/>
	<g>
		<path fill="#000000" fill-opacity="0.952941" stroke-width="0.2" stroke-linejoin="round" d="M 45.877,31.5754L 44.6112,31.5754C 44.266,31.5754 43.8633,31.2686 43.7354,30.8978C 43.614,30.559 43.4733,30.2201 43.3135,29.8877C 43.1409,29.5425 43.2048,29.0375 43.4477,28.7945L 44.3491,27.8932C 44.982,27.2603 44.982,26.231 44.3491,25.5981L 42.8852,24.1278C 42.5783,23.8209 42.1692,23.6547 41.7345,23.6547C 41.2997,23.6547 40.897,23.8209 40.5901,24.1278L 39.6824,25.0356C 39.5417,25.1762 39.2988,25.2657 39.0367,25.2657C 38.8769,25.2657 38.7234,25.2337 38.5892,25.1698C 38.2631,25.01 37.9243,24.8693 37.5791,24.7479C 37.2147,24.6136 36.9015,24.2173 36.9015,23.8721L 36.9015,22.5999C 36.9015,21.7049 36.1727,20.9761 35.2777,20.9761L 33.2064,20.9761C 32.305,20.9761 31.5826,21.7049 31.5826,22.5999L 31.5826,23.8721C 31.5826,24.2173 31.2694,24.6136 30.8986,24.7479C 30.5598,24.8693 30.221,25.01 29.8885,25.1698C 29.7607,25.2273 29.6072,25.2657 29.4474,25.2657C 29.1853,25.2657 28.9424,25.1762 28.7954,25.0292L 27.894,24.1278C 27.5871,23.8209 27.178,23.6547 26.7496,23.6547C 26.3149,23.6547 25.9058,23.8209 25.5989,24.1278L 24.1286,25.5981C 23.8217,25.905 23.6555,26.3077 23.6555,26.7424C 23.6555,27.1772 23.8217,27.5863 24.1286,27.8932L 25.0364,28.7945C 25.2793,29.0375 25.3368,29.5425 25.1706,29.8877C 25.0108,30.2201 24.8702,30.559 24.7487,30.8978C 24.6144,31.2686 24.2181,31.5754 23.8729,31.5754L 22.6071,31.5754C 21.7057,31.5754 20.9833,32.3042 20.9833,33.1992L 20.9833,35.2769C 20.9833,36.1719 21.7057,36.9007 22.6071,36.9007L 23.8729,36.9007C 24.2181,36.9007 24.6144,37.2075 24.7487,37.5783C 24.8702,37.9171 25.0108,38.2559 25.1706,38.5884C 25.3368,38.94 25.2793,39.4386 25.0364,39.6815L 24.1286,40.5829C 23.4957,41.2158 23.4957,42.2451 24.1286,42.8844L 25.5989,44.3483C 25.9058,44.6552 26.3149,44.8278 26.7496,44.8278C 27.178,44.8278 27.5871,44.6552 27.894,44.3483L 28.8018,43.4469C 28.9424,43.2999 29.1853,43.2168 29.4474,43.2168C 29.6072,43.2168 29.7607,43.2487 29.8949,43.3127C 30.221,43.4661 30.5598,43.6131 30.8986,43.7346C 31.2694,43.8625 31.5826,44.2652 31.5826,44.604L 31.5826,45.8762C 31.5826,46.7712 32.305,47.5 33.2064,47.5L 35.2777,47.5C 36.1727,47.5 36.9015,46.7712 36.9015,45.8762L 36.9015,44.604C 36.9015,44.2652 37.2147,43.8625 37.5791,43.7346C 37.9243,43.6131 38.2631,43.4661 38.5892,43.3127C 38.717,43.2487 38.8769,43.2168 39.0367,43.2168C 39.2988,43.2168 39.5417,43.2999 39.6824,43.4469L 40.5901,44.3483C 40.897,44.6552 41.2997,44.8278 41.7345,44.8278C 42.1692,44.8278 42.5783,44.6552 42.8852,44.3483L 44.3491,42.8844C 44.982,42.2515 44.982,41.2158 44.3491,40.5829L 43.4477,39.6815C 43.2048,39.4386 43.1409,38.94 43.3135,38.5884C 43.4733,38.2623 43.614,37.9171 43.7354,37.5783C 43.8633,37.2139 44.266,36.9007 44.6112,36.9007L 45.877,36.9007C 46.772,36.9007 47.5008,36.1719 47.5008,35.2769L 47.5008,33.1992C 47.5008,32.3042 46.772,31.5754 45.877,31.5754 Z M 38.9983,34.2412C 38.9983,36.8623 36.8631,38.9975 34.2421,38.9975C 31.6146,38.9975 29.4794,36.8623 29.4794,34.2412C 29.4794,31.6138 31.6146,29.4786 34.2421,29.4786C 36.8631,29.4786 38.9983,31.6138 38.9983,34.2412 Z "/>
		<path fill="#000000" fill-opacity="0.952941" stroke-width="0.2" stroke-linejoin="round" d="M 24.4035,21.1615C 24.4354,21.072 24.5377,21.0017 24.5825,21.0017L 25.2218,21.0017C 25.8163,21.0017 26.3022,20.5158 26.3022,19.9149L 26.3022,18.8793C 26.3022,18.2847 25.8163,17.7989 25.2218,17.7989L 24.5825,17.7989C 24.5377,17.7989 24.4354,17.7221 24.4035,17.639C 24.3396,17.46 24.2628,17.281 24.1797,17.1084C 24.1414,17.0253 24.1606,16.9039 24.1925,16.8719L 24.6464,16.418C 25.0683,15.9961 25.0683,15.3057 24.6464,14.8837L 23.9112,14.155C 23.7067,13.9504 23.4382,13.8353 23.1505,13.8353C 22.8564,13.8353 22.5879,13.9504 22.3833,14.155L 21.9295,14.6024C 21.9167,14.6216 21.8655,14.6408 21.8016,14.6408C 21.7568,14.6408 21.7185,14.6344 21.6929,14.6216C 21.5203,14.5385 21.3413,14.4618 21.1623,14.3979C 21.0728,14.3659 21.0025,14.2636 21.0025,14.2189L 21.0025,13.5796C 21.0025,12.9851 20.5166,12.4992 19.9221,12.4992L 18.8801,12.4992C 18.2855,12.4992 17.7997,12.9851 17.7997,13.5796L 17.7997,14.2189C 17.7997,14.2636 17.7294,14.3659 17.6399,14.3979C 17.4609,14.4618 17.2819,14.5385 17.1093,14.6216C 17.0837,14.6344 17.0453,14.6408 17.0006,14.6408C 16.9366,14.6408 16.8855,14.6216 16.8727,14.6024L 16.4188,14.155C 16.2143,13.9504 15.9458,13.8353 15.6517,13.8353C 15.364,13.8353 15.0955,13.9504 14.8909,14.155L 14.1558,14.8837C 13.7338,15.3121 13.7338,15.9961 14.1558,16.418L 14.6097,16.8719C 14.6416,16.9039 14.6608,17.0253 14.6224,17.1084C 14.5393,17.281 14.4626,17.46 14.3987,17.639C 14.3667,17.7221 14.2644,17.7989 14.2197,17.7989L 13.5804,17.7989C 12.9859,17.7989 12.5,18.2847 12.5,18.8793L 12.5,19.9213C 12.5,20.5158 12.9859,21.0017 13.5804,21.0017L 14.2197,21.0017C 14.2644,21.0017 14.3667,21.072 14.3987,21.1615C 14.4626,21.3405 14.5393,21.5195 14.6224,21.6921C 14.6608,21.7752 14.6416,21.8967 14.6097,21.9286L 14.1558,22.3825C 13.9512,22.5871 13.8361,22.8556 13.8361,23.1497C 13.8361,23.4373 13.9512,23.7058 14.1558,23.9104L 14.8909,24.6456C 15.0955,24.8502 15.364,24.9652 15.6517,24.9652C 15.9458,24.9652 16.2143,24.8502 16.4188,24.6456L 16.8727,24.1917C 16.8855,24.1789 16.9366,24.1597 17.0006,24.1597C 17.0453,24.1597 17.0837,24.1661 17.1093,24.1789C 17.2819,24.262 17.4609,24.3387 17.6399,24.4027C 17.7294,24.4282 17.7997,24.5369 17.7997,24.5817L 17.7997,25.2146C 17.7997,25.8155 18.2855,26.3013 18.8801,26.3013L 19.9221,26.3013C 20.5166,26.3013 21.0025,25.8155 21.0025,25.2146L 21.0025,24.5817C 21.0025,24.5369 21.0728,24.4282 21.1623,24.4027C 21.3413,24.3387 21.5203,24.262 21.6929,24.1789C 21.7185,24.1661 21.7568,24.1597 21.8016,24.1597C 21.8655,24.1597 21.9167,24.1789 21.9295,24.1917L 22.3833,24.6456C 22.5879,24.8502 22.8564,24.9652 23.1505,24.9652C 23.4382,24.9652 23.7067,24.8502 23.9112,24.6456L 24.6464,23.9104C 25.0683,23.4885 25.0683,22.8045 24.6464,22.3825L 24.1925,21.9286C 24.1606,21.8967 24.1414,21.7752 24.1797,21.6921C 24.2628,21.5195 24.3396,21.3405 24.4035,21.1615 Z M 21.5075,19.3971C 21.5075,20.5606 20.5614,21.5067 19.4043,21.5067C 18.2408,21.5067 17.2946,20.5606 17.2946,19.3971C 17.2946,18.2336 18.2408,17.2874 19.4043,17.2874C 20.5614,17.2874 21.5075,18.2336 21.5075,19.3971 Z "/>
	</g>
</svg>
