<?xml version="1.0" encoding="UTF-8" standalone="no"?>
<!-- Generator: Adobe Illustrator 16.0.0, SVG Export Plug-In . SVG Version: 6.00 Build 0)  -->

<svg
   xmlns:dc="http://purl.org/dc/elements/1.1/"
   xmlns:cc="http://creativecommons.org/ns#"
   xmlns:rdf="http://www.w3.org/1999/02/22-rdf-syntax-ns#"
   xmlns:svg="http://www.w3.org/2000/svg"
   xmlns="http://www.w3.org/2000/svg"
   xmlns:sodipodi="http://sodipodi.sourceforge.net/DTD/sodipodi-0.dtd"
   xmlns:inkscape="http://www.inkscape.org/namespaces/inkscape"
   version="1.1"
   id="Layer_1"
   x="0px"
   y="0px"
   width="31.889px"
   height="31.637px"
   viewBox="0 0 31.889 31.637"
   style="enable-background:new 0 0 31.889 31.637;"
   xml:space="preserve"
   inkscape:version="0.48.2 r9819"
   sodipodi:docname="Flaticon_43406.svg"><metadata
   id="metadata3185"><rdf:RDF><cc:Work
       rdf:about=""><dc:format>image/svg+xml</dc:format><dc:type
         rdf:resource="http://purl.org/dc/dcmitype/StillImage" /><dc:title></dc:title></cc:Work></rdf:RDF></metadata><defs
   id="defs3183" /><sodipodi:namedview
   pagecolor="#ffffff"
   bordercolor="#666666"
   borderopacity="1"
   objecttolerance="10"
   gridtolerance="10"
   guidetolerance="10"
   inkscape:pageopacity="0"
   inkscape:pageshadow="2"
   inkscape:window-width="1082"
   inkscape:window-height="709"
   id="namedview3181"
   showgrid="false"
   inkscape:zoom="10.549496"
   inkscape:cx="8.8062256"
   inkscape:cy="12.795185"
   inkscape:window-x="0"
   inkscape:window-y="0"
   inkscape:window-maximized="0"
   inkscape:current-layer="g3143" />
<g
   id="g3143">
	<path
   d="M31.889,9.144c0-2.611-2.29-4.736-5.105-4.743c-0.337-2.316-2.483-4.107-5.075-4.107c-0.952,0-1.866,0.241-2.671,0.701   C18.141,0.351,17.045,0,15.904,0c-1.924,0-3.68,1.014-4.548,2.574c-0.438-0.111-0.889-0.167-1.346-0.167   c-2.822,0-5.119,2.127-5.119,4.743c0,0.185,0.012,0.372,0.035,0.558c-1.105,0.9-1.731,2.174-1.731,3.55   c0,1.955,1.269,3.675,3.194,4.396c0.451,2.225,2.54,3.855,5.03,3.855c0.835,0,1.651-0.188,2.386-0.548   c0.893,0.634,1.982,0.979,3.11,0.979c1.527,0,2.957-0.627,3.927-1.702c0.659,0.275,1.372,0.419,2.095,0.419   c2.822,0,5.117-2.127,5.117-4.742c0-0.061,0-0.121-0.003-0.182C30.279,13.199,31.889,11.322,31.889,9.144z M27.276,12.582   l-0.674,0.08l0.125,0.667c0.039,0.211,0.058,0.402,0.058,0.584c0,1.914-1.726,3.472-3.848,3.472c-0.691,0-1.372-0.171-1.973-0.496   l-0.491-0.266l-0.327,0.455c-0.714,0.995-1.922,1.59-3.23,1.59c-0.98,0-1.917-0.337-2.637-0.949l-0.346-0.295l-0.391,0.234   c-0.633,0.378-1.367,0.578-2.123,0.578c-1.992,0-3.638-1.347-3.83-3.133L7.544,14.68l-0.407-0.118   c-1.598-0.464-2.67-1.792-2.67-3.306c0-1.085,0.552-2.089,1.514-2.753l0.352-0.244L6.238,7.84C6.188,7.614,6.162,7.381,6.162,7.149   c0-1.915,1.726-3.473,3.849-3.473c0.501,0,0.992,0.088,1.463,0.262l0.581,0.216l0.229-0.577c0.547-1.38,2.003-2.306,3.621-2.306   c0.999,0,1.949,0.348,2.674,0.98l0.373,0.327l0.408-0.286c0.681-0.477,1.494-0.728,2.349-0.728c2.123,0,3.85,1.557,3.852,3.437   l-0.004,0.79l0.712-0.085c0.166-0.021,0.331-0.034,0.502-0.034c2.122,0,3.849,1.558,3.849,3.473   C30.618,10.877,29.182,12.355,27.276,12.582z"
   id="path3145" />
	
	
<path
   style="fill:#ffffff"
   d="M 15.792341,18.448725 C 15.26336,18.273684 14.716553,17.98092 14.303665,17.651678 l -0.35118,-0.280036 -0.617127,0.310598 c -0.888679,0.44727 -1.547513,0.566285 -2.433845,0.439663 C 9.1466734,17.871204 7.96973,16.801414 7.6688589,15.183562 7.5659378,14.630131 7.5539264,14.613507 7.1752712,14.500394 6.208806,14.211691 5.3525919,13.529991 4.8908163,12.681557 4.5490893,12.053692 4.4544022,10.965094 4.6831288,10.293818 4.8943455,9.6739314 5.3545829,9.0494246 5.8991259,8.6438035 6.3438797,8.3125138 6.3684153,8.272168 6.311343,7.9659631 6.194056,7.3366939 6.254116,6.5763022 6.4657927,6.0105456 6.7277884,5.3102993 7.5487317,4.4542351 8.2787608,4.1200167 9.2431522,3.6785037 10.488912,3.6430531 11.574916,4.0262178 c 0.221218,0.07805 0.431659,0.1419097 0.467646,0.1419097 0.03599,0 0.163447,-0.2364836 0.283246,-0.525519 0.323189,-0.7797539 1.019621,-1.4879882 1.88258,-1.9144857 0.69255,-0.3422772 0.758596,-0.3561328 1.673829,-0.3511518 1.127116,0.00613 1.684263,0.1931644 2.53844,0.8521355 l 0.542909,0.4188371 0.43681,-0.2947997 c 0.975054,-0.6580567 2.091423,-0.8721102 3.195259,-0.6126621 1.224308,0.2877639 2.050504,0.9105285 2.54763,1.9203332 0.24966,0.5071324 0.312873,0.7640207 0.346729,1.409057 l 0.0414,0.7888542 0.343991,-0.04422 c 0.189194,-0.024321 0.454928,-0.061118 0.590517,-0.08177 0.45463,-0.069246 1.417524,0.1261995 2.027103,0.4114563 0.780392,0.3651894 1.365398,0.9107514 1.713701,1.5981542 0.246546,0.4865789 0.278276,0.6464763 0.278276,1.4023218 0,0.7204136 -0.03686,0.9268476 -0.236978,1.3270776 -0.530547,1.061093 -1.657275,1.829794 -2.999379,2.046299 l -0.69561,0.112213 0.07016,0.390009 c 0.03859,0.214504 0.06584,0.675197 0.06056,1.023761 -0.02383,1.573658 -1.330588,2.910166 -3.150532,3.222252 -0.82717,0.141844 -1.567875,0.02242 -2.465088,-0.397432 l -0.626106,-0.292991 -0.191898,0.265639 c -0.46716,0.646677 -0.878309,1.000811 -1.543786,1.329708 -0.652388,0.322428 -0.789421,0.354293 -1.623673,0.377568 -0.56903,0.01587 -1.053521,-0.02169 -1.290316,-0.100047 l 0,0 z"
   id="path3189"
   inkscape:connector-curvature="0" /><path
   style="fill:#ffffff"
   d="M 15.792341,18.448725 C 15.26336,18.273684 14.716553,17.98092 14.303665,17.651678 l -0.35118,-0.280036 -0.617127,0.310598 c -0.886572,0.446209 -1.548439,0.566347 -2.424766,0.440126 C 9.185875,17.87395 8.0755026,16.91484 7.7101026,15.357869 7.5754373,14.78406 7.5067177,14.648522 7.3095476,14.567836 5.9733313,14.021038 5.3591694,13.542076 4.8908163,12.681557 4.5490893,12.053692 4.4544022,10.965094 4.6831288,10.293818 4.8943455,9.6739314 5.3545829,9.0494246 5.8991259,8.6438035 6.3438797,8.3125138 6.3684153,8.272168 6.311343,7.9659631 6.194056,7.3366939 6.254116,6.5763022 6.4657927,6.0105456 6.7277884,5.3102993 7.5487317,4.4542351 8.2787608,4.1200167 9.2431522,3.6785037 10.488912,3.6430531 11.574916,4.0262178 c 0.221218,0.07805 0.431659,0.1419097 0.467646,0.1419097 0.03599,0 0.163447,-0.2364836 0.283246,-0.525519 0.323189,-0.7797539 1.019621,-1.4879882 1.88258,-1.9144857 0.69255,-0.3422772 0.758596,-0.3561328 1.673829,-0.3511518 1.127116,0.00613 1.684263,0.1931644 2.53844,0.8521355 l 0.542909,0.4188371 0.43681,-0.2947997 c 0.975054,-0.6580567 2.091423,-0.8721102 3.195259,-0.6126621 1.224308,0.2877639 2.050504,0.9105285 2.54763,1.9203332 0.24966,0.5071324 0.312873,0.7640207 0.346729,1.409057 l 0.0414,0.7888542 0.343991,-0.04422 c 0.189194,-0.024321 0.454928,-0.061118 0.590517,-0.08177 0.45463,-0.069246 1.417524,0.1261995 2.027103,0.4114563 0.780392,0.3651894 1.365398,0.9107514 1.713701,1.5981542 0.246546,0.4865789 0.278276,0.6464763 0.278276,1.4023218 0,0.7204136 -0.03686,0.9268476 -0.236978,1.3270776 -0.530547,1.061093 -1.657275,1.829794 -2.999379,2.046299 l -0.69561,0.112213 0.07016,0.390009 c 0.03859,0.214504 0.06584,0.675197 0.06056,1.023761 -0.02383,1.573658 -1.330588,2.910166 -3.150532,3.222252 -0.82717,0.141844 -1.567875,0.02242 -2.465088,-0.397432 l -0.626106,-0.292991 -0.191898,0.265639 c -0.46716,0.646677 -0.878309,1.000811 -1.543786,1.329708 -0.652388,0.322428 -0.789421,0.354293 -1.623673,0.377568 -0.56903,0.01587 -1.053521,-0.02169 -1.290316,-0.100047 l 0,0 z"
   id="path3191"
   inkscape:connector-curvature="0" /></g>
<g
   id="g3151">
</g>
<g
   id="g3153">
</g>
<g
   id="g3155">
</g>
<g
   id="g3157">
</g>
<g
   id="g3159">
</g>
<g
   id="g3161">
</g>
<g
   id="g3163">
</g>
<g
   id="g3165">
</g>
<g
   id="g3167">
</g>
<g
   id="g3169">
</g>
<g
   id="g3171">
</g>
<g
   id="g3173">
</g>
<g
   id="g3175">
</g>
<g
   id="g3177">
</g>
<g
   id="g3179">
</g>
</svg>