<?xml version="1.0" encoding="UTF-8" standalone="no"?>
<!-- Created with Inkscape (http://www.inkscape.org/) -->

<svg
   xmlns:dc="http://purl.org/dc/elements/1.1/"
   xmlns:cc="http://creativecommons.org/ns#"
   xmlns:rdf="http://www.w3.org/1999/02/22-rdf-syntax-ns#"
   xmlns:svg="http://www.w3.org/2000/svg"
   xmlns="http://www.w3.org/2000/svg"
   version="1.1"
   width="210mm"
   height="297mm"
   id="svg2">
  <title
     id="title2987">Wolke</title>
  <defs
     id="defs4" />
  <metadata
     id="metadata7">
    <rdf:RDF>
      <cc:Work
         rdf:about="">
        <dc:format>image/svg+xml</dc:format>
        <dc:type
           rdf:resource="http://purl.org/dc/dcmitype/StillImage" />
        <dc:title>Wolke</dc:title>
      </cc:Work>
    </rdf:RDF>
  </metadata>
  <g
     id="layer1">
    <path
       d="m 165.44025,269.44591 c 6.62259,-8.84336 14.60422,-16.24831 23.68374,-22.47412 18.95692,-12.23495 37.19241,-26.64093 59.74419,-29.53969 7.05909,-0.63365 14.16204,-0.52868 21.24283,-0.50034 5.98265,0.64339 11.2156,3.3463 16.03888,6.80356 4.83506,3.5214 8.85656,7.87835 12.91471,12.2391 4.04769,4.36237 7.33219,9.31131 10.96601,13.99356 1.89207,1.61512 5.70338,7.91686 8.91588,6.27095 0.64816,-0.33209 1.04781,-1.01175 1.57172,-1.51762 -11.4244,6.39375 -22.8488,12.78749 -34.2732,19.18123 0.9077,-0.66857 1.86303,-1.27687 2.72308,-2.0057 3.51261,-2.97663 6.44366,-6.67018 9.62847,-9.98028 5.07472,-4.96087 9.94197,-10.15787 15.5181,-14.56344 17.39022,-11.8622 35.37721,-23.17401 55.17226,-30.40121 6.18281,-1.58252 12.20418,-3.63837 18.50609,-4.73386 6.56045,-0.75829 13.16953,-0.86778 19.76584,-0.93278 6.4071,-0.56736 11.63128,2.05032 17.0082,5.05107 4.80541,2.80167 7.72844,7.01182 10.82459,11.46222 3.61465,4.88365 5.46704,10.73658 8.63273,15.85206 3.30322,4.20083 4.90511,9.55515 8.4217,13.5514 4.96563,6.18412 2.95921,6.84869 10.3868,2.36871 14.75495,-9.6196 -4.29904,2.90458 -28.5185,15.88412 -1.45281,0.77858 2.61922,-2.0046 3.87025,-3.07781 3.66378,-3.14298 6.96767,-6.72557 10.39855,-10.11429 8.43776,-7.81382 17.92649,-14.34152 27.0853,-21.25739 6.31611,-4.25331 12.40306,-8.82039 18.55749,-13.29588 20.29892,-13.6546 32.40132,-23.83265 53.73903,-24.9537 5.75563,-0.18534 11.51567,-0.10778 17.27307,-0.0751 5.90251,-0.48987 10.6096,2.58992 15.32013,5.63306 4.90792,3.85014 5.80446,9.88825 6.52011,15.71079 0.54677,6.01363 0.49836,12.05962 0.48733,18.09183 0.39909,4.36546 -1.81028,10.36152 2.34795,13.21277 6.46773,2.02138 13.56744,1.76962 20.29841,1.87141 7.67329,0.0469 15.34637,-0.0598 23.0193,-0.11956 5.95078,-0.22088 11.81674,1.31077 16.80542,4.54283 4.04298,3.10326 7.84719,6.41235 11.2379,10.22266 4.4015,5.14851 7.86517,11.08035 11.4334,16.83136 4.00125,5.94958 7.78107,12.02589 11.44282,18.1887 3.39954,5.50591 4.93261,11.65699 5.75099,17.99721 0.46858,7.87232 0.67982,15.80161 0.19408,23.6768 -0.21932,6.72165 -2.08681,12.72726 -5.15756,18.62621 -10.69714,16.1657 -31.6636,27.51638 -49.55502,31.20594 -5.84207,0.91248 -11.77374,0.8614 -17.66977,0.8601 -6.54722,-0.289 -12.93049,-0.15489 -19.3741,0.97324 -5.93163,0.818 -11.77558,1.42947 -17.60768,2.76189 -13.47033,4.58985 -46.14185,25.26493 33.13625,-22.39455 0.64468,-0.38755 1.44508,0.42099 2.17764,0.59173 0.86695,0.20206 1.74548,0.3507 2.61822,0.52605 1.18807,0.29201 2.37614,0.58401 3.5642,0.87602 7.52947,2.65332 15.33746,4.2061 22.99488,6.40214 7.1775,2.11698 12.77974,6.51473 17.85377,11.87448 4.47791,5.20302 6.14283,11.55685 6.97768,18.1986 0.5202,5.8026 0.42416,11.63678 0.39026,17.45589 0.29187,6.63179 -0.83178,13.16255 -2.02177,19.65784 -4.9751,24.60895 -18.4019,22.59456 -45.46432,38.48945 -6.39103,1.0898 -12.6486,2.55559 -18.28767,5.85988 -13.93673,7.14121 -7.35354,3.81682 31.71405,-18.28845 0.70411,-0.3984 -1.34477,0.89981 -2.01678,1.35027 -2.51358,1.68487 -4.98944,3.42317 -7.48559,5.13382 -18.15722,12.4755 -36.83227,25.28545 -58.60353,29.42463 -6.34872,1.03129 -12.79183,1.07295 -19.20581,1.09389 -6.76392,-0.66577 -13.22582,-2.5806 -19.80808,-4.12476 -1.89685,-0.35793 -3.56133,-0.91499 -5.50055,-0.44459 -0.66105,0.16035 -2.41425,1.2539 -1.82036,0.92226 11.72833,-6.51789 23.45666,-13.03578 35.18499,-19.55367 -1.97074,1.15361 -1.13007,0.39246 -2.49027,2.31799 -1.70349,5.14066 -2.69398,10.48282 -4.18933,15.68818 -1.45172,6.33911 -4.1562,12.26914 -6.99943,18.08519 -3.14066,5.40078 -5.23521,11.28495 -7.84476,16.93831 -10.80424,16.82745 -32.40573,23.77544 -51.32906,28.30495 -5.79542,1.0793 -11.63048,2.28283 -17.21365,4.22585 -6.69124,1.89475 -13.59655,2.69044 -20.52046,3.02881 -6.67424,0.26885 -13.35512,0.26689 -20.03354,0.26646 -6.1363,0.55328 -11.1423,-2.78942 -16.34866,-5.45351 -5.6182,-3.11681 -10.41063,-7.45075 -14.76367,-12.12678 -3.93549,-4.54557 -4.6707,-10.27817 -5.76522,-15.93537 -0.73602,-5.23439 -2.75888,-10.10938 -4.08689,-15.19214 -1.35139,-5.12458 -4.2233,-1.93337 -7.13483,-0.21565 55.31291,-35.00289 37.38582,-23.56664 23.89746,-9.26713 -4.91208,5.26993 -10.06093,10.32407 -15.39702,15.16254 -16.73014,11.8924 -33.90064,25.55032 -54.52949,28.32383 -5.68713,1.78039 -11.57898,2.54526 -17.49907,2.9747 -6.4141,0.59326 -12.74301,1.91045 -19.17602,2.54495 -6.08642,-0.0808 -11.90632,1.13779 -17.85613,2.17493 -5.65633,0.74375 -11.39068,2.05842 -16.68462,-0.54158 -4.83007,-2.29083 -7.62809,-7.00666 -10.14594,-11.50525 -3.38702,-4.41052 -5.21223,-9.43071 -6.26543,-14.82614 -0.82939,-4.51665 -2.52882,-8.4613 -4.81293,-12.38477 -0.36594,-0.46346 -1.59915,-2.34683 -2.50659,-2.50964 -0.92556,-0.16606 -7.52482,4.70016 -3.81016,2.66825 11.5379,-6.31119 22.82893,-13.06358 34.2434,-19.59537 -4.6697,3.63672 -9.0857,7.73704 -13.42315,11.80809 -5.57657,4.48981 -11.32808,8.75634 -16.93567,13.21564 -16.36979,11.15794 -33.16835,22.31755 -51.55542,29.73172 -6.7992,1.73526 -13.34882,4.28537 -20.15745,6.02362 -6.37608,1.52974 -12.92764,1.87214 -19.45515,2.04125 -6.39108,-0.17434 -12.88221,0.60512 -19.19623,-0.52154 -5.41568,-0.64839 -8.88699,-3.83734 -12.39532,-7.61961 -3.8919,-2.77396 -6.23495,-7.05268 -8.10069,-11.34292 -2.04068,-5.44 -2.40129,-11.25503 -2.64851,-17.00073 -0.0743,-5.7186 -0.57693,-11.46155 0.72844,-17.06704 1.86343,-5.0964 5.71556,-8.68452 10.06515,-11.70349 125.20226,-72.43607 -25.283192,14.80721 14.2075,-8.97299 1.27377,-0.86534 2.81477,-1.94279 4.1416,-2.71738 12.85411,-7.46792 25.70822,-14.93584 38.56233,-22.40376 0.83574,-0.30771 1.71139,-0.52336 2.50721,-0.92312 0.52113,-0.26179 1.89379,-1.36075 1.40526,-1.04224 -11.94138,7.78548 -23.84425,15.62988 -35.76637,23.44482 -3.3834,0.83823 -6.75519,-1.77148 -9.53602,-3.33892 -2.90755,-1.63887 -4.02436,-2.0443 -7.07815,-3.3956 -6.55576,-3.08009 -12.97444,-6.44563 -19.9861,-8.36116 -5.06114,-2.13098 -10.302126,-3.69317 -15.262731,-6.06449 -6.450727,-2.90803 -12.075381,-7.06038 -17.838451,-11.07171 -4.73258,-3.9203 -7.974231,-9.37441 -10.045864,-15.10563 -1.880437,-6.64343 -1.772889,-13.63487 -1.882621,-20.48177 -0.365856,-7.44741 -0.389549,-13.48982 3.197064,-20.19609 3.364145,-5.34876 8.936292,-8.22559 13.956038,-11.73464 17.18889,-11.49736 34.892755,-20.81679 53.475815,-29.20217 3.06805,-1.60159 6.5524,-1.87962 9.80473,-2.83901 2.65999,-0.78465 2.52822,-0.96922 4.59294,-2.56119 -11.6916,6.79718 -23.38319,13.59436 -35.07479,20.39154 2.12821,-4.34848 -3.74656,-10.1676 -6.16232,-13.42176 -4.933139,-5.99113 -9.879433,-11.99343 -15.300902,-17.55144 -4.651559,-4.74171 -9.779801,-8.98403 -14.8964,-13.20881 -4.699009,-3.7199 -7.010529,-8.81919 -9.50843,-14.04824 -2.450483,-4.75899 -3.282738,-9.98664 -3.774604,-15.24961 -0.33802,-5.52291 -0.647665,-11.06285 0.251419,-16.54103 0.72519,-4.91542 2.679181,-9.35888 5.670003,-13.29327 3.573815,-4.95888 7.677929,-9.35653 12.677529,-12.87141 13.977677,-4.79781 28.232905,-20.79502 44.806835,-24.36706 2.84631,-0.61344 5.54668,-0.73143 8.32029,-1.64929 4.90982,-1.64889 10.08474,-1.99118 15.2174,-2.23556 0.91723,-0.0267 1.84344,0.0506 2.75169,-0.0802 1.55822,-0.22436 3.01443,-0.92492 4.55588,-1.2448 2.8393,-0.58921 5.76838,-0.81755 8.64882,-1.09607 6.35561,-1.40349 12.60958,-3.18854 18.97263,-4.55648 7.04408,-1.18356 14.18409,-1.51771 21.31219,-1.69236 3.90633,0.28768 8.11442,-0.82637 11.91351,0.49114 0.51182,0.1775 3.81071,2.00704 4.41927,2.34031 0.64093,0.28975 1.28186,0.5795 1.92279,0.86925 0,0 -35.49846,23.48957 -35.49846,23.48957 l 0,0 c -0.66107,-0.31936 -1.32213,-0.63871 -1.98319,-0.95807 -4.74476,-2.10861 -9.94701,-1.19023 -15.01425,-1.18603 -6.97407,0.2801 -13.97485,0.73543 -20.7935,2.32733 -6.39652,1.5604 -12.76826,3.32075 -19.30056,4.22952 -5.38253,0.75146 -10.64815,2.22098 -16.11086,2.2873 -5.02052,0.47226 -9.93863,1.38397 -14.773421,2.84269 -17.182999,3.09461 -40.077138,19.10746 20.150921,-15.27451 -5.05389,3.19214 -9.71654,6.44753 -13.12437,11.52105 -2.7135,3.59031 -5.900473,6.81745 -6.474461,11.54809 -1.222403,5.1328 -1.208637,10.22859 -0.811225,15.49819 0.33078,4.77472 0.849258,9.55293 3.059369,13.88581 2.235837,4.72255 4.156817,9.27385 8.527857,12.53739 5.10963,4.44355 10.42366,8.6628 15.0714,13.60785 5.45679,5.75432 10.45017,11.94092 15.51609,18.03708 3.98417,5.30718 8.68979,10.86642 8.75521,17.83313 -12.34029,7.82635 -24.59054,15.79653 -37.02088,23.47905 -4.26381,2.63523 -10.320107,1.98762 -14.454723,5.08886 -15.176938,7.33373 -46.028943,22.51403 19.258883,-12.60144 -2.47132,1.47806 -4.62137,3.38353 -7.11156,4.81621 -2.72803,1.56952 -5.57809,2.70941 -7.54056,5.36039 -5.221102,6.05595 -4.517231,10.26913 -4.354273,17.90123 0.05014,6.41261 -0.05812,12.93449 1.362557,19.22191 1.619815,4.99432 4.420366,9.64805 8.636856,12.87195 5.49416,3.97367 11.13034,7.7133 17.42414,10.33917 4.92605,2.02917 9.9561,3.78422 14.93711,5.67052 6.9745,2.39087 13.51345,5.79603 20.19939,8.87864 3.38351,1.59632 6.69601,3.58095 10.18799,4.92884 1.62835,0.62853 3.42221,0.79304 5.01445,1.50813 0.91671,0.4117 1.73621,1.01241 2.60431,1.51861 -11.27664,8.50957 -22.47343,17.12602 -33.82994,25.52872 -1.14161,0.84467 -5.04087,2.61352 -3.8145,1.89745 11.34706,-6.62554 22.68107,-13.27395 34.07382,-19.82062 1.42672,-0.81984 -5.30613,3.5835 -4.16539,2.6493 -2.12617,1.64619 -4.45514,2.98889 -6.7648,4.36784 -12.8449,7.66888 -25.73685,15.25872 -38.62021,22.8628 -0.87083,0.51399 -3.5151,2.00097 -2.64185,1.49111 11.26049,-6.57461 22.53589,-13.12366 33.80383,-19.68549 -4.13532,2.6562 -8.22367,5.04687 -11.123,9.14911 -2.42742,4.89987 -1.3465,10.36918 -1.45374,15.68696 0.14661,5.24382 0.27731,10.57962 1.94575,15.60599 1.65541,3.97736 3.99251,7.37628 7.41957,10.04461 2.93746,3.17409 6.22549,4.91163 10.66318,5.18729 6.25286,0.36927 12.53053,0.11653 18.78823,-0.0246 6.33858,-0.33018 12.67313,-0.96569 18.79021,-2.762 6.68407,-1.98146 13.35061,-4.11895 19.85655,-6.61629 13.27498,-6.62404 29.66683,-16.84712 -29.0796,17.27793 -0.82212,0.47755 1.66804,-0.91703 2.46239,-1.43947 5.84118,-3.84175 -0.96152,0.092 5.52268,-3.50533 5.79218,-4.12153 10.94043,-9.11588 17.03339,-12.8437 10.55331,-9.18625 -5.13508,4.61794 4.49095,-4.32205 2.91366,-2.70601 6.53731,-4.6266 8.5241,-8.2598 12.89929,-7.40264 25.64006,-15.08864 38.69789,-22.20793 3.94198,-2.14921 8.01456,2.33361 9.8689,5.09629 2.56859,4.36006 4.51167,8.71021 5.52063,13.71655 0.78447,5.01719 2.41766,9.51027 5.55735,13.58225 2.09373,3.70982 4.32407,7.49582 8.59987,8.87859 5.08456,0.85697 10.28802,-0.51221 15.32412,-1.18611 5.96477,-1.06344 11.95033,-1.46314 17.98556,-1.93655 6.42604,-0.80405 12.78632,-2.10017 19.25737,-2.51368 5.83847,-0.68053 11.53837,-1.9623 17.2666,-3.25457 2.47781,-0.57441 3.33878,-0.68838 5.74001,-1.59433 0.97918,-0.36943 3.78238,-1.77815 2.88345,-1.24224 -59.05972,35.20858 -39.92911,23.56105 -27.35077,15.81038 5.9311,-3.894 10.51156,-9.71879 15.66392,-14.5644 16.19269,-17.19654 16.56572,-18.87406 48.59032,-33.48062 5.29127,-1.61535 9.55763,1.16416 11.14851,6.40772 1.22459,5.17017 3.39024,10.05415 4.12747,15.34685 1.09909,4.83738 1.112,9.9965 4.59858,13.92002 4.12442,4.30627 8.6013,8.26668 14.00975,10.89864 4.87112,2.52037 9.52537,4.42499 15.16305,3.81678 6.60498,-0.009 13.21738,-0.0118 19.8098,-0.47167 6.77819,-0.63346 13.51187,-1.68153 20.003,-3.81036 5.75676,-1.46674 11.50066,-2.91336 17.3261,-4.08046 1.97462,-0.5282 3.97366,-0.97062 5.92706,-1.57257 0.89524,-0.27588 3.4472,-1.43315 2.64539,-0.94871 -11.20338,6.76881 -22.68406,13.07106 -33.89429,19.82855 -0.73601,0.44366 1.68795,-0.42815 2.42985,-0.8619 0.67736,-0.39602 1.16369,-1.05282 1.74553,-1.57924 3.37783,-5.27844 4.53532,-11.53916 7.97712,-16.79349 2.75316,-5.65057 5.90865,-11.22 7.28114,-17.40421 1.52957,-5.2921 3.02795,-10.60931 3.89129,-16.05334 4.34779,-18.81163 30.10345,-30.19874 48.18704,-25.1919 6.30986,1.5943 12.67083,3.19908 19.22609,3.23901 6.23095,-0.11168 12.49312,-0.33959 18.59512,-1.73193 3.8267,-0.96768 7.53291,-2.04297 11.16218,-3.62609 1.31125,-0.57198 5.10113,-2.58264 3.87305,-1.8489 -9.79793,5.85398 -45.55326,26.65172 -29.58994,17.22938 15.88601,-11.46416 32.74504,-21.71184 50.41672,-30.21471 5.98513,-2.33738 12.29491,-3.46512 18.16547,-6.00824 -11.17092,6.64424 -22.30695,13.34748 -33.51275,19.93272 -0.78978,0.46413 1.57403,-0.95691 2.25851,-1.56572 3.37512,-3.00203 4.72964,-7.50526 5.55791,-11.77731 1.39052,-6.17454 2.36222,-12.52478 2.26406,-18.85956 0.0428,-5.67509 0.15225,-11.35747 -0.16279,-17.02693 -0.51173,-5.75898 -1.54579,-11.32155 -5.51726,-15.80274 -4.74456,-4.78486 -10.05926,-8.32367 -16.664,-10.01238 -7.58897,-2.19613 -15.3068,-3.90779 -22.8551,-6.25706 -0.0993,-0.0229 -9.92514,-2.19846 -9.20184,-2.84356 26.6647,-23.78194 20.03509,-23.20255 36.36747,-26.51185 5.86877,-1.14198 11.85442,-1.47821 17.74214,-2.53294 6.56459,-0.78912 13.15367,-0.42942 19.75301,-0.52156 5.69232,-0.0873 11.47077,-0.15209 16.9728,-1.79328 14.93722,-5.71387 1.5632,-0.75892 -31.22494,18.69932 -0.8031,0.47661 1.73848,-0.69388 2.56056,-1.13696 2.94843,-1.5891 1.79437,-1.1248 3.93534,-3.61174 0.58566,-0.6803 1.23857,-1.29969 1.85785,-1.94953 3.35629,-5.32884 5.81514,-10.5988 6.0578,-17.03234 0.90359,-7.57285 0.36997,-15.24542 0.0708,-22.8496 -0.56173,-5.79567 -1.7088,-11.42917 -4.82356,-16.46077 -3.64306,-6.14192 -7.37115,-12.21816 -11.36339,-18.14205 -3.42451,-5.53585 -6.83932,-11.21028 -11.18139,-16.07393 -3.17466,-3.40411 -6.65387,-6.52241 -10.54786,-9.09201 -4.85565,-2.34572 -10.05815,-3.06111 -15.43493,-2.77093 -7.65393,0.027 -15.30869,0.0683 -22.96196,-0.0625 -7.46682,-0.2027 -15.74573,0.0814 -22.19531,-4.20126 -5.30346,-5.42619 -4.09997,-9.34983 -4.04946,-16.38654 0.0299,-5.89219 0.11173,-11.79263 -0.25943,-17.67667 -0.42242,-4.54929 -0.53939,-9.60065 -4.69152,-12.38273 -4.32797,-2.74127 -8.69225,-4.17034 -13.90632,-3.69258 -5.68485,-0.0191 -11.38185,-0.0906 -17.05283,0.37426 -17.0123,1.95842 -41.66747,19.36743 19.92053,-15.7412 -6.5995,3.97025 -12.19237,9.42894 -18.95079,13.20359 -9.18615,6.74291 -18.40196,13.44789 -27.17836,20.7258 -3.73879,3.48951 -10.23679,11.42114 -14.04441,13.79529 -13.21566,8.24029 -26.70855,16.02877 -40.15504,23.88676 -1.24302,0.7264 -2.59938,1.23866 -3.89907,1.858 -8.37384,1.88937 -9.00776,-0.76156 -13.53969,-6.65869 -3.41126,-4.36227 -5.39429,-9.61677 -8.66658,-14.10293 -3.05952,-5.08379 -4.96457,-10.7736 -8.50849,-15.59627 -2.78895,-3.90258 -5.40402,-7.54216 -9.8053,-9.81296 -4.96288,-2.65458 -10.04498,-3.76238 -15.72139,-3.28054 -6.4568,0.13202 -12.96052,0.28486 -19.31013,1.57939 -6.08213,1.435 -12.11062,3.20558 -18.01065,5.25478 -1.57879,0.64947 -5.05023,2.06064 -6.57931,2.75924 -1.08075,0.49378 -4.22508,2.17013 -3.20359,1.56318 58.34817,-34.66896 39.67397,-23.67804 27.41311,-15.60388 -6.07965,3.65584 -10.71817,8.95035 -15.80364,13.83297 -19.42822,19.08105 -10.17647,16.50266 -50.95382,35.02221 -6.31964,-0.50185 -9.37732,-4.44633 -13.31707,-9.01157 -3.45209,-4.6363 -6.75236,-9.3738 -10.67351,-13.64725 -3.89286,-4.0926 -7.77884,-8.18729 -12.46707,-11.39728 -4.49413,-2.79379 -9.16109,-4.86016 -14.56772,-4.77856 -6.93849,-0.005 -13.9186,-0.0601 -20.79217,1.02504 -3.75356,0.73861 -7.31504,1.57819 -10.83479,3.1328 -1.22577,0.5414 -4.75403,2.46967 -3.60123,1.78655 10.65926,-6.31643 21.41941,-12.46101 32.12912,-18.69151 -1.43306,0.85875 -2.86613,1.71751 -4.29919,2.57627 -9.25633,5.56398 -17.4221,12.35672 -24.01827,20.98459 0,0 -38.93495,16.77853 -38.93495,16.77853 z"
       id="path2985"
       style="fill:#000000;fill-opacity:1;fill-rule:nonzero;stroke:none" />
  </g>
</svg>
